<svg xmlns="http://www.w3.org/2000/svg" xmlns:xlink="http://www.w3.org/1999/xlink" width="1080" zoomAndPan="magnify" viewBox="0 0 810 809.999993" height="1080" preserveAspectRatio="xMidYMid meet" version="1.0"><defs><clipPath id="f6a8a49b26"><path d="M 341.375 36.6875 L 345.125 36.6875 L 345.125 40.4375 L 341.375 40.4375 Z M 341.375 36.6875 " clip-rule="nonzero"/></clipPath><clipPath id="24c7abb1b6"><path d="M 13.703125 13.703125 L 795.953125 13.703125 L 795.953125 795.953125 L 13.703125 795.953125 Z M 13.703125 13.703125 " clip-rule="nonzero"/></clipPath></defs><g clip-path="url(#f6a8a49b26)"><path fill="#ffffff" d="M 341.375 36.6875 L 345.125 36.6875 L 345.125 40.4375 L 341.375 40.4375 Z M 341.375 36.6875 " fill-opacity="1" fill-rule="nonzero"/></g><g clip-path="url(#24c7abb1b6)"><path fill="#ffffff" d="M 703.949219 256.304688 L 742.292969 188.742188 L 621.253906 67.703125 L 553.691406 106.046875 C 540.125 99.007812 525.777344 93.265625 511.167969 88.308594 L 490.5625 13.703125 L 319.433594 13.703125 L 298.828125 88.308594 C 284.21875 93.265625 269.871094 99.007812 256.304688 106.046875 L 188.742188 67.703125 L 67.703125 188.742188 L 106.046875 256.304688 C 99.007812 269.871094 93.265625 284.21875 88.308594 298.828125 L 13.703125 319.433594 L 13.703125 490.558594 L 88.308594 511.167969 C 93.265625 525.777344 99.007812 540.125 106.046875 553.691406 L 67.703125 621.253906 L 188.742188 742.292969 L 256.304688 703.945312 C 269.871094 710.988281 284.21875 716.730469 298.828125 721.6875 L 319.433594 796.292969 L 490.5625 796.292969 L 511.167969 721.6875 C 525.777344 716.730469 540.125 710.988281 553.691406 703.945312 L 621.253906 742.292969 L 742.292969 621.253906 L 703.949219 553.691406 C 710.988281 540.125 716.730469 525.777344 721.6875 511.167969 L 796.292969 490.558594 L 796.292969 319.433594 L 721.6875 298.828125 C 716.730469 284.21875 710.988281 269.871094 703.949219 256.304688 Z M 404.996094 566.210938 C 316.042969 566.210938 243.785156 493.953125 243.785156 404.996094 C 243.785156 316.042969 316.042969 243.785156 404.996094 243.785156 C 493.953125 243.785156 566.210938 316.042969 566.210938 404.996094 C 566.210938 493.953125 493.953125 566.210938 404.996094 566.210938 Z M 404.996094 566.210938 " fill-opacity="1" fill-rule="nonzero"/></g></svg>