<svg xmlns="http://www.w3.org/2000/svg" xmlns:xlink="http://www.w3.org/1999/xlink" width="1080" zoomAndPan="magnify" viewBox="0 0 810 809.999993" height="1080" preserveAspectRatio="xMidYMid meet" version="1.2"><defs><clipPath id="a044558c4d"><path d="M 517.433594 522.75 L 526.5 522.75 L 526.5 526.5 L 517.433594 526.5 Z M 517.433594 522.75 "/></clipPath></defs><g id="71cad73c6b"><path style=" stroke:none;fill-rule:evenodd;fill:#ffffff;fill-opacity:1;" d="M 668.335938 612.28125 C 699.296875 612.28125 724.390625 637.375 724.390625 668.335938 C 724.390625 699.296875 699.296875 724.390625 668.335938 724.390625 C 637.378906 724.390625 612.28125 699.296875 612.28125 668.335938 C 612.28125 637.378906 637.378906 612.28125 668.335938 612.28125 Z M 381.53125 382.453125 C 389.78125 382.453125 397.523438 384.636719 404.207031 388.457031 L 480.355469 312.308594 C 481.507812 311.15625 481.957031 309.628906 481.613281 308.039062 L 472.972656 267.929688 C 472.628906 266.339844 473.078125 264.8125 474.230469 263.660156 L 543.171875 194.714844 C 545.789062 192.101562 550.238281 193.414062 551.015625 197.027344 L 561.132812 243.964844 C 561.546875 245.890625 564.328125 248.671875 566.253906 249.085938 L 613.191406 259.203125 C 616.804688 259.980469 618.117188 264.429688 615.503906 267.042969 L 546.558594 335.988281 C 545.40625 337.140625 543.878906 337.589844 542.289062 337.246094 L 502.183594 328.605469 C 500.589844 328.261719 499.0625 328.710938 497.910156 329.863281 L 421.636719 406.136719 C 425.257812 412.691406 427.324219 420.230469 427.324219 428.246094 C 427.324219 453.539062 406.820312 474.039062 381.53125 474.039062 C 356.238281 474.039062 335.738281 453.539062 335.738281 428.246094 C 335.738281 402.957031 356.242188 382.453125 381.53125 382.453125 Z M 439.191406 318.367188 C 357.792969 275.558594 257.457031 334.160156 257.457031 428.246094 C 257.457031 496.773438 313.007812 552.320312 381.53125 552.320312 C 475.328125 552.320312 533.964844 452.550781 491.714844 371.167969 L 457.960938 404.921875 C 473.464844 455.777344 435.535156 508.140625 381.53125 508.140625 C 337.40625 508.140625 301.636719 472.371094 301.636719 428.246094 C 301.636719 373.945312 354.554688 335.984375 405.53125 352.023438 Z M 453.960938 249.230469 C 328.589844 198.449219 188.453125 290.320312 188.453125 428.246094 C 188.453125 534.882812 274.898438 621.324219 381.53125 621.324219 C 519.179688 621.324219 611.054688 481.707031 560.792969 356.40625 C 546.375 367.09375 527.960938 359.554688 511.785156 356.066406 C 566.0625 453.808594 495.980469 577.144531 381.53125 577.144531 C 299.296875 577.144531 232.632812 510.480469 232.632812 428.246094 C 232.632812 313.597656 356.367188 243.539062 454.101562 298.210938 L 448.703125 273.160156 C 446.882812 264.699219 448.839844 256.015625 453.960938 249.230469 Z M 613.957031 81.800781 C 607.78125 87.410156 602.480469 93.964844 598.277344 101.234375 C 481.191406 26.578125 328.8125 26.578125 211.722656 101.234375 C 207.519531 93.964844 202.21875 87.410156 196.042969 81.800781 C 322.320312 -0.0078125 487.679688 -0.0078125 613.957031 81.800781 Z M 728.199219 196.042969 C 722.589844 202.21875 716.035156 207.519531 708.765625 211.722656 C 783.421875 328.808594 783.421875 481.1875 708.765625 598.273438 C 716.035156 602.480469 722.589844 607.777344 728.203125 613.953125 C 810.007812 487.679688 810.007812 322.320312 728.199219 196.042969 Z M 613.957031 728.199219 C 607.78125 722.589844 602.480469 716.035156 598.277344 708.765625 C 481.191406 783.421875 328.808594 783.421875 211.722656 708.765625 C 207.519531 716.035156 202.21875 722.589844 196.042969 728.199219 C 322.320312 810.007812 487.679688 810.007812 613.957031 728.199219 Z M 81.800781 613.957031 C -0.0078125 487.679688 -0.0078125 322.320312 81.800781 196.042969 C 87.410156 202.21875 93.964844 207.519531 101.234375 211.722656 C 26.578125 328.808594 26.578125 481.191406 101.234375 598.277344 C 93.964844 602.480469 87.410156 607.78125 81.800781 613.957031 Z M 668.335938 85.609375 C 637.378906 85.609375 612.28125 110.703125 612.28125 141.664062 C 612.28125 172.621094 637.375 197.71875 668.335938 197.71875 C 699.296875 197.71875 724.390625 172.621094 724.390625 141.664062 C 724.390625 110.703125 699.296875 85.609375 668.335938 85.609375 Z M 141.664062 85.609375 C 110.707031 85.609375 85.609375 110.703125 85.609375 141.664062 C 85.609375 172.625 110.703125 197.71875 141.664062 197.71875 C 172.625 197.71875 197.71875 172.625 197.71875 141.664062 C 197.71875 110.703125 172.625 85.609375 141.664062 85.609375 Z M 141.664062 612.28125 C 172.621094 612.28125 197.71875 637.375 197.71875 668.335938 C 197.71875 699.296875 172.621094 724.390625 141.664062 724.390625 C 110.703125 724.390625 85.609375 699.296875 85.609375 668.335938 C 85.609375 637.378906 110.703125 612.28125 141.664062 612.28125 Z M 141.664062 612.28125 "/><g clip-rule="nonzero" clip-path="url(#a044558c4d)"><path style=" stroke:none;fill-rule:nonzero;fill:#ffffff;fill-opacity:1;" d="M 517.433594 522.75 L 526.5 522.75 L 526.5 526.5 L 517.433594 526.5 Z M 517.433594 522.75 "/></g></g></svg>