<svg xmlns="http://www.w3.org/2000/svg" xmlns:xlink="http://www.w3.org/1999/xlink" width="1080" zoomAndPan="magnify" viewBox="0 0 810 809.999993" height="1080" preserveAspectRatio="xMidYMid meet" version="1.0"><defs><clipPath id="61648038c2"><path d="M 311.488281 228.367188 L 315.238281 228.367188 L 315.238281 232.117188 L 311.488281 232.117188 Z M 311.488281 228.367188 " clip-rule="nonzero"/></clipPath><clipPath id="07dcabdf5f"><path d="M 4.273438 686 L 806 686 L 806 710.28125 L 4.273438 710.28125 Z M 4.273438 686 " clip-rule="nonzero"/></clipPath><clipPath id="4d34b39cd1"><path d="M 630 99.78125 L 728 99.78125 L 728 197 L 630 197 Z M 630 99.78125 " clip-rule="nonzero"/></clipPath></defs><g clip-path="url(#61648038c2)"><path fill="#ffffff" d="M 311.488281 228.367188 L 315.238281 228.367188 L 315.238281 232.117188 L 311.488281 232.117188 Z M 311.488281 228.367188 " fill-opacity="1" fill-rule="nonzero"/></g><g clip-path="url(#07dcabdf5f)"><path fill="#ffffff" d="M 794.730469 710.210938 L 15.257812 710.210938 C 9 710.210938 4.304688 705.511719 4.304688 697.6875 C 4.304688 691.425781 9 686.730469 15.257812 686.730469 L 794.730469 686.730469 C 800.992188 686.730469 805.6875 691.425781 805.6875 697.6875 C 805.6875 705.511719 800.992188 710.210938 794.730469 710.210938 Z M 794.730469 710.210938 " fill-opacity="1" fill-rule="evenodd"/></g><path fill="#ffffff" d="M 73.171875 664.816406 L 73.171875 559.949219 C 73.171875 553.6875 77.867188 547.429688 85.695312 547.429688 L 178.039062 547.429688 C 184.300781 547.429688 190.5625 553.6875 190.5625 559.949219 L 190.5625 664.816406 Z M 73.171875 664.816406 " fill-opacity="1" fill-rule="evenodd"/><path fill="#ffffff" d="M 256.300781 664.816406 L 256.300781 419.082031 C 256.300781 412.820312 260.996094 406.558594 267.257812 406.558594 L 361.167969 406.558594 C 367.429688 406.558594 372.125 412.820312 372.125 419.082031 L 372.125 664.816406 Z M 256.300781 664.816406 " fill-opacity="1" fill-rule="evenodd"/><path fill="#ffffff" d="M 437.863281 664.816406 L 437.863281 464.472656 C 437.863281 456.644531 442.558594 451.949219 448.820312 451.949219 L 542.734375 451.949219 C 548.996094 451.949219 553.691406 456.644531 553.691406 464.472656 L 553.691406 664.816406 Z M 437.863281 664.816406 " fill-opacity="1" fill-rule="evenodd"/><path fill="#ffffff" d="M 619.429688 664.816406 L 619.429688 314.210938 C 619.429688 307.953125 624.125 303.257812 631.949219 303.257812 L 724.296875 303.257812 C 730.558594 303.257812 735.253906 307.953125 735.253906 314.210938 L 735.253906 664.816406 Z M 619.429688 664.816406 " fill-opacity="1" fill-rule="evenodd"/><path fill="#ffffff" d="M 160.824219 383.082031 C 157.691406 383.082031 154.5625 381.515625 151.433594 378.386719 C 148.300781 372.125 148.300781 365.863281 152.996094 361.167969 L 278.214844 265.691406 C 282.910156 260.996094 290.734375 262.5625 293.867188 267.257812 C 298.5625 271.953125 296.996094 279.777344 292.300781 282.910156 L 167.085938 379.949219 C 165.519531 381.515625 162.390625 383.082031 160.824219 383.082031 Z M 461.34375 300.125 C 461.34375 300.125 459.777344 300.125 458.210938 300.125 L 347.082031 271.953125 C 340.820312 271.953125 337.691406 264.125 339.257812 259.429688 C 340.820312 253.167969 347.082031 248.472656 353.34375 250.039062 L 464.472656 278.210938 C 469.167969 279.777344 473.863281 286.039062 472.300781 290.734375 C 470.734375 296.996094 466.039062 300.125 461.34375 300.125 Z M 523.949219 286.039062 C 520.820312 286.039062 517.691406 284.472656 514.558594 281.34375 C 511.429688 276.648438 511.429688 268.820312 516.125 265.691406 L 642.90625 162.386719 C 647.601562 159.257812 655.429688 159.257812 658.558594 163.953125 C 663.253906 168.648438 661.6875 176.472656 658.558594 179.605469 L 531.777344 282.910156 C 530.210938 284.472656 527.082031 286.039062 523.949219 286.039062 Z M 523.949219 286.039062 " fill-opacity="1" fill-rule="evenodd"/><path fill="#ffffff" d="M 131.085938 440.992188 C 104.476562 440.992188 82.5625 419.082031 82.5625 392.472656 C 82.5625 365.863281 104.476562 345.515625 131.085938 345.515625 C 157.691406 345.515625 179.605469 365.863281 179.605469 392.472656 C 179.605469 419.082031 157.691406 440.992188 131.085938 440.992188 Z M 131.085938 440.992188 " fill-opacity="1" fill-rule="evenodd"/><path fill="#ffffff" d="M 314.214844 300.125 C 287.605469 300.125 265.691406 279.777344 265.691406 251.605469 C 265.691406 224.996094 287.605469 204.648438 314.214844 204.648438 C 340.820312 204.648438 362.734375 224.996094 362.734375 251.605469 C 362.734375 279.777344 340.820312 300.125 314.214844 300.125 Z M 314.214844 300.125 " fill-opacity="1" fill-rule="evenodd"/><path fill="#ffffff" d="M 495.777344 345.515625 C 469.167969 345.515625 448.820312 325.167969 448.820312 298.558594 C 448.820312 271.953125 469.167969 250.039062 495.777344 250.039062 C 522.386719 250.039062 544.296875 271.953125 544.296875 298.558594 C 544.296875 325.167969 522.386719 345.515625 495.777344 345.515625 Z M 495.777344 345.515625 " fill-opacity="1" fill-rule="evenodd"/><g clip-path="url(#4d34b39cd1)"><path fill="#ffffff" d="M 678.90625 196.820312 C 652.296875 196.820312 630.386719 174.910156 630.386719 148.300781 C 630.386719 121.691406 652.296875 99.78125 678.90625 99.78125 C 705.515625 99.78125 727.425781 121.691406 727.425781 148.300781 C 727.425781 174.910156 705.515625 196.820312 678.90625 196.820312 Z M 678.90625 196.820312 " fill-opacity="1" fill-rule="evenodd"/></g></svg>