<svg xmlns="http://www.w3.org/2000/svg" xmlns:xlink="http://www.w3.org/1999/xlink" width="1080" zoomAndPan="magnify" viewBox="0 0 810 809.999993" height="1080" preserveAspectRatio="xMidYMid meet" version="1.0"><defs><clipPath id="ba852ddef1"><path d="M 155.710938 90.484375 L 188.480469 90.484375 L 188.480469 108.824219 L 155.710938 108.824219 Z M 155.710938 90.484375 " clip-rule="nonzero"/></clipPath><clipPath id="d371195485"><path d="M 321 8.550781 L 406 8.550781 L 406 93 L 321 93 Z M 321 8.550781 " clip-rule="nonzero"/></clipPath><clipPath id="2ab586577b"><path d="M 712 278 L 796.671875 278 L 796.671875 363 L 712 363 Z M 712 278 " clip-rule="nonzero"/></clipPath><clipPath id="21d09fb6b4"><path d="M 712 446 L 796.671875 446 L 796.671875 531 L 712 531 Z M 712 446 " clip-rule="nonzero"/></clipPath><clipPath id="cddec6634e"><path d="M 321 717 L 406 717 L 406 801.300781 L 321 801.300781 Z M 321 717 " clip-rule="nonzero"/></clipPath><clipPath id="4d9790c62a"><path d="M 13.671875 278 L 98 278 L 98 363 L 13.671875 363 Z M 13.671875 278 " clip-rule="nonzero"/></clipPath><clipPath id="9750a3940a"><path d="M 13.671875 447 L 98 447 L 98 531 L 13.671875 531 Z M 13.671875 447 " clip-rule="nonzero"/></clipPath></defs><g clip-path="url(#ba852ddef1)"><path fill="#ffffff" d="M 155.710938 90.484375 L 188.453125 90.484375 L 188.453125 108.824219 L 155.710938 108.824219 Z M 155.710938 90.484375 " fill-opacity="1" fill-rule="nonzero"/></g><path fill="#ffffff" d="M 533.425781 557.578125 L 276.105469 557.578125 C 249.628906 557.578125 227.796875 535.746094 227.796875 509.273438 L 227.796875 300.722656 C 227.796875 273.78125 249.628906 251.949219 276.105469 251.949219 L 533.425781 251.949219 C 560.363281 251.949219 582.195312 273.78125 582.195312 300.722656 L 582.195312 509.273438 C 582.195312 535.746094 560.363281 557.578125 533.425781 557.578125 Z M 284.929688 460.964844 C 284 460.964844 283.070312 460.964844 282.140625 460.503906 C 277.960938 459.109375 276.105469 454.464844 277.960938 450.285156 L 294.683594 408.480469 L 294.683594 408.015625 L 324.875 332.769531 C 324.875 332.769531 324.875 332.304688 324.875 332.304688 C 325.339844 331.375 325.804688 330.449219 326.730469 329.984375 C 327.195312 329.054688 328.125 328.589844 329.054688 328.125 C 329.054688 328.125 329.054688 328.125 329.519531 328.125 C 330.449219 327.660156 330.914062 327.660156 331.839844 327.660156 C 332.769531 327.660156 333.699219 327.660156 334.628906 328.125 C 334.628906 328.125 335.09375 328.125 335.09375 328.125 C 336.019531 328.589844 336.949219 329.054688 337.414062 329.984375 C 338.34375 330.449219 338.808594 331.375 339.273438 332.304688 C 339.273438 332.304688 339.273438 332.769531 339.273438 332.769531 L 369.464844 408.015625 L 369.464844 408.480469 L 386.183594 450.285156 C 387.578125 454.464844 385.722656 459.109375 382.003906 460.503906 C 377.824219 461.894531 373.179688 460.039062 371.785156 456.320312 L 356.921875 419.164062 L 307.222656 419.164062 L 292.359375 456.320312 C 290.96875 459.109375 288.179688 460.964844 284.929688 460.964844 Z M 461.894531 461.429688 L 420.558594 461.429688 C 416.375 461.429688 413.125 458.179688 413.125 454 C 413.125 449.355469 416.375 446.101562 420.558594 446.101562 L 454 446.101562 L 454 342.523438 L 420.558594 342.523438 C 416.375 342.523438 413.125 339.273438 413.125 335.09375 C 413.125 330.449219 416.375 327.195312 420.558594 327.195312 L 502.769531 327.195312 C 506.949219 327.195312 510.664062 330.449219 510.664062 335.09375 C 510.664062 339.273438 506.949219 342.523438 502.769531 342.523438 L 469.328125 342.523438 L 469.328125 446.101562 L 502.769531 446.101562 C 506.949219 446.101562 510.664062 449.355469 510.664062 454 C 510.664062 458.179688 506.949219 461.429688 502.769531 461.429688 Z M 350.882812 403.371094 L 331.839844 356.457031 L 313.261719 403.371094 Z M 350.882812 403.371094 " fill-opacity="1" fill-rule="evenodd"/><path fill="#ffffff" d="M 363.890625 267.742188 C 359.710938 267.742188 355.992188 264.027344 355.992188 259.847656 L 355.992188 84.738281 C 355.992188 80.558594 359.710938 76.84375 363.890625 76.84375 C 368.070312 76.84375 371.320312 80.558594 371.320312 84.738281 L 371.320312 259.847656 C 371.320312 264.027344 368.070312 267.742188 363.890625 267.742188 Z M 363.890625 267.742188 " fill-opacity="1" fill-rule="evenodd"/><g clip-path="url(#d371195485)"><path fill="#ffffff" d="M 363.890625 92.632812 C 340.667969 92.632812 321.621094 73.589844 321.621094 50.367188 C 321.621094 27.605469 340.667969 8.5625 363.890625 8.5625 C 387.113281 8.5625 405.695312 27.605469 405.695312 50.367188 C 405.695312 73.589844 387.113281 92.632812 363.890625 92.632812 Z M 363.890625 92.632812 " fill-opacity="1" fill-rule="evenodd"/></g><path fill="#ffffff" d="M 446.101562 267.742188 C 441.921875 267.742188 438.207031 264.027344 438.207031 259.847656 L 438.207031 187.386719 C 438.207031 183.207031 441.921875 179.492188 446.101562 179.492188 C 450.285156 179.492188 454 183.207031 454 187.386719 L 454 259.847656 C 454 264.027344 450.285156 267.742188 446.101562 267.742188 Z M 446.101562 267.742188 " fill-opacity="1" fill-rule="evenodd"/><path fill="#ffffff" d="M 446.101562 195.285156 C 422.878906 195.285156 404.300781 176.242188 404.300781 153.015625 C 404.300781 130.257812 422.878906 111.214844 446.101562 111.214844 C 469.328125 111.214844 487.90625 130.257812 487.90625 153.015625 C 487.90625 176.242188 469.328125 195.285156 446.101562 195.285156 Z M 446.101562 195.285156 " fill-opacity="1" fill-rule="evenodd"/><path fill="#ffffff" d="M 528.316406 267.742188 C 524.136719 267.742188 520.417969 264.027344 520.417969 259.847656 L 520.417969 146.515625 C 520.417969 123.753906 539 105.175781 561.757812 105.175781 L 610.992188 105.175781 C 615.171875 105.175781 618.890625 108.890625 618.890625 113.070312 C 618.890625 117.25 615.171875 120.96875 610.992188 120.96875 L 561.757812 120.96875 C 547.824219 120.96875 536.210938 132.113281 536.210938 146.515625 L 536.210938 259.847656 C 536.210938 264.027344 532.496094 267.742188 528.316406 267.742188 Z M 528.316406 267.742188 " fill-opacity="1" fill-rule="evenodd"/><path fill="#ffffff" d="M 645.363281 154.875 C 622.140625 154.875 603.097656 136.296875 603.097656 113.070312 C 603.097656 89.847656 622.140625 71.269531 645.363281 71.269531 C 668.589844 71.269531 687.167969 89.847656 687.167969 113.070312 C 687.167969 136.296875 668.589844 154.875 645.363281 154.875 Z M 645.363281 154.875 " fill-opacity="1" fill-rule="evenodd"/><path fill="#ffffff" d="M 281.675781 267.742188 C 277.03125 267.742188 273.78125 264.027344 273.78125 259.847656 L 273.78125 146.515625 C 273.78125 132.113281 262.167969 120.96875 248.234375 120.96875 L 199 120.96875 C 194.355469 120.96875 191.105469 117.25 191.105469 113.070312 C 191.105469 108.890625 194.355469 105.175781 199 105.175781 L 248.234375 105.175781 C 270.996094 105.175781 289.109375 123.753906 289.109375 146.515625 L 289.109375 259.847656 C 289.109375 264.027344 285.859375 267.742188 281.675781 267.742188 Z M 281.675781 267.742188 " fill-opacity="1" fill-rule="evenodd"/><path fill="#ffffff" d="M 164.628906 154.875 C 141.40625 154.875 122.824219 136.296875 122.824219 113.070312 C 122.824219 89.847656 141.40625 71.269531 164.628906 71.269531 C 187.851562 71.269531 206.429688 89.847656 206.429688 113.070312 C 206.429688 136.296875 187.851562 154.875 164.628906 154.875 Z M 164.628906 154.875 " fill-opacity="1" fill-rule="evenodd"/><path fill="#ffffff" d="M 720.144531 328.589844 L 574.300781 328.589844 C 570.121094 328.589844 566.402344 324.875 566.402344 320.695312 C 566.402344 316.511719 570.121094 313.261719 574.300781 313.261719 L 720.144531 313.261719 C 724.328125 313.261719 727.578125 316.511719 727.578125 320.695312 C 727.578125 324.875 724.328125 328.589844 720.144531 328.589844 Z M 720.144531 328.589844 " fill-opacity="1" fill-rule="evenodd"/><g clip-path="url(#2ab586577b)"><path fill="#ffffff" d="M 754.054688 362.960938 C 731.292969 362.960938 712.25 343.917969 712.25 320.695312 C 712.25 297.46875 731.292969 278.890625 754.054688 278.890625 C 777.277344 278.890625 796.320312 297.46875 796.320312 320.695312 C 796.320312 343.917969 777.277344 362.960938 754.054688 362.960938 Z M 754.054688 362.960938 " fill-opacity="1" fill-rule="evenodd"/></g><path fill="#ffffff" d="M 617.960938 412.660156 L 574.300781 412.660156 C 570.121094 412.660156 566.402344 409.410156 566.402344 404.765625 C 566.402344 400.585938 570.121094 397.332031 574.300781 397.332031 L 617.960938 397.332031 C 622.140625 397.332031 625.390625 400.585938 625.390625 404.765625 C 625.390625 409.410156 622.140625 412.660156 617.960938 412.660156 Z M 617.960938 412.660156 " fill-opacity="1" fill-rule="evenodd"/><path fill="#ffffff" d="M 651.867188 447.03125 C 629.109375 447.03125 610.066406 427.988281 610.066406 404.765625 C 610.066406 382.003906 629.109375 362.960938 651.867188 362.960938 C 675.089844 362.960938 694.136719 382.003906 694.136719 404.765625 C 694.136719 427.988281 675.089844 447.03125 651.867188 447.03125 Z M 651.867188 447.03125 " fill-opacity="1" fill-rule="evenodd"/><path fill="#ffffff" d="M 720.144531 496.265625 L 574.300781 496.265625 C 570.121094 496.265625 566.402344 493.015625 566.402344 488.371094 C 566.402344 484.191406 570.121094 480.9375 574.300781 480.9375 L 720.144531 480.9375 C 724.328125 480.9375 727.578125 484.191406 727.578125 488.371094 C 727.578125 493.015625 724.328125 496.265625 720.144531 496.265625 Z M 720.144531 496.265625 " fill-opacity="1" fill-rule="evenodd"/><g clip-path="url(#21d09fb6b4)"><path fill="#ffffff" d="M 754.054688 530.640625 C 731.292969 530.640625 712.25 511.59375 712.25 488.371094 C 712.25 465.613281 731.292969 446.566406 754.054688 446.566406 C 777.277344 446.566406 796.320312 465.613281 796.320312 488.371094 C 796.320312 511.59375 777.277344 530.640625 754.054688 530.640625 Z M 754.054688 530.640625 " fill-opacity="1" fill-rule="evenodd"/></g><path fill="#ffffff" d="M 363.890625 732.6875 C 359.710938 732.6875 355.992188 729.4375 355.992188 725.253906 L 355.992188 550.148438 C 355.992188 545.503906 359.710938 542.25 363.890625 542.25 C 368.070312 542.25 371.320312 545.503906 371.320312 550.148438 L 371.320312 725.253906 C 371.320312 729.4375 368.070312 732.6875 363.890625 732.6875 Z M 363.890625 732.6875 " fill-opacity="1" fill-rule="evenodd"/><g clip-path="url(#cddec6634e)"><path fill="#ffffff" d="M 363.890625 801.429688 C 340.667969 801.429688 321.621094 782.386719 321.621094 759.164062 C 321.621094 735.9375 340.667969 717.359375 363.890625 717.359375 C 387.113281 717.359375 405.695312 735.9375 405.695312 759.164062 C 405.695312 782.386719 387.113281 801.429688 363.890625 801.429688 Z M 363.890625 801.429688 " fill-opacity="1" fill-rule="evenodd"/></g><path fill="#ffffff" d="M 446.101562 630.039062 C 441.921875 630.039062 438.207031 626.785156 438.207031 622.605469 L 438.207031 550.148438 C 438.207031 545.503906 441.921875 542.25 446.101562 542.25 C 450.285156 542.25 454 545.503906 454 550.148438 L 454 622.605469 C 454 626.785156 450.285156 630.039062 446.101562 630.039062 Z M 446.101562 630.039062 " fill-opacity="1" fill-rule="evenodd"/><path fill="#ffffff" d="M 446.101562 698.78125 C 422.878906 698.78125 404.300781 679.738281 404.300781 656.511719 C 404.300781 633.289062 422.878906 614.710938 446.101562 614.710938 C 469.328125 614.710938 487.90625 633.289062 487.90625 656.511719 C 487.90625 679.738281 469.328125 698.78125 446.101562 698.78125 Z M 446.101562 698.78125 " fill-opacity="1" fill-rule="evenodd"/><path fill="#ffffff" d="M 610.992188 704.355469 L 561.757812 704.355469 C 539 704.355469 520.417969 686.238281 520.417969 663.480469 L 520.417969 550.148438 C 520.417969 545.503906 524.136719 542.25 528.316406 542.25 C 532.496094 542.25 536.210938 545.503906 536.210938 550.148438 L 536.210938 663.480469 C 536.210938 677.414062 547.824219 689.027344 561.757812 689.027344 L 610.992188 689.027344 C 615.171875 689.027344 618.890625 692.277344 618.890625 696.921875 C 618.890625 701.101562 615.171875 704.355469 610.992188 704.355469 Z M 610.992188 704.355469 " fill-opacity="1" fill-rule="evenodd"/><path fill="#ffffff" d="M 645.363281 738.726562 C 622.140625 738.726562 603.097656 719.683594 603.097656 696.921875 C 603.097656 673.699219 622.140625 654.65625 645.363281 654.65625 C 668.589844 654.65625 687.167969 673.699219 687.167969 696.921875 C 687.167969 719.683594 668.589844 738.726562 645.363281 738.726562 Z M 645.363281 738.726562 " fill-opacity="1" fill-rule="evenodd"/><path fill="#ffffff" d="M 248.234375 704.355469 L 199 704.355469 C 194.355469 704.355469 191.105469 701.101562 191.105469 696.921875 C 191.105469 692.277344 194.355469 689.027344 199 689.027344 L 248.234375 689.027344 C 262.167969 689.027344 273.78125 677.414062 273.78125 663.480469 L 273.78125 550.148438 C 273.78125 545.503906 277.03125 542.25 281.675781 542.25 C 285.859375 542.25 289.109375 545.503906 289.109375 550.148438 L 289.109375 663.480469 C 289.109375 686.238281 270.996094 704.355469 248.234375 704.355469 Z M 248.234375 704.355469 " fill-opacity="1" fill-rule="evenodd"/><path fill="#ffffff" d="M 164.628906 738.726562 C 141.40625 738.726562 122.824219 719.683594 122.824219 696.921875 C 122.824219 673.699219 141.40625 654.65625 164.628906 654.65625 C 187.851562 654.65625 206.429688 673.699219 206.429688 696.921875 C 206.429688 719.683594 187.851562 738.726562 164.628906 738.726562 Z M 164.628906 738.726562 " fill-opacity="1" fill-rule="evenodd"/><path fill="#ffffff" d="M 235.695312 328.589844 L 89.847656 328.589844 C 85.667969 328.589844 81.949219 325.339844 81.949219 321.160156 C 81.949219 316.511719 85.667969 313.261719 89.847656 313.261719 L 235.695312 313.261719 C 239.875 313.261719 243.125 316.511719 243.125 321.160156 C 243.125 325.339844 239.875 328.589844 235.695312 328.589844 Z M 235.695312 328.589844 " fill-opacity="1" fill-rule="evenodd"/><g clip-path="url(#4d9790c62a)"><path fill="#ffffff" d="M 55.476562 362.960938 C 32.714844 362.960938 13.671875 344.382812 13.671875 321.160156 C 13.671875 297.933594 32.714844 278.890625 55.476562 278.890625 C 78.699219 278.890625 97.742188 297.933594 97.742188 321.160156 C 97.742188 344.382812 78.699219 362.960938 55.476562 362.960938 Z M 55.476562 362.960938 " fill-opacity="1" fill-rule="evenodd"/></g><path fill="#ffffff" d="M 235.695312 412.660156 L 192.03125 412.660156 C 187.851562 412.660156 184.136719 409.410156 184.136719 405.230469 C 184.136719 401.050781 187.851562 397.332031 192.03125 397.332031 L 235.695312 397.332031 C 239.875 397.332031 243.125 401.050781 243.125 405.230469 C 243.125 409.410156 239.875 412.660156 235.695312 412.660156 Z M 235.695312 412.660156 " fill-opacity="1" fill-rule="evenodd"/><path fill="#ffffff" d="M 157.660156 447.03125 C 134.4375 447.03125 115.859375 428.453125 115.859375 405.230469 C 115.859375 382.003906 134.4375 362.960938 157.660156 362.960938 C 180.886719 362.960938 199.929688 382.003906 199.929688 405.230469 C 199.929688 428.453125 180.886719 447.03125 157.660156 447.03125 Z M 157.660156 447.03125 " fill-opacity="1" fill-rule="evenodd"/><path fill="#ffffff" d="M 235.695312 496.730469 L 89.847656 496.730469 C 85.667969 496.730469 81.949219 493.015625 81.949219 488.835938 C 81.949219 484.65625 85.667969 480.9375 89.847656 480.9375 L 235.695312 480.9375 C 239.875 480.9375 243.125 484.65625 243.125 488.835938 C 243.125 493.015625 239.875 496.730469 235.695312 496.730469 Z M 235.695312 496.730469 " fill-opacity="1" fill-rule="evenodd"/><g clip-path="url(#9750a3940a)"><path fill="#ffffff" d="M 55.476562 530.640625 C 32.714844 530.640625 13.671875 512.058594 13.671875 488.835938 C 13.671875 465.613281 32.714844 447.03125 55.476562 447.03125 C 78.699219 447.03125 97.742188 465.613281 97.742188 488.835938 C 97.742188 512.058594 78.699219 530.640625 55.476562 530.640625 Z M 55.476562 530.640625 " fill-opacity="1" fill-rule="evenodd"/></g></svg>