<svg xmlns="http://www.w3.org/2000/svg" xmlns:xlink="http://www.w3.org/1999/xlink" width="1080" zoomAndPan="magnify" viewBox="0 0 810 809.999993" height="1080" preserveAspectRatio="xMidYMid meet" version="1.0"><defs><clipPath id="eff41cfb9e"><path d="M 7.023438 43.339844 L 802 43.339844 L 802 765 L 7.023438 765 Z M 7.023438 43.339844 " clip-rule="nonzero"/></clipPath><clipPath id="33caeb15b4"><path d="M 183.535156 43.339844 L 216.304688 43.339844 L 216.304688 61.679688 L 183.535156 61.679688 Z M 183.535156 43.339844 " clip-rule="nonzero"/></clipPath></defs><g clip-path="url(#eff41cfb9e)"><path fill="#ffffff" d="M 615.140625 445.449219 L 548.691406 445.449219 C 553.628906 459.023438 566.664062 468.742188 581.910156 468.742188 C 597.164062 468.742188 610.210938 459.023438 615.140625 445.449219 Z M 419.347656 505.855469 L 352.898438 505.855469 C 357.828125 519.425781 370.871094 529.148438 386.128906 529.148438 C 401.382812 529.148438 414.410156 519.429688 419.347656 505.855469 Z M 356.699219 481.789062 L 415.542969 481.789062 L 386.125 410.082031 Z M 581.910156 349.6875 L 552.492188 421.394531 L 611.335938 421.394531 Z M 641.3125 433.425781 C 641.3125 466.167969 614.671875 492.808594 581.910156 492.808594 C 549.179688 492.808594 522.53125 466.167969 522.53125 433.425781 L 523.492188 428.691406 L 561.109375 337.015625 L 495.617188 357.210938 C 495.867188 358.191406 496.011719 359.195312 496.011719 360.261719 L 496.011719 571.238281 L 507.71875 571.238281 C 514.359375 571.238281 519.75 576.628906 519.75 583.269531 C 519.75 589.910156 514.359375 595.300781 507.71875 595.300781 L 460.238281 595.300781 C 453.578125 595.300781 448.207031 589.910156 448.207031 583.269531 C 448.207031 576.628906 453.578125 571.238281 460.238281 571.238281 L 471.945312 571.238281 L 471.945312 364.507812 L 402.246094 385.996094 L 444.617188 489.25 C 445.1875 490.660156 445.507812 492.203125 445.507812 493.824219 C 445.507812 526.566406 418.871094 553.203125 386.128906 553.203125 C 353.367188 553.203125 326.738281 526.566406 326.738281 493.824219 C 326.738281 491.453125 327.167969 490.855469 327.699219 489.089844 L 374.988281 373.835938 C 376.382812 370.449219 379.195312 367.945312 382.578125 366.902344 L 578.371094 306.507812 C 584.207031 304.6875 590.671875 307.617188 593.050781 313.429688 L 640.390625 428.808594 Z M 775.007812 725 L 722.621094 672.601562 L 709.015625 686.195312 L 761.402344 738.59375 Z M 487.445312 696.972656 C 424.445312 696.972656 361.425781 672.988281 313.457031 625.023438 C 217.523438 529.078125 217.523438 372.980469 313.457031 277.046875 C 409.609375 180.894531 565.269531 180.898438 661.433594 277.046875 C 757.378906 372.980469 757.378906 529.074219 661.433594 625.023438 C 613.464844 672.992188 550.476562 696.972656 487.445312 696.972656 Z M 267.191406 607.425781 C 257.695312 594.0625 249.542969 580.023438 242.773438 565.507812 L 32.476562 565.507812 C 37.960938 589.472656 59.460938 607.425781 85.074219 607.425781 Z M 97.109375 541.445312 L 97.109375 121.304688 C 97.109375 91.5625 121.304688 67.34375 151.046875 67.34375 L 487.335938 67.34375 C 473.894531 81.363281 465.632812 100.382812 465.632812 121.304688 L 465.632812 181.789062 C 395.789062 187.328125 331.441406 219.496094 284.761719 272.503906 L 155.527344 272.503906 C 148.886719 272.503906 143.496094 277.894531 143.496094 284.535156 C 143.496094 291.183594 148.886719 296.566406 155.527344 296.566406 L 265.816406 296.566406 C 246.382812 324.414062 232.820312 355.136719 225.09375 387.007812 L 155.523438 387.007812 C 148.882812 387.007812 143.492188 392.390625 143.492188 399.039062 C 143.492188 405.679688 148.886719 411.070312 155.523438 411.070312 L 220.410156 411.070312 C 213.945312 454.660156 218.117188 499.503906 232.9375 541.441406 L 97.109375 541.441406 Z M 543.632812 67.347656 C 518.019531 67.347656 496.539062 85.300781 491.054688 109.261719 L 596.242188 109.261719 C 590.761719 85.300781 569.261719 67.347656 543.632812 67.347656 Z M 795.542969 738.484375 L 774.914062 759.132812 C 767.457031 766.582031 755.375 766.585938 747.910156 759.132812 L 688.476562 699.679688 C 681.035156 692.261719 681.035156 680.144531 688.476562 672.707031 L 690.292969 670.890625 L 669.746094 650.335938 C 559.695312 751.121094 387.375 743.53125 286.441406 631.492188 L 85.074219 631.492188 C 42.054688 631.492188 7.0625 596.488281 7.0625 553.476562 C 7.0625 546.816406 12.453125 541.445312 19.09375 541.445312 L 73.042969 541.445312 L 73.042969 121.304688 C 73.042969 78.292969 108.035156 43.28125 151.042969 43.28125 L 543.632812 43.28125 C 586.640625 43.28125 621.644531 78.292969 621.644531 121.304688 C 621.644531 127.945312 616.261719 133.328125 609.613281 133.328125 L 489.695312 133.328125 L 489.695312 180.941406 C 560.996094 181.519531 627.972656 209.546875 678.453125 260.027344 C 780.925781 362.5 783.683594 527.476562 686.761719 633.335938 L 707.308594 653.882812 C 711.71875 649.449219 715.570312 646.492188 722.617188 646.492188 C 727.71875 646.492188 732.511719 648.457031 736.109375 652.066406 L 795.542969 711.507812 C 802.984375 718.949219 802.984375 731.042969 795.542969 738.484375 Z M 684.320312 451.035156 C 684.320312 503.625 663.832031 553.0625 626.652344 590.242188 C 549.898438 667.007812 424.992188 667.007812 348.234375 590.242188 C 271.46875 513.488281 271.46875 388.589844 348.234375 311.824219 C 425.011719 235.078125 549.90625 235.070312 626.652344 311.824219 C 663.835938 349.007812 684.320312 398.453125 684.320312 451.035156 Z M 708.386719 451.035156 C 708.386719 574.140625 608.589844 671.867188 487.445312 671.867188 C 430.863281 671.867188 374.296875 650.324219 331.226562 607.253906 C 245.085938 521.109375 245.085938 380.949219 331.226562 294.804688 C 417.378906 208.664062 557.53125 208.664062 643.671875 294.804688 C 685.398438 336.53125 708.386719 392.019531 708.386719 451.035156 Z M 143.492188 170.054688 C 143.492188 176.691406 148.886719 182.085938 155.523438 182.085938 L 369.269531 182.085938 C 375.910156 182.085938 381.292969 176.691406 381.292969 170.054688 C 381.292969 163.394531 375.910156 158.019531 369.269531 158.019531 L 155.527344 158.019531 C 148.886719 158.019531 143.492188 163.394531 143.492188 170.054688 Z M 143.492188 170.054688 " fill-opacity="1" fill-rule="evenodd"/></g><g clip-path="url(#33caeb15b4)"><path fill="#ffffff" d="M 183.535156 43.339844 L 216.277344 43.339844 L 216.277344 61.679688 L 183.535156 61.679688 Z M 183.535156 43.339844 " fill-opacity="1" fill-rule="nonzero"/></g></svg>