<svg xmlns="http://www.w3.org/2000/svg" xmlns:xlink="http://www.w3.org/1999/xlink" width="1080" zoomAndPan="magnify" viewBox="0 0 810 809.999993" height="1080" preserveAspectRatio="xMidYMid meet" version="1.0"><defs><clipPath id="9de77b5fdd"><path d="M 40.34375 12 L 769.34375 12 L 769.34375 797.839844 L 40.34375 797.839844 Z M 40.34375 12 " clip-rule="nonzero"/></clipPath><clipPath id="68acb75cd0"><path d="M 522.75 522.75 L 526.5 522.75 L 526.5 526.5 L 522.75 526.5 Z M 522.75 522.75 " clip-rule="nonzero"/></clipPath></defs><g clip-path="url(#9de77b5fdd)"><path fill="#ffffff" d="M 769.53125 763.0625 L 769.53125 797.699219 L 40.300781 797.699219 L 40.300781 763.0625 Z M 329.53125 741.851562 L 329.53125 512.210938 C 329.53125 506.355469 324.78125 501.605469 318.925781 501.605469 L 153.804688 501.605469 C 147.949219 501.605469 143.199219 506.355469 143.199219 512.210938 L 143.199219 741.851562 L 76.320312 741.851562 L 76.320312 143.625 L 396.410156 143.625 L 396.410156 741.851562 Z M 268.917969 267.785156 L 333.144531 267.785156 L 333.144531 203.558594 L 268.917969 203.558594 Z M 268.917969 324.414062 L 268.917969 388.605469 L 333.144531 388.605469 L 333.144531 324.414062 Z M 203.828125 324.414062 L 139.601562 324.414062 L 139.601562 388.605469 L 203.828125 388.605469 Z M 139.601562 267.785156 L 203.828125 267.785156 L 203.828125 203.558594 L 139.601562 203.558594 Z M 396.410156 76.015625 L 42.871094 76.015625 L 42.871094 122.429688 L 396.410156 122.429688 Z M 733.515625 741.851562 L 417.621094 741.851562 L 417.621094 12.292969 L 733.515625 103.101562 Z M 674.578125 478.421875 C 674.578125 472.566406 669.828125 467.816406 663.972656 467.816406 L 479.960938 467.816406 C 474.105469 467.816406 469.355469 472.566406 469.355469 478.421875 C 469.355469 484.277344 474.105469 489.011719 479.960938 489.011719 L 663.96875 489.011719 C 669.828125 489.011719 674.578125 484.277344 674.578125 478.421875 Z M 674.578125 403.460938 C 674.578125 397.601562 669.828125 392.851562 663.972656 392.851562 L 479.960938 392.851562 C 474.105469 392.851562 469.355469 397.601562 469.355469 403.460938 C 469.355469 409.316406 474.105469 414.066406 479.960938 414.066406 L 663.96875 414.066406 C 669.828125 414.066406 674.578125 409.316406 674.578125 403.460938 Z M 674.578125 328.449219 C 674.578125 322.589844 669.828125 317.859375 663.972656 317.859375 L 479.960938 317.859375 C 474.105469 317.859375 469.355469 322.589844 469.355469 328.449219 C 469.355469 334.304688 474.105469 339.054688 479.960938 339.054688 L 663.96875 339.054688 C 669.828125 339.054688 674.578125 334.304688 674.578125 328.449219 Z M 674.578125 253.5 C 674.578125 247.644531 669.828125 242.894531 663.972656 242.894531 L 479.960938 242.894531 C 474.105469 242.894531 469.355469 247.644531 469.355469 253.5 C 469.355469 259.355469 474.105469 264.089844 479.960938 264.089844 L 663.96875 264.089844 C 669.828125 264.089844 674.578125 259.355469 674.578125 253.5 Z M 674.578125 253.5 " fill-opacity="1" fill-rule="nonzero"/></g><g clip-path="url(#68acb75cd0)"><path fill="#ffffff" d="M 522.75 522.75 L 526.5 522.75 L 526.5 526.5 L 522.75 526.5 Z M 522.75 522.75 " fill-opacity="1" fill-rule="nonzero"/></g></svg>