<svg xmlns="http://www.w3.org/2000/svg" xmlns:xlink="http://www.w3.org/1999/xlink" width="1080" zoomAndPan="magnify" viewBox="0 0 810 809.999993" height="1080" preserveAspectRatio="xMidYMid meet" version="1.0"><defs><clipPath id="10317311d0"><path d="M 11 11 L 800.082031 11 L 800.082031 690 L 11 690 Z M 11 11 " clip-rule="nonzero"/></clipPath><clipPath id="4c151bb6a3"><path d="M 236 194 L 800.082031 194 L 800.082031 800 L 236 800 Z M 236 194 " clip-rule="nonzero"/></clipPath><clipPath id="252d0b33b0"><path d="M 155.710938 62.660156 L 188.480469 62.660156 L 188.480469 81 L 155.710938 81 Z M 155.710938 62.660156 " clip-rule="nonzero"/></clipPath></defs><g clip-path="url(#10317311d0)"><path fill="#ffffff" d="M 736.976562 11.003906 L 76.320312 11.003906 C 75.253906 11.003906 74.183594 11.03125 73.117188 11.082031 C 72.050781 11.136719 70.984375 11.214844 69.921875 11.316406 C 68.855469 11.421875 67.796875 11.554688 66.738281 11.710938 C 65.683594 11.867188 64.628906 12.050781 63.582031 12.257812 C 62.53125 12.46875 61.492188 12.703125 60.453125 12.960938 C 59.417969 13.222656 58.386719 13.507812 57.363281 13.816406 C 56.339844 14.128906 55.328125 14.460938 54.320312 14.824219 C 53.316406 15.183594 52.316406 15.566406 51.332031 15.976562 C 50.34375 16.386719 49.367188 16.820312 48.398438 17.277344 C 47.433594 17.734375 46.480469 18.214844 45.539062 18.71875 C 44.59375 19.222656 43.664062 19.75 42.75 20.296875 C 41.832031 20.847656 40.929688 21.417969 40.039062 22.011719 C 39.152344 22.605469 38.277344 23.222656 37.421875 23.859375 C 36.5625 24.496094 35.71875 25.152344 34.894531 25.832031 C 34.066406 26.511719 33.257812 27.207031 32.46875 27.925781 C 31.675781 28.644531 30.902344 29.382812 30.148438 30.136719 C 29.390625 30.894531 28.65625 31.667969 27.9375 32.457031 C 27.21875 33.25 26.523438 34.058594 25.84375 34.886719 C 25.167969 35.714844 24.507812 36.554688 23.871094 37.414062 C 23.234375 38.273438 22.621094 39.148438 22.027344 40.035156 C 21.433594 40.925781 20.863281 41.828125 20.3125 42.742188 C 19.765625 43.660156 19.238281 44.589844 18.734375 45.535156 C 18.230469 46.476562 17.75 47.429688 17.292969 48.398438 C 16.839844 49.363281 16.40625 50.339844 15.996094 51.328125 C 15.589844 52.316406 15.203125 53.3125 14.84375 54.320312 C 14.484375 55.324219 14.148438 56.339844 13.839844 57.363281 C 13.53125 58.386719 13.246094 59.414062 12.988281 60.453125 C 12.726562 61.488281 12.492188 62.53125 12.285156 63.582031 C 12.078125 64.628906 11.894531 65.679688 11.738281 66.738281 C 11.582031 67.796875 11.453125 68.855469 11.347656 69.921875 C 11.242188 70.984375 11.164062 72.050781 11.113281 73.117188 C 11.0625 74.183594 11.035156 75.253906 11.035156 76.320312 L 11.035156 624.34375 C 11.039062 625.410156 11.066406 626.476562 11.117188 627.542969 C 11.171875 628.609375 11.25 629.675781 11.355469 630.738281 C 11.464844 631.800781 11.59375 632.859375 11.753906 633.914062 C 11.910156 634.972656 12.09375 636.023438 12.300781 637.070312 C 12.511719 638.117188 12.746094 639.15625 13.007812 640.191406 C 13.265625 641.230469 13.554688 642.257812 13.863281 643.277344 C 14.175781 644.300781 14.511719 645.3125 14.871094 646.320312 C 15.230469 647.324219 15.617188 648.320312 16.023438 649.304688 C 16.433594 650.292969 16.867188 651.265625 17.324219 652.230469 C 17.78125 653.195312 18.261719 654.148438 18.765625 655.089844 C 19.269531 656.03125 19.796875 656.960938 20.347656 657.875 C 20.898438 658.792969 21.46875 659.691406 22.0625 660.582031 C 22.65625 661.46875 23.269531 662.339844 23.90625 663.199219 C 24.542969 664.054688 25.203125 664.894531 25.878906 665.722656 C 26.558594 666.546875 27.253906 667.355469 27.972656 668.144531 C 28.691406 668.933594 29.425781 669.707031 30.179688 670.460938 C 30.9375 671.21875 31.710938 671.953125 32.5 672.667969 C 33.292969 673.386719 34.101562 674.082031 34.925781 674.761719 C 35.753906 675.4375 36.59375 676.09375 37.453125 676.730469 C 38.3125 677.363281 39.183594 677.980469 40.070312 678.570312 C 40.960938 679.164062 41.863281 679.734375 42.777344 680.285156 C 43.695312 680.832031 44.621094 681.359375 45.566406 681.863281 C 46.507812 682.363281 47.460938 682.84375 48.425781 683.300781 C 49.390625 683.757812 50.367188 684.1875 51.351562 684.597656 C 52.339844 685.007812 53.335938 685.390625 54.339844 685.75 C 55.347656 686.109375 56.359375 686.445312 57.382812 686.753906 C 58.402344 687.0625 59.433594 687.347656 60.46875 687.605469 C 61.503906 687.867188 62.546875 688.101562 63.59375 688.308594 C 64.640625 688.515625 65.691406 688.699219 66.75 688.855469 C 67.804688 689.011719 68.863281 689.140625 69.925781 689.246094 C 70.988281 689.351562 72.054688 689.429688 73.121094 689.480469 C 74.1875 689.535156 75.253906 689.5625 76.320312 689.5625 L 346.460938 689.5625 L 346.460938 600.75 L 77.015625 600.75 L 77.015625 102.429688 L 737.539062 102.429688 L 737.539062 236.4375 L 802.164062 236.4375 L 802.164062 76.320312 C 802.164062 75.253906 802.136719 74.1875 802.085938 73.121094 C 802.035156 72.054688 801.957031 70.988281 801.851562 69.925781 C 801.75 68.863281 801.617188 67.804688 801.460938 66.746094 C 801.304688 65.691406 801.125 64.640625 800.917969 63.59375 C 800.707031 62.546875 800.476562 61.503906 800.21875 60.46875 C 799.957031 59.433594 799.675781 58.402344 799.363281 57.378906 C 799.054688 56.359375 798.722656 55.34375 798.363281 54.339844 C 798.003906 53.332031 797.621094 52.335938 797.210938 51.351562 C 796.804688 50.363281 796.371094 49.386719 795.917969 48.421875 C 795.460938 47.457031 794.980469 46.503906 794.480469 45.5625 C 793.976562 44.617188 793.453125 43.691406 792.902344 42.773438 C 792.355469 41.855469 791.785156 40.953125 791.191406 40.066406 C 790.601562 39.179688 789.988281 38.304688 789.351562 37.445312 C 788.714844 36.589844 788.058594 35.746094 787.382812 34.921875 C 786.707031 34.09375 786.011719 33.285156 785.292969 32.492188 C 784.578125 31.703125 783.84375 30.925781 783.089844 30.171875 C 782.332031 29.417969 781.5625 28.679688 780.769531 27.960938 C 779.980469 27.242188 779.171875 26.546875 778.347656 25.867188 C 777.523438 25.1875 776.683594 24.53125 775.828125 23.894531 C 774.96875 23.257812 774.097656 22.640625 773.210938 22.046875 C 772.324219 21.453125 771.421875 20.882812 770.507812 20.332031 C 769.589844 19.78125 768.664062 19.253906 767.722656 18.75 C 766.78125 18.246094 765.828125 17.765625 764.863281 17.304688 C 763.898438 16.847656 762.925781 16.414062 761.9375 16.003906 C 760.953125 15.59375 759.957031 15.210938 758.953125 14.847656 C 757.945312 14.488281 756.933594 14.152344 755.914062 13.839844 C 754.890625 13.527344 753.863281 13.242188 752.828125 12.980469 C 751.792969 12.722656 750.75 12.484375 749.703125 12.277344 C 748.65625 12.066406 747.605469 11.882812 746.550781 11.722656 C 745.492188 11.566406 744.433594 11.433594 743.371094 11.328125 C 742.308594 11.222656 741.246094 11.140625 740.179688 11.085938 C 739.113281 11.03125 738.046875 11.003906 736.976562 11.003906 Z M 736.976562 11.003906 " fill-opacity="1" fill-rule="nonzero"/></g><path fill="#ffffff" d="M 771.6875 394.9375 C 771.6875 396.625 771.644531 398.3125 771.5625 400 C 771.480469 401.6875 771.355469 403.371094 771.191406 405.050781 C 771.023438 406.734375 770.820312 408.410156 770.570312 410.078125 C 770.324219 411.75 770.035156 413.414062 769.703125 415.070312 C 769.375 416.726562 769.003906 418.375 768.59375 420.011719 C 768.183594 421.652344 767.734375 423.277344 767.242188 424.894531 C 766.753906 426.511719 766.222656 428.113281 765.65625 429.703125 C 765.085938 431.292969 764.476562 432.871094 763.832031 434.429688 C 763.183594 435.992188 762.5 437.535156 761.777344 439.0625 C 761.058594 440.589844 760.296875 442.097656 759.5 443.585938 C 758.707031 445.074219 757.871094 446.542969 757.003906 447.992188 C 756.136719 449.441406 755.234375 450.867188 754.292969 452.273438 C 753.355469 453.675781 752.382812 455.058594 751.378906 456.414062 C 750.371094 457.769531 749.332031 459.101562 748.261719 460.40625 C 747.191406 461.714844 746.085938 462.992188 744.953125 464.242188 C 743.820312 465.496094 742.652344 466.71875 741.460938 467.914062 C 740.265625 469.105469 739.042969 470.269531 737.789062 471.40625 C 736.539062 472.539062 735.261719 473.644531 733.957031 474.714844 C 732.648438 475.785156 731.320312 476.824219 729.960938 477.832031 C 728.605469 478.835938 727.226562 479.808594 725.820312 480.746094 C 724.417969 481.6875 722.988281 482.589844 721.539062 483.457031 C 720.09375 484.324219 718.621094 485.15625 717.132812 485.953125 C 715.644531 486.75 714.136719 487.507812 712.609375 488.230469 C 711.082031 488.953125 709.539062 489.636719 707.976562 490.285156 C 706.417969 490.929688 704.84375 491.539062 703.25 492.109375 C 701.660156 492.675781 700.058594 493.207031 698.441406 493.695312 C 696.824219 494.1875 695.199219 494.636719 693.558594 495.046875 C 691.921875 495.457031 690.273438 495.828125 688.617188 496.15625 C 686.960938 496.488281 685.296875 496.777344 683.625 497.023438 C 681.957031 497.269531 680.28125 497.476562 678.597656 497.644531 C 676.917969 497.808594 675.234375 497.933594 673.546875 498.015625 C 671.859375 498.097656 670.171875 498.140625 668.484375 498.140625 C 666.792969 498.140625 665.105469 498.097656 663.417969 498.015625 C 661.730469 497.933594 660.046875 497.808594 658.367188 497.644531 C 656.6875 497.476562 655.011719 497.269531 653.339844 497.023438 C 651.667969 496.777344 650.003906 496.488281 648.347656 496.15625 C 646.691406 495.828125 645.042969 495.457031 643.40625 495.046875 C 641.769531 494.636719 640.140625 494.1875 638.523438 493.695312 C 636.90625 493.207031 635.304688 492.675781 633.714844 492.109375 C 632.125 491.539062 630.546875 490.929688 628.988281 490.285156 C 627.425781 489.636719 625.882812 488.953125 624.355469 488.230469 C 622.832031 487.507812 621.320312 486.75 619.832031 485.953125 C 618.34375 485.15625 616.875 484.324219 615.425781 483.457031 C 613.976562 482.589844 612.550781 481.6875 611.144531 480.746094 C 609.742188 479.808594 608.359375 478.835938 607.003906 477.832031 C 605.648438 476.824219 604.316406 475.785156 603.011719 474.714844 C 601.703125 473.644531 600.425781 472.539062 599.175781 471.40625 C 597.921875 470.269531 596.699219 469.105469 595.507812 467.914062 C 594.3125 466.71875 593.148438 465.496094 592.011719 464.242188 C 590.878906 462.992188 589.777344 461.714844 588.703125 460.410156 C 587.632812 459.101562 586.59375 457.769531 585.589844 456.414062 C 584.582031 455.058594 583.609375 453.675781 582.671875 452.273438 C 581.734375 450.867188 580.828125 449.441406 579.960938 447.992188 C 579.09375 446.542969 578.261719 445.074219 577.464844 443.585938 C 576.667969 442.097656 575.910156 440.589844 575.1875 439.0625 C 574.464844 437.535156 573.78125 435.992188 573.132812 434.429688 C 572.488281 432.871094 571.878906 431.292969 571.3125 429.703125 C 570.742188 428.113281 570.210938 426.511719 569.722656 424.894531 C 569.230469 423.277344 568.78125 421.652344 568.371094 420.011719 C 567.960938 418.375 567.589844 416.726562 567.261719 415.070312 C 566.933594 413.414062 566.644531 411.75 566.394531 410.078125 C 566.148438 408.410156 565.941406 406.734375 565.773438 405.050781 C 565.609375 403.371094 565.484375 401.6875 565.402344 400 C 565.320312 398.3125 565.277344 396.625 565.277344 394.9375 C 565.277344 393.246094 565.320312 391.558594 565.402344 389.871094 C 565.484375 388.183594 565.609375 386.5 565.773438 384.820312 C 565.941406 383.140625 566.148438 381.464844 566.394531 379.792969 C 566.644531 378.121094 566.933594 376.457031 567.261719 374.800781 C 567.589844 373.144531 567.960938 371.496094 568.371094 369.859375 C 568.78125 368.222656 569.230469 366.59375 569.722656 364.976562 C 570.210938 363.359375 570.742188 361.757812 571.3125 360.167969 C 571.878906 358.578125 572.488281 357 573.132812 355.441406 C 573.78125 353.878906 574.464844 352.335938 575.1875 350.808594 C 575.910156 349.285156 576.667969 347.773438 577.464844 346.285156 C 578.261719 344.796875 579.09375 343.328125 579.960938 341.878906 C 580.828125 340.429688 581.734375 339.003906 582.671875 337.597656 C 583.609375 336.195312 584.582031 334.8125 585.589844 333.457031 C 586.59375 332.101562 587.632812 330.769531 588.703125 329.464844 C 589.777344 328.15625 590.878906 326.878906 592.011719 325.628906 C 593.148438 324.375 594.3125 323.152344 595.507812 321.960938 C 596.699219 320.765625 597.921875 319.601562 599.175781 318.464844 C 600.425781 317.332031 601.707031 316.230469 603.011719 315.15625 C 604.316406 314.085938 605.648438 313.046875 607.003906 312.042969 C 608.359375 311.035156 609.742188 310.0625 611.144531 309.125 C 612.550781 308.1875 613.976562 307.28125 615.425781 306.414062 C 616.875 305.546875 618.34375 304.714844 619.832031 303.917969 C 621.320312 303.121094 622.832031 302.363281 624.355469 301.640625 C 625.882812 300.917969 627.425781 300.234375 628.988281 299.585938 C 630.546875 298.941406 632.125 298.332031 633.714844 297.765625 C 635.304688 297.195312 636.90625 296.664062 638.523438 296.175781 C 640.140625 295.683594 641.769531 295.234375 643.40625 294.824219 C 645.042969 294.414062 646.691406 294.042969 648.347656 293.714844 C 650.003906 293.382812 651.667969 293.097656 653.339844 292.847656 C 655.011719 292.601562 656.6875 292.394531 658.367188 292.226562 C 660.046875 292.0625 661.730469 291.9375 663.417969 291.855469 C 665.105469 291.773438 666.792969 291.730469 668.484375 291.730469 C 670.171875 291.730469 671.859375 291.773438 673.546875 291.855469 C 675.234375 291.9375 676.917969 292.0625 678.597656 292.226562 C 680.28125 292.394531 681.957031 292.601562 683.625 292.847656 C 685.296875 293.097656 686.960938 293.382812 688.617188 293.714844 C 690.273438 294.042969 691.921875 294.414062 693.558594 294.824219 C 695.199219 295.234375 696.824219 295.683594 698.441406 296.175781 C 700.058594 296.664062 701.660156 297.195312 703.25 297.765625 C 704.84375 298.332031 706.417969 298.941406 707.976562 299.585938 C 709.539062 300.234375 711.082031 300.917969 712.609375 301.640625 C 714.136719 302.363281 715.644531 303.121094 717.132812 303.917969 C 718.621094 304.714844 720.09375 305.546875 721.539062 306.414062 C 722.988281 307.28125 724.417969 308.1875 725.820312 309.125 C 727.226562 310.0625 728.605469 311.035156 729.960938 312.042969 C 731.320312 313.046875 732.648438 314.085938 733.957031 315.15625 C 735.261719 316.230469 736.539062 317.332031 737.789062 318.464844 C 739.042969 319.601562 740.265625 320.765625 741.460938 321.960938 C 742.652344 323.152344 743.820312 324.375 744.953125 325.628906 C 746.085938 326.878906 747.191406 328.15625 748.261719 329.464844 C 749.332031 330.769531 750.371094 332.101562 751.378906 333.457031 C 752.382812 334.8125 753.355469 336.195312 754.292969 337.597656 C 755.234375 339.003906 756.136719 340.429688 757.003906 341.878906 C 757.871094 343.328125 758.707031 344.796875 759.5 346.285156 C 760.296875 347.773438 761.058594 349.285156 761.777344 350.808594 C 762.5 352.335938 763.183594 353.878906 763.832031 355.441406 C 764.476562 357 765.085938 358.578125 765.65625 360.167969 C 766.222656 361.757812 766.753906 363.359375 767.242188 364.976562 C 767.734375 366.59375 768.183594 368.222656 768.59375 369.859375 C 769.003906 371.496094 769.375 373.144531 769.703125 374.800781 C 770.035156 376.457031 770.324219 378.121094 770.570312 379.792969 C 770.820312 381.464844 771.023438 383.140625 771.191406 384.820312 C 771.355469 386.5 771.480469 388.183594 771.5625 389.871094 C 771.644531 391.558594 771.6875 393.246094 771.6875 394.9375 Z M 771.6875 394.9375 " fill-opacity="1" fill-rule="nonzero"/><g clip-path="url(#4c151bb6a3)"><path fill="#ffffff" d="M 668.484375 535.398438 C 665.671875 535.398438 663.054688 536.0625 660.277344 536.226562 C 658.207031 535.882812 656.121094 535.671875 654.023438 535.597656 L 477.164062 535.597656 L 424.21875 427.097656 C 423.636719 425.921875 423.011719 424.773438 422.335938 423.648438 C 421.664062 422.523438 420.949219 421.425781 420.1875 420.355469 C 419.425781 419.289062 418.625 418.25 417.785156 417.246094 C 416.941406 416.242188 416.0625 415.269531 415.140625 414.335938 C 414.222656 413.402344 413.269531 412.503906 412.277344 411.644531 C 411.289062 410.785156 410.265625 409.964844 409.210938 409.1875 C 408.15625 408.40625 407.070312 407.671875 405.957031 406.980469 C 404.84375 406.285156 403.703125 405.640625 402.539062 405.035156 C 401.375 404.433594 400.1875 403.878906 398.980469 403.371094 C 397.769531 402.863281 396.542969 402.402344 395.296875 401.992188 C 394.054688 401.582031 392.792969 401.21875 391.519531 400.910156 C 390.246094 400.597656 388.960938 400.335938 387.667969 400.128906 C 386.371094 399.917969 385.070312 399.761719 383.765625 399.65625 C 382.457031 399.546875 381.148438 399.492188 379.835938 399.492188 C 378.527344 399.488281 377.214844 399.539062 375.910156 399.640625 C 374.601562 399.742188 373.300781 399.894531 372.003906 400.097656 L 268.039062 203.152344 C 267.785156 202.671875 267.511719 202.207031 267.210938 201.753906 C 266.914062 201.300781 266.59375 200.867188 266.253906 200.445312 C 265.910156 200.023438 265.550781 199.621094 265.167969 199.238281 C 264.789062 198.851562 264.390625 198.484375 263.972656 198.140625 C 263.554688 197.792969 263.125 197.46875 262.675781 197.164062 C 262.226562 196.863281 261.765625 196.582031 261.289062 196.324219 C 260.8125 196.0625 260.324219 195.828125 259.824219 195.621094 C 259.324219 195.410156 258.816406 195.222656 258.300781 195.0625 C 257.78125 194.902344 257.257812 194.769531 256.726562 194.660156 C 256.195312 194.550781 255.660156 194.46875 255.121094 194.414062 C 254.582031 194.355469 254.042969 194.324219 253.5 194.324219 C 252.960938 194.320312 252.417969 194.34375 251.878906 194.394531 C 251.339844 194.441406 250.804688 194.519531 250.273438 194.621094 C 249.742188 194.722656 249.214844 194.851562 248.695312 195.007812 C 248.175781 195.160156 247.664062 195.339844 247.164062 195.542969 C 246.664062 195.746094 246.171875 195.976562 245.691406 196.226562 C 245.214844 196.480469 244.746094 196.757812 244.292969 197.054688 C 243.84375 197.351562 243.40625 197.671875 242.984375 198.011719 C 242.5625 198.355469 242.160156 198.714844 241.773438 199.09375 C 241.390625 199.476562 241.023438 199.875 240.675781 200.292969 C 240.332031 200.707031 240.007812 201.140625 239.703125 201.589844 C 239.398438 202.039062 239.117188 202.5 238.859375 202.976562 C 238.601562 203.453125 238.367188 203.941406 238.15625 204.4375 C 237.945312 204.9375 237.757812 205.445312 237.597656 205.964844 C 237.4375 206.480469 237.304688 207.003906 237.195312 207.535156 C 237.085938 208.066406 237 208.601562 236.945312 209.140625 C 236.886719 209.679688 236.859375 210.21875 236.855469 210.761719 C 236.851562 211.300781 236.875 211.84375 236.921875 212.382812 C 236.972656 212.921875 237.050781 213.457031 237.152344 213.988281 C 237.253906 214.523438 237.382812 215.046875 237.535156 215.566406 C 237.6875 216.085938 237.867188 216.597656 238.070312 217.097656 C 238.277344 217.601562 238.503906 218.09375 238.753906 218.570312 L 342.6875 415.847656 C 341.035156 417.675781 339.527344 419.613281 338.164062 421.664062 C 336.804688 423.714844 335.597656 425.855469 334.554688 428.085938 C 333.507812 430.316406 332.636719 432.609375 331.933594 434.96875 C 331.230469 437.328125 330.707031 439.726562 330.359375 442.167969 C 330.011719 444.605469 329.851562 447.054688 329.867188 449.515625 C 329.886719 451.980469 330.089844 454.425781 330.472656 456.859375 C 330.855469 459.292969 331.414062 461.683594 332.152344 464.03125 C 332.890625 466.378906 333.800781 468.660156 334.878906 470.875 L 401.554688 607.203125 C 402.570312 609.28125 403.726562 611.277344 405.019531 613.191406 C 406.316406 615.105469 407.738281 616.921875 409.285156 618.640625 C 410.835938 620.359375 412.496094 621.957031 414.265625 623.445312 C 416.039062 624.929688 417.90625 626.28125 419.867188 627.507812 C 421.832031 628.730469 423.867188 629.8125 425.980469 630.75 C 428.09375 631.691406 430.261719 632.476562 432.484375 633.113281 C 434.707031 633.75 436.964844 634.230469 439.253906 634.550781 C 441.542969 634.871094 443.84375 635.03125 446.15625 635.03125 L 539.667969 635.03125 C 536.492188 646.246094 534.828125 657.6875 534.671875 669.34375 L 534.671875 799.117188 L 802.261719 799.117188 L 802.261719 669.210938 C 802.261719 667.019531 802.210938 664.832031 802.101562 662.644531 C 801.996094 660.457031 801.835938 658.273438 801.621094 656.097656 C 801.40625 653.917969 801.140625 651.746094 800.820312 649.578125 C 800.496094 647.410156 800.125 645.253906 799.695312 643.105469 C 799.269531 640.960938 798.792969 638.824219 798.257812 636.699219 C 797.726562 634.574219 797.144531 632.464844 796.507812 630.371094 C 795.875 628.273438 795.1875 626.195312 794.449219 624.132812 C 793.714844 622.070312 792.925781 620.027344 792.089844 618.003906 C 791.25 615.984375 790.363281 613.980469 789.429688 612 C 788.492188 610.023438 787.507812 608.066406 786.476562 606.136719 C 785.445312 604.203125 784.367188 602.296875 783.242188 600.421875 C 782.113281 598.542969 780.945312 596.691406 779.726562 594.871094 C 778.511719 593.050781 777.25 591.261719 775.945312 589.5 C 774.644531 587.742188 773.296875 586.015625 771.90625 584.324219 C 770.519531 582.628906 769.089844 580.972656 767.617188 579.351562 C 766.148438 577.726562 764.640625 576.140625 763.089844 574.59375 C 761.542969 573.042969 759.957031 571.535156 758.335938 570.066406 C 756.710938 568.59375 755.054688 567.164062 753.363281 565.773438 C 751.671875 564.386719 749.945312 563.039062 748.1875 561.734375 C 746.425781 560.429688 744.636719 559.167969 742.816406 557.953125 C 740.996094 556.734375 739.148438 555.5625 737.269531 554.4375 C 735.390625 553.3125 733.484375 552.234375 731.554688 551.199219 C 729.625 550.167969 727.667969 549.183594 725.6875 548.246094 C 723.710938 547.3125 721.707031 546.421875 719.6875 545.585938 C 717.664062 544.746094 715.621094 543.960938 713.558594 543.222656 C 711.496094 542.484375 709.417969 541.796875 707.324219 541.160156 C 705.226562 540.523438 703.117188 539.941406 700.992188 539.410156 C 698.871094 538.878906 696.734375 538.398438 694.585938 537.96875 C 692.4375 537.542969 690.28125 537.167969 688.117188 536.847656 C 685.949219 536.527344 683.777344 536.257812 681.597656 536.042969 C 679.417969 535.828125 677.234375 535.667969 675.046875 535.558594 C 672.859375 535.453125 670.671875 535.398438 668.484375 535.398438 Z M 668.484375 535.398438 " fill-opacity="1" fill-rule="nonzero"/></g><g clip-path="url(#252d0b33b0)"><path fill="#ffffff" d="M 155.710938 62.660156 L 188.453125 62.660156 L 188.453125 81 L 155.710938 81 Z M 155.710938 62.660156 " fill-opacity="1" fill-rule="nonzero"/></g></svg>