<svg xmlns="http://www.w3.org/2000/svg" xmlns:xlink="http://www.w3.org/1999/xlink" width="1080" zoomAndPan="magnify" viewBox="0 0 810 809.999993" height="1080" preserveAspectRatio="xMidYMid meet" version="1.0"><defs><clipPath id="cf524a69d2"><path d="M 98.441406 8.160156 L 711.191406 8.160156 L 711.191406 801.660156 L 98.441406 801.660156 Z M 98.441406 8.160156 " clip-rule="nonzero"/></clipPath><clipPath id="fc6ee0df2b"><path d="M 476.375 430 L 480.125 430 L 480.125 433.75 L 476.375 433.75 Z M 476.375 430 " clip-rule="nonzero"/></clipPath></defs><g clip-path="url(#cf524a69d2)"><path fill="#1a1a1a" d="M 711.210938 739.78125 L 711.210938 70.117188 C 711.210938 53.074219 704.25 37.574219 693.027344 26.347656 C 681.804688 15.121094 666.320312 8.160156 649.273438 8.160156 L 160.421875 8.160156 C 143.382812 8.160156 127.890625 15.121094 116.667969 26.347656 C 105.457031 37.574219 98.488281 53.074219 98.488281 70.117188 L 98.488281 739.78125 C 98.488281 756.832031 105.457031 772.332031 116.667969 783.558594 C 127.890625 794.777344 143.382812 801.746094 160.421875 801.746094 L 649.273438 801.746094 C 666.320312 801.746094 681.804688 794.777344 693.027344 783.558594 C 704.25 772.332031 711.210938 756.832031 711.210938 739.78125 Z M 189.0625 320.734375 L 251.265625 320.734375 C 261.949219 320.734375 271.660156 324.535156 278.6875 330.640625 C 285.722656 336.753906 290.085938 345.199219 290.085938 354.488281 L 290.085938 404.253906 C 290.085938 413.554688 285.722656 421.988281 278.6875 428.105469 C 271.660156 434.21875 261.949219 438.007812 251.265625 438.007812 L 189.0625 438.007812 C 178.371094 438.007812 168.660156 434.207031 161.632812 428.105469 C 154.605469 421.988281 150.234375 413.554688 150.234375 404.253906 L 150.234375 354.488281 C 150.234375 345.199219 154.605469 336.753906 161.632812 330.640625 C 168.660156 324.535156 178.371094 320.734375 189.0625 320.734375 Z M 368.480469 320.734375 L 430.683594 320.734375 C 441.375 320.734375 451.078125 324.535156 458.105469 330.640625 C 465.140625 336.753906 469.503906 345.199219 469.503906 354.488281 L 469.503906 404.253906 C 469.503906 413.554688 465.140625 421.988281 458.105469 428.105469 C 451.078125 434.207031 441.375 438.007812 430.683594 438.007812 L 368.480469 438.007812 C 357.789062 438.007812 348.078125 434.207031 341.050781 428.105469 C 334.023438 421.988281 329.660156 413.554688 329.660156 404.253906 L 329.660156 354.488281 C 329.660156 345.199219 334.023438 336.753906 341.050781 330.640625 C 348.078125 324.535156 357.789062 320.734375 368.480469 320.734375 Z M 547.898438 320.734375 L 610.101562 320.734375 C 620.785156 320.734375 630.496094 324.535156 637.523438 330.640625 C 644.558594 336.753906 648.921875 345.199219 648.921875 354.488281 L 648.921875 404.253906 C 648.921875 413.554688 644.558594 421.988281 637.523438 428.105469 C 630.496094 434.207031 620.785156 438.007812 610.101562 438.007812 L 547.898438 438.007812 C 537.207031 438.007812 527.496094 434.21875 520.46875 428.105469 C 513.441406 421.988281 509.070312 413.554688 509.070312 404.253906 L 509.070312 354.488281 C 509.070312 345.199219 513.441406 336.753906 520.46875 330.640625 C 527.496094 324.535156 537.207031 320.734375 547.898438 320.734375 Z M 189.0625 474.910156 L 251.265625 474.910156 C 261.949219 474.910156 271.660156 478.703125 278.6875 484.816406 C 285.722656 490.929688 290.085938 499.363281 290.085938 508.65625 L 290.085938 558.429688 C 290.085938 567.71875 285.722656 576.164062 278.6875 582.277344 C 271.660156 588.382812 261.949219 592.175781 251.265625 592.175781 L 189.0625 592.175781 C 178.371094 592.175781 168.660156 588.382812 161.632812 582.277344 C 154.605469 576.164062 150.234375 567.71875 150.234375 558.429688 L 150.234375 508.65625 C 150.234375 499.363281 154.605469 490.929688 161.632812 484.816406 C 168.660156 478.703125 178.371094 474.910156 189.0625 474.910156 Z M 368.480469 474.910156 L 430.683594 474.910156 C 441.375 474.910156 451.078125 478.703125 458.105469 484.816406 C 465.140625 490.929688 469.503906 499.363281 469.503906 508.65625 L 469.503906 558.429688 C 469.503906 567.71875 465.140625 576.164062 458.105469 582.277344 C 451.078125 588.382812 441.375 592.175781 430.683594 592.175781 L 368.480469 592.175781 C 357.789062 592.175781 348.078125 588.382812 341.050781 582.277344 C 334.023438 576.164062 329.660156 567.71875 329.660156 558.429688 L 329.660156 508.65625 C 329.660156 499.363281 334.023438 490.929688 341.050781 484.816406 C 348.078125 478.703125 357.789062 474.910156 368.480469 474.910156 Z M 547.898438 474.910156 L 610.101562 474.910156 C 620.785156 474.910156 630.496094 478.703125 637.523438 484.816406 C 644.558594 490.929688 648.921875 499.363281 648.921875 508.65625 L 648.921875 712.601562 C 648.921875 721.894531 644.558594 730.335938 637.523438 736.441406 C 630.496094 742.554688 620.785156 746.347656 610.101562 746.347656 L 547.898438 746.347656 C 537.207031 746.347656 527.496094 742.554688 520.46875 736.441406 C 513.441406 730.335938 509.070312 721.894531 509.070312 712.601562 L 509.070312 508.65625 C 509.070312 499.363281 513.441406 490.929688 520.46875 484.816406 C 527.496094 478.703125 537.207031 474.910156 547.898438 474.910156 Z M 189.0625 629.082031 L 251.265625 629.082031 C 261.949219 629.082031 271.660156 632.875 278.6875 638.988281 C 285.722656 645.09375 290.085938 653.535156 290.085938 662.828125 L 290.085938 712.601562 C 290.085938 721.894531 285.722656 730.335938 278.6875 736.441406 C 271.660156 742.554688 261.949219 746.347656 251.265625 746.347656 L 189.0625 746.347656 C 178.371094 746.347656 168.660156 742.554688 161.632812 736.441406 C 154.605469 730.335938 150.234375 721.894531 150.234375 712.601562 L 150.234375 662.828125 C 150.234375 653.535156 154.605469 645.09375 161.632812 638.988281 C 168.660156 632.875 178.371094 629.082031 189.0625 629.082031 Z M 368.480469 629.082031 L 430.683594 629.082031 C 441.375 629.082031 451.078125 632.875 458.105469 638.988281 C 465.140625 645.09375 469.503906 653.535156 469.503906 662.828125 L 469.503906 712.601562 C 469.503906 721.894531 465.140625 730.335938 458.105469 736.441406 C 451.078125 742.554688 441.375 746.347656 430.683594 746.347656 L 368.480469 746.347656 C 357.789062 746.347656 348.078125 742.554688 341.050781 736.441406 C 334.023438 730.335938 329.660156 721.894531 329.660156 712.601562 L 329.660156 662.828125 C 329.660156 653.535156 334.023438 645.09375 341.050781 638.988281 C 348.078125 632.875 357.789062 629.082031 368.480469 629.082031 Z M 650.382812 231.4375 C 650.382812 239.167969 646.996094 246.195312 641.539062 251.308594 C 636.085938 256.414062 628.570312 259.585938 620.316406 259.585938 L 189.390625 259.585938 C 181.136719 259.585938 173.621094 256.414062 168.171875 251.308594 C 162.71875 246.195312 159.328125 239.167969 159.328125 231.4375 L 159.328125 107.671875 C 159.328125 99.945312 162.71875 92.90625 168.171875 87.800781 C 173.621094 82.691406 181.136719 79.519531 189.390625 79.519531 L 620.316406 79.519531 C 628.570312 79.519531 636.085938 82.691406 641.539062 87.800781 C 646.996094 92.90625 650.382812 99.945312 650.382812 107.671875 L 650.382812 231.4375 " fill-opacity="1" fill-rule="evenodd"/></g><g clip-path="url(#fc6ee0df2b)"><path fill="#1a1a1a" d="M 476.375 430 L 480.125 430 L 480.125 433.75 L 476.375 433.75 Z M 476.375 430 " fill-opacity="1" fill-rule="nonzero"/></g></svg>