<svg xmlns="http://www.w3.org/2000/svg" xmlns:xlink="http://www.w3.org/1999/xlink" width="1080" zoomAndPan="magnify" viewBox="0 0 810 809.999993" height="1080" preserveAspectRatio="xMidYMid meet" version="1.0"><defs><clipPath id="790f1f633a"><path d="M 436.183594 391.871094 L 439.933594 391.871094 L 439.933594 395.621094 L 436.183594 395.621094 Z M 436.183594 391.871094 " clip-rule="nonzero"/></clipPath></defs><path fill="#000000" d="M 495.066406 114.980469 L 69.960938 540.0625 C 66.292969 543.730469 63.703125 548.335938 62.488281 553.378906 L 11.457031 764.128906 C 9.140625 773.695312 11.953125 783.785156 18.925781 790.734375 C 24.277344 796.082031 31.5 799.003906 38.886719 799.003906 C 41.09375 799.003906 43.328125 798.757812 45.53125 798.207031 L 256.28125 747.171875 C 261.328125 745.960938 265.929688 743.367188 269.597656 739.703125 L 694.679688 314.59375 Z M 495.066406 114.980469 " fill-opacity="1" fill-rule="nonzero"/><path fill="#000000" d="M 782.820312 139.601562 L 670.058594 26.839844 C 657.597656 14.378906 639.757812 8.617188 620.707031 11.261719 C 604.359375 13.46875 588.449219 21.601562 575.878906 34.171875 L 534.988281 75.058594 L 734.601562 274.671875 L 775.488281 233.785156 C 788.058594 221.210938 796.191406 205.304688 798.398438 188.953125 C 800.960938 170.039062 795.285156 152.066406 782.820312 139.601562 Z M 782.820312 139.601562 " fill-opacity="1" fill-rule="nonzero"/><g clip-path="url(#790f1f633a)"><path fill="#000000" d="M 436.183594 391.871094 L 439.933594 391.871094 L 439.933594 395.621094 L 436.183594 395.621094 Z M 436.183594 391.871094 " fill-opacity="1" fill-rule="nonzero"/></g></svg>