<svg xmlns="http://www.w3.org/2000/svg" xmlns:xlink="http://www.w3.org/1999/xlink" width="1080" zoomAndPan="magnify" viewBox="0 0 810 809.999993" height="1080" preserveAspectRatio="xMidYMid meet" version="1.0"><defs><clipPath id="ac060a705d"><path d="M 372.230469 237.082031 L 405 237.082031 L 405 255.421875 L 372.230469 255.421875 Z M 372.230469 237.082031 " clip-rule="nonzero"/></clipPath><clipPath id="1303537a77"><path d="M 309 154.40625 L 501 154.40625 L 501 469 L 309 469 Z M 309 154.40625 " clip-rule="nonzero"/></clipPath><clipPath id="b703a8bbf2"><path d="M 237 356 L 573 356 L 573 655.40625 L 237 655.40625 Z M 237 356 " clip-rule="nonzero"/></clipPath></defs><g clip-path="url(#ac060a705d)"><path fill="#ffffff" d="M 372.230469 237.082031 L 404.972656 237.082031 L 404.972656 255.421875 L 372.230469 255.421875 Z M 372.230469 237.082031 " fill-opacity="1" fill-rule="nonzero"/></g><g clip-path="url(#1303537a77)"><path fill="#ffffff" d="M 405.042969 468.785156 C 457.597656 468.785156 500.207031 426.179688 500.207031 373.625 L 500.207031 249.726562 C 500.207031 197.167969 457.597656 154.5625 405.042969 154.5625 C 352.488281 154.5625 309.878906 197.167969 309.878906 249.726562 L 309.878906 373.625 C 309.878906 426.179688 352.488281 468.785156 405.042969 468.785156 " fill-opacity="1" fill-rule="nonzero"/></g><g clip-path="url(#b703a8bbf2)"><path fill="#ffffff" d="M 558.089844 356.691406 C 549.902344 356.691406 543.269531 363.328125 543.269531 371.515625 C 543.269531 447.734375 481.261719 509.738281 405.042969 509.738281 C 328.824219 509.738281 266.816406 447.734375 266.816406 371.515625 C 266.816406 363.328125 260.183594 356.691406 251.996094 356.691406 C 243.808594 356.691406 237.175781 363.328125 237.175781 371.515625 C 237.175781 416.351562 254.636719 458.507812 286.34375 490.214844 C 314.53125 518.402344 350.976562 535.316406 390.222656 538.726562 L 390.222656 625.792969 L 328.394531 625.792969 C 320.207031 625.792969 313.574219 632.429688 313.574219 640.617188 C 313.574219 648.800781 320.207031 655.4375 328.394531 655.4375 L 481.691406 655.4375 C 489.875 655.4375 496.511719 648.800781 496.511719 640.617188 C 496.511719 632.429688 489.875 625.792969 481.691406 625.792969 L 419.863281 625.792969 L 419.863281 538.726562 C 459.109375 535.316406 495.558594 518.402344 523.742188 490.214844 C 555.449219 458.507812 572.910156 416.351562 572.910156 371.515625 C 572.910156 363.328125 566.277344 356.691406 558.089844 356.691406 " fill-opacity="1" fill-rule="nonzero"/></g><path fill="#ffffff" d="M 558.089844 259.726562 C 549.902344 259.726562 543.269531 266.363281 543.269531 274.550781 L 543.269531 311.675781 C 543.269531 319.863281 549.902344 326.496094 558.089844 326.496094 C 566.277344 326.496094 572.910156 319.863281 572.910156 311.675781 L 572.910156 274.550781 C 572.910156 266.363281 566.277344 259.726562 558.089844 259.726562 " fill-opacity="1" fill-rule="nonzero"/><path fill="#ffffff" d="M 617.375 229.574219 C 609.1875 229.574219 602.554688 236.210938 602.554688 244.394531 L 602.554688 341.832031 C 602.554688 350.015625 609.1875 356.652344 617.375 356.652344 C 625.558594 356.652344 632.195312 350.015625 632.195312 341.832031 L 632.195312 244.394531 C 632.195312 236.210938 625.558594 229.574219 617.375 229.574219 " fill-opacity="1" fill-rule="nonzero"/><path fill="#ffffff" d="M 676.660156 165.246094 C 668.472656 165.246094 661.835938 171.878906 661.835938 180.066406 L 661.835938 406.160156 C 661.835938 414.347656 668.472656 420.980469 676.660156 420.980469 C 684.84375 420.980469 691.480469 414.347656 691.480469 406.160156 L 691.480469 180.066406 C 691.480469 171.878906 684.84375 165.246094 676.660156 165.246094 " fill-opacity="1" fill-rule="nonzero"/><path fill="#ffffff" d="M 735.941406 229.574219 C 727.757812 229.574219 721.121094 236.210938 721.121094 244.394531 L 721.121094 341.832031 C 721.121094 350.015625 727.757812 356.652344 735.941406 356.652344 C 744.128906 356.652344 750.765625 350.015625 750.765625 341.832031 L 750.765625 244.394531 C 750.765625 236.210938 744.128906 229.574219 735.941406 229.574219 " fill-opacity="1" fill-rule="nonzero"/><path fill="#ffffff" d="M 795.226562 259.726562 C 787.042969 259.726562 780.40625 266.363281 780.40625 274.550781 L 780.40625 311.675781 C 780.40625 319.863281 787.042969 326.496094 795.226562 326.496094 C 803.414062 326.496094 810.050781 319.863281 810.050781 311.675781 L 810.050781 274.550781 C 810.050781 266.363281 803.414062 259.726562 795.226562 259.726562 " fill-opacity="1" fill-rule="nonzero"/><path fill="#ffffff" d="M 251.996094 326.496094 C 260.183594 326.496094 266.816406 319.863281 266.816406 311.675781 L 266.816406 274.550781 C 266.816406 266.363281 260.183594 259.726562 251.996094 259.726562 C 243.808594 259.726562 237.175781 266.363281 237.175781 274.550781 L 237.175781 311.675781 C 237.175781 319.863281 243.808594 326.496094 251.996094 326.496094 " fill-opacity="1" fill-rule="nonzero"/><path fill="#ffffff" d="M 192.710938 229.574219 C 184.527344 229.574219 177.890625 236.210938 177.890625 244.394531 L 177.890625 341.832031 C 177.890625 350.015625 184.527344 356.652344 192.710938 356.652344 C 200.898438 356.652344 207.53125 350.015625 207.53125 341.832031 L 207.53125 244.394531 C 207.53125 236.210938 200.898438 229.574219 192.710938 229.574219 " fill-opacity="1" fill-rule="nonzero"/><path fill="#ffffff" d="M 133.425781 165.246094 C 125.242188 165.246094 118.605469 171.878906 118.605469 180.066406 L 118.605469 406.160156 C 118.605469 414.347656 125.242188 420.980469 133.425781 420.980469 C 141.613281 420.980469 148.246094 414.347656 148.246094 406.160156 L 148.246094 180.066406 C 148.246094 171.878906 141.613281 165.246094 133.425781 165.246094 " fill-opacity="1" fill-rule="nonzero"/><path fill="#ffffff" d="M 74.140625 229.574219 C 65.957031 229.574219 59.320312 236.210938 59.320312 244.394531 L 59.320312 341.832031 C 59.320312 350.015625 65.957031 356.652344 74.140625 356.652344 C 82.328125 356.652344 88.964844 350.015625 88.964844 341.832031 L 88.964844 244.394531 C 88.964844 236.210938 82.328125 229.574219 74.140625 229.574219 " fill-opacity="1" fill-rule="nonzero"/><path fill="#ffffff" d="M 14.859375 259.726562 C 6.671875 259.726562 0.0351562 266.363281 0.0351562 274.550781 L 0.0351562 311.675781 C 0.0351562 319.863281 6.671875 326.496094 14.859375 326.496094 C 23.042969 326.496094 29.679688 319.863281 29.679688 311.675781 L 29.679688 274.550781 C 29.679688 266.363281 23.042969 259.726562 14.859375 259.726562 " fill-opacity="1" fill-rule="nonzero"/></svg>