<svg xmlns="http://www.w3.org/2000/svg" xmlns:xlink="http://www.w3.org/1999/xlink" width="1080" zoomAndPan="magnify" viewBox="0 0 810 809.999993" height="1080" preserveAspectRatio="xMidYMid meet" version="1.0"><defs><clipPath id="46053776a8"><path d="M 419 28.40625 L 620 28.40625 L 620 229 L 419 229 Z M 419 28.40625 " clip-rule="nonzero"/></clipPath><clipPath id="67414f5c7f"><path d="M 607 415 L 806.550781 415 L 806.550781 615 L 607 615 Z M 607 415 " clip-rule="nonzero"/></clipPath><clipPath id="8768cda159"><path d="M 337.191406 275.210938 L 340.941406 275.210938 L 340.941406 286.339844 L 337.191406 286.339844 Z M 337.191406 275.210938 " clip-rule="nonzero"/></clipPath></defs><path fill="#ffffff" d="M 607.089844 259.347656 C 600.230469 259.347656 594.617188 264.964844 594.617188 271.824219 C 594.617188 278.6875 600.230469 284.300781 607.089844 284.300781 L 614.578125 284.300781 C 620.191406 319.230469 647.636719 346.675781 681.941406 351.664062 L 681.941406 359.148438 C 681.941406 366.011719 687.554688 371.625 694.417969 371.625 C 701.277344 371.625 706.890625 366.011719 706.890625 359.148438 L 706.890625 351.664062 C 741.820312 346.050781 769.265625 318.605469 774.257812 284.300781 L 781.742188 284.300781 C 788.601562 284.300781 794.214844 278.6875 794.214844 271.824219 C 794.214844 264.964844 788.601562 259.347656 781.742188 259.347656 L 774.257812 259.347656 C 768.644531 224.417969 741.199219 196.972656 706.890625 191.984375 L 706.890625 184.5 C 706.890625 177.636719 701.277344 172.023438 694.417969 172.023438 C 687.554688 172.023438 681.941406 177.636719 681.941406 184.5 L 681.941406 191.984375 C 647.011719 196.972656 619.566406 224.417969 614.578125 259.347656 Z M 644.515625 259.347656 L 639.527344 259.347656 C 644.515625 238.140625 660.734375 221.925781 681.941406 216.933594 L 681.941406 221.925781 C 681.941406 228.785156 687.554688 234.398438 694.417969 234.398438 C 701.277344 234.398438 706.890625 228.785156 706.890625 221.925781 L 706.890625 216.933594 C 728.097656 221.925781 744.316406 238.140625 749.304688 259.347656 L 744.316406 259.347656 C 737.457031 259.347656 731.839844 264.964844 731.839844 271.824219 C 731.839844 278.6875 737.457031 284.300781 744.316406 284.300781 L 749.304688 284.300781 C 744.316406 305.507812 728.097656 321.722656 706.890625 326.714844 L 706.890625 321.722656 C 706.890625 314.863281 701.277344 309.25 694.417969 309.25 C 687.554688 309.25 681.941406 314.863281 681.941406 321.722656 L 681.941406 326.714844 C 660.734375 321.722656 644.515625 305.507812 639.527344 284.300781 L 644.515625 284.300781 C 651.378906 284.300781 656.992188 278.6875 656.992188 271.824219 C 656.992188 264.964844 651.378906 259.347656 644.515625 259.347656 Z M 644.515625 259.347656 " fill-opacity="1" fill-rule="nonzero"/><path fill="#ffffff" d="M 706.890625 271.824219 C 706.890625 272.644531 706.8125 273.453125 706.652344 274.257812 C 706.492188 275.0625 706.253906 275.839844 705.941406 276.597656 C 705.628906 277.355469 705.242188 278.074219 704.789062 278.753906 C 704.332031 279.4375 703.816406 280.066406 703.238281 280.644531 C 702.660156 281.226562 702.027344 281.742188 701.347656 282.195312 C 700.667969 282.652344 699.945312 283.035156 699.191406 283.351562 C 698.433594 283.664062 697.652344 283.898438 696.851562 284.058594 C 696.046875 284.21875 695.234375 284.300781 694.417969 284.300781 C 693.597656 284.300781 692.785156 284.21875 691.984375 284.058594 C 691.179688 283.898438 690.398438 283.664062 689.640625 283.351562 C 688.886719 283.035156 688.167969 282.652344 687.484375 282.195312 C 686.804688 281.742188 686.175781 281.226562 685.59375 280.644531 C 685.015625 280.066406 684.5 279.4375 684.042969 278.753906 C 683.589844 278.074219 683.203125 277.355469 682.890625 276.597656 C 682.578125 275.839844 682.339844 275.0625 682.179688 274.257812 C 682.019531 273.453125 681.941406 272.644531 681.941406 271.824219 C 681.941406 271.003906 682.019531 270.195312 682.179688 269.390625 C 682.339844 268.585938 682.578125 267.808594 682.890625 267.050781 C 683.203125 266.292969 683.589844 265.574219 684.042969 264.894531 C 684.5 264.210938 685.015625 263.582031 685.59375 263.003906 C 686.175781 262.425781 686.804688 261.90625 687.484375 261.453125 C 688.167969 260.996094 688.886719 260.613281 689.640625 260.300781 C 690.398438 259.984375 691.179688 259.75 691.984375 259.589844 C 692.785156 259.429688 693.597656 259.347656 694.417969 259.347656 C 695.234375 259.347656 696.046875 259.429688 696.851562 259.589844 C 697.652344 259.75 698.433594 259.984375 699.191406 260.300781 C 699.945312 260.613281 700.667969 260.996094 701.347656 261.453125 C 702.027344 261.90625 702.660156 262.425781 703.238281 263.003906 C 703.816406 263.582031 704.332031 264.210938 704.789062 264.894531 C 705.242188 265.574219 705.628906 266.292969 705.941406 267.050781 C 706.253906 267.808594 706.492188 268.585938 706.652344 269.390625 C 706.8125 270.195312 706.890625 271.003906 706.890625 271.824219 Z M 706.890625 271.824219 " fill-opacity="1" fill-rule="nonzero"/><path fill="#ffffff" d="M 532.242188 128.363281 C 532.242188 129.179688 532.160156 129.992188 532 130.796875 C 531.839844 131.597656 531.605469 132.378906 531.292969 133.136719 C 530.976562 133.890625 530.59375 134.613281 530.140625 135.292969 C 529.683594 135.972656 529.167969 136.605469 528.585938 137.183594 C 528.007812 137.761719 527.378906 138.277344 526.695312 138.734375 C 526.015625 139.1875 525.296875 139.574219 524.539062 139.886719 C 523.785156 140.199219 523.003906 140.4375 522.199219 140.597656 C 521.398438 140.757812 520.585938 140.835938 519.765625 140.835938 C 518.945312 140.835938 518.136719 140.757812 517.332031 140.597656 C 516.527344 140.4375 515.75 140.199219 514.992188 139.886719 C 514.234375 139.574219 513.515625 139.1875 512.835938 138.734375 C 512.15625 138.277344 511.523438 137.761719 510.945312 137.183594 C 510.367188 136.605469 509.847656 135.972656 509.394531 135.292969 C 508.9375 134.613281 508.554688 133.890625 508.242188 133.136719 C 507.925781 132.378906 507.691406 131.597656 507.53125 130.796875 C 507.371094 129.992188 507.292969 129.179688 507.292969 128.363281 C 507.292969 127.542969 507.371094 126.730469 507.53125 125.929688 C 507.691406 125.125 507.925781 124.34375 508.242188 123.585938 C 508.554688 122.832031 508.9375 122.113281 509.394531 121.429688 C 509.847656 120.75 510.367188 120.121094 510.945312 119.539062 C 511.523438 118.960938 512.15625 118.445312 512.835938 117.988281 C 513.515625 117.535156 514.234375 117.148438 514.992188 116.835938 C 515.75 116.523438 516.527344 116.285156 517.332031 116.125 C 518.136719 115.964844 518.945312 115.886719 519.765625 115.886719 C 520.585938 115.886719 521.398438 115.964844 522.199219 116.125 C 523.003906 116.285156 523.785156 116.523438 524.539062 116.835938 C 525.296875 117.148438 526.015625 117.535156 526.695312 117.988281 C 527.378906 118.445312 528.007812 118.960938 528.585938 119.539062 C 529.167969 120.121094 529.683594 120.75 530.140625 121.429688 C 530.59375 122.113281 530.976562 122.832031 531.292969 123.585938 C 531.605469 124.34375 531.839844 125.125 532 125.929688 C 532.160156 126.730469 532.242188 127.542969 532.242188 128.363281 Z M 532.242188 128.363281 " fill-opacity="1" fill-rule="nonzero"/><g clip-path="url(#46053776a8)"><path fill="#ffffff" d="M 599.605469 140.835938 L 607.089844 140.835938 C 613.953125 140.835938 619.566406 135.222656 619.566406 128.363281 C 619.566406 121.5 613.953125 115.886719 607.089844 115.886719 L 599.605469 115.886719 C 594.617188 80.957031 567.171875 53.511719 532.242188 48.523438 L 532.242188 41.035156 C 532.242188 34.175781 526.628906 28.5625 519.765625 28.5625 C 512.90625 28.5625 507.292969 34.175781 507.292969 41.035156 L 507.292969 48.523438 C 472.363281 53.511719 444.917969 80.957031 439.925781 115.886719 L 432.441406 115.886719 C 425.578125 115.886719 419.964844 121.5 419.964844 128.363281 C 419.964844 135.222656 425.578125 140.835938 432.441406 140.835938 L 439.925781 140.835938 C 444.917969 175.765625 472.363281 203.210938 507.292969 208.203125 L 507.292969 215.6875 C 507.292969 222.546875 512.90625 228.160156 519.765625 228.160156 C 526.628906 228.160156 532.242188 222.546875 532.242188 215.6875 L 532.242188 208.203125 C 567.171875 203.210938 594.617188 175.765625 599.605469 140.835938 Z M 569.667969 140.835938 L 574.65625 140.835938 C 569.667969 162.042969 553.449219 178.261719 532.242188 183.25 L 532.242188 178.261719 C 532.242188 171.402344 526.628906 165.785156 519.765625 165.785156 C 512.90625 165.785156 507.292969 171.402344 507.292969 178.261719 L 507.292969 183.25 C 486.082031 178.261719 469.867188 162.042969 464.875 140.835938 L 469.867188 140.835938 C 476.726562 140.835938 482.339844 135.222656 482.339844 128.363281 C 482.339844 121.5 476.726562 115.886719 469.867188 115.886719 L 464.875 115.886719 C 469.867188 94.679688 486.082031 78.460938 507.292969 73.472656 L 507.292969 78.460938 C 507.292969 85.324219 512.90625 90.9375 519.765625 90.9375 C 526.628906 90.9375 532.242188 85.324219 532.242188 78.460938 L 532.242188 73.472656 C 553.449219 78.460938 569.667969 94.679688 574.65625 115.886719 L 569.667969 115.886719 C 562.804688 115.886719 557.191406 121.5 557.191406 128.363281 C 557.191406 135.222656 562.804688 140.835938 569.667969 140.835938 Z M 569.667969 140.835938 " fill-opacity="1" fill-rule="nonzero"/></g><path fill="#ffffff" d="M 719.367188 515.085938 C 719.367188 515.90625 719.285156 516.71875 719.125 517.519531 C 718.96875 518.324219 718.730469 519.105469 718.417969 519.859375 C 718.101562 520.617188 717.71875 521.335938 717.265625 522.019531 C 716.808594 522.699219 716.292969 523.328125 715.710938 523.90625 C 715.132812 524.488281 714.503906 525.003906 713.820312 525.460938 C 713.140625 525.914062 712.421875 526.300781 711.664062 526.613281 C 710.910156 526.925781 710.128906 527.164062 709.324219 527.324219 C 708.523438 527.480469 707.710938 527.5625 706.890625 527.5625 C 706.074219 527.5625 705.261719 527.480469 704.457031 527.324219 C 703.65625 527.164062 702.875 526.925781 702.117188 526.613281 C 701.359375 526.300781 700.640625 525.914062 699.960938 525.460938 C 699.28125 525.003906 698.648438 524.488281 698.070312 523.90625 C 697.492188 523.328125 696.972656 522.699219 696.519531 522.019531 C 696.0625 521.335938 695.679688 520.617188 695.367188 519.859375 C 695.050781 519.105469 694.816406 518.324219 694.65625 517.519531 C 694.496094 516.71875 694.417969 515.90625 694.417969 515.085938 C 694.417969 514.269531 694.496094 513.457031 694.65625 512.652344 C 694.816406 511.851562 695.050781 511.070312 695.367188 510.3125 C 695.679688 509.554688 696.0625 508.835938 696.519531 508.15625 C 696.972656 507.476562 697.492188 506.84375 698.070312 506.265625 C 698.648438 505.6875 699.28125 505.167969 699.960938 504.714844 C 700.640625 504.257812 701.359375 503.875 702.117188 503.5625 C 702.875 503.25 703.65625 503.011719 704.457031 502.851562 C 705.261719 502.691406 706.074219 502.613281 706.890625 502.613281 C 707.710938 502.613281 708.523438 502.691406 709.324219 502.851562 C 710.128906 503.011719 710.910156 503.25 711.664062 503.5625 C 712.421875 503.875 713.140625 504.257812 713.820312 504.714844 C 714.503906 505.167969 715.132812 505.6875 715.710938 506.265625 C 716.292969 506.84375 716.808594 507.476562 717.265625 508.15625 C 717.71875 508.835938 718.101562 509.554688 718.417969 510.3125 C 718.730469 511.070312 718.96875 511.851562 719.125 512.652344 C 719.285156 513.457031 719.367188 514.269531 719.367188 515.085938 Z M 719.367188 515.085938 " fill-opacity="1" fill-rule="nonzero"/><g clip-path="url(#67414f5c7f)"><path fill="#ffffff" d="M 794.214844 502.613281 L 786.730469 502.613281 C 781.117188 467.683594 753.671875 440.238281 719.367188 435.246094 L 719.367188 427.761719 C 719.367188 420.902344 713.753906 415.285156 706.890625 415.285156 C 700.03125 415.285156 694.417969 420.902344 694.417969 427.761719 L 694.417969 435.246094 C 659.488281 440.859375 632.042969 468.304688 627.050781 502.613281 L 619.566406 502.613281 C 612.707031 502.613281 607.089844 508.226562 607.089844 515.085938 C 607.089844 521.949219 612.707031 527.5625 619.566406 527.5625 L 627.050781 527.5625 C 632.664062 562.492188 660.109375 589.9375 694.417969 594.925781 L 694.417969 602.414062 C 694.417969 609.273438 700.03125 614.886719 706.890625 614.886719 C 713.753906 614.886719 719.367188 609.273438 719.367188 602.414062 L 719.367188 594.925781 C 754.296875 589.3125 781.742188 561.867188 786.730469 527.5625 L 794.214844 527.5625 C 801.078125 527.5625 806.691406 521.949219 806.691406 515.085938 C 806.691406 508.226562 801.078125 502.613281 794.214844 502.613281 Z M 756.792969 527.5625 L 761.78125 527.5625 C 756.792969 548.769531 740.574219 564.988281 719.367188 569.976562 L 719.367188 564.988281 C 719.367188 558.125 713.753906 552.511719 706.890625 552.511719 C 700.03125 552.511719 694.417969 558.125 694.417969 564.988281 L 694.417969 569.976562 C 673.207031 564.988281 656.992188 548.769531 652 527.5625 L 656.992188 527.5625 C 663.851562 527.5625 669.464844 521.949219 669.464844 515.085938 C 669.464844 508.226562 663.851562 502.613281 656.992188 502.613281 L 652 502.613281 C 656.992188 481.40625 673.207031 465.1875 694.417969 460.195312 L 694.417969 465.1875 C 694.417969 472.046875 700.03125 477.660156 706.890625 477.660156 C 713.753906 477.660156 719.367188 472.046875 719.367188 465.1875 L 719.367188 460.195312 C 740.574219 465.1875 756.792969 481.40625 761.78125 502.613281 L 756.792969 502.613281 C 749.929688 502.613281 744.316406 508.226562 744.316406 515.085938 C 744.316406 521.949219 749.929688 527.5625 756.792969 527.5625 Z M 756.792969 527.5625 " fill-opacity="1" fill-rule="nonzero"/></g><path fill="#ffffff" d="M 144.351562 559.820312 C 144.691406 560.5625 144.953125 561.335938 145.140625 562.132812 C 145.324219 562.929688 145.433594 563.738281 145.460938 564.558594 C 145.488281 565.378906 145.433594 566.191406 145.300781 567 C 145.167969 567.808594 144.957031 568.59375 144.667969 569.359375 C 144.378906 570.128906 144.019531 570.859375 143.585938 571.554688 C 143.15625 572.25 142.660156 572.898438 142.097656 573.496094 C 141.539062 574.09375 140.925781 574.632812 140.261719 575.109375 C 139.597656 575.585938 138.890625 575.992188 138.144531 576.332031 C 137.398438 576.671875 136.625 576.933594 135.828125 577.117188 C 135.03125 577.304688 134.222656 577.410156 133.402344 577.4375 C 132.585938 577.464844 131.773438 577.414062 130.964844 577.28125 C 130.15625 577.148438 129.367188 576.9375 128.601562 576.648438 C 127.835938 576.359375 127.101562 576 126.40625 575.566406 C 125.710938 575.132812 125.066406 574.636719 124.46875 574.078125 C 123.867188 573.519531 123.332031 572.90625 122.855469 572.242188 C 122.375 571.574219 121.96875 570.867188 121.628906 570.121094 C 121.292969 569.378906 121.03125 568.605469 120.84375 567.808594 C 120.65625 567.011719 120.550781 566.203125 120.523438 565.382812 C 120.496094 564.5625 120.550781 563.75 120.683594 562.941406 C 120.816406 562.132812 121.027344 561.347656 121.316406 560.582031 C 121.601562 559.8125 121.964844 559.082031 122.394531 558.386719 C 122.828125 557.691406 123.324219 557.042969 123.882812 556.445312 C 124.445312 555.847656 125.054688 555.308594 125.722656 554.832031 C 126.386719 554.355469 127.09375 553.949219 127.839844 553.609375 C 128.585938 553.269531 129.355469 553.007812 130.15625 552.824219 C 130.953125 552.636719 131.761719 552.53125 132.578125 552.503906 C 133.398438 552.476562 134.210938 552.527344 135.019531 552.660156 C 135.828125 552.792969 136.617188 553.003906 137.382812 553.292969 C 138.148438 553.582031 138.878906 553.941406 139.574219 554.375 C 140.273438 554.808594 140.917969 555.304688 141.515625 555.863281 C 142.113281 556.421875 142.652344 557.035156 143.128906 557.699219 C 143.605469 558.367188 144.015625 559.074219 144.351562 559.820312 Z M 144.351562 559.820312 " fill-opacity="1" fill-rule="nonzero"/><path fill="#ffffff" d="M 367.570312 278.6875 C 363.828125 270.578125 355.71875 265.585938 346.988281 265.585938 C 338.253906 266.210938 330.144531 271.824219 327.027344 279.933594 C 315.175781 312.367188 285.234375 394.703125 171.089844 472.671875 C 168.59375 470.175781 165.476562 468.304688 162.355469 467.058594 C 156.121094 464.5625 149.257812 465.1875 143.019531 467.683594 L 53.824219 510.097656 C 42.597656 515.710938 36.984375 528.808594 40.101562 540.660156 C 36.359375 542.53125 31.992188 543.78125 28.25 545.652344 C 10.785156 552.511719 3.300781 573.71875 10.785156 590.5625 C 10.785156 590.5625 35.113281 644.203125 35.113281 644.203125 C 42.597656 661.042969 63.804688 669.777344 80.644531 661.042969 C 84.386719 659.171875 88.753906 656.679688 92.496094 654.808594 C 95.617188 658.550781 99.359375 661.667969 103.726562 662.914062 C 109.339844 664.789062 115.574219 664.789062 121.191406 662.914062 C 131.792969 671.023438 144.890625 681.628906 156.121094 690.984375 C 181.695312 710.320312 190.425781 747.746094 192.921875 762.714844 C 195.417969 775.816406 211.011719 781.429688 220.367188 772.070312 C 220.367188 772.070312 270.890625 724.042969 270.890625 724.042969 C 277.75 717.183594 277.75 705.332031 270.265625 698.46875 L 219.117188 653.558594 C 207.890625 644.828125 200.40625 635.472656 194.167969 627.363281 C 194.167969 627.363281 211.632812 619.253906 211.632812 619.253906 C 219.117188 615.511719 223.484375 608.648438 225.355469 601.164062 C 358.839844 564.988281 443.667969 598.046875 476.726562 611.144531 C 484.835938 614.261719 494.816406 612.390625 501.054688 605.53125 C 507.292969 599.292969 508.539062 589.3125 505.421875 581.203125 Z M 68.792969 639.214844 C 66.921875 640.460938 65.050781 639.835938 63.804688 639.214844 C 61.308594 638.589844 59.4375 636.71875 58.191406 634.222656 L 33.863281 580.582031 C 32.617188 578.085938 32.617188 575.589844 33.863281 573.097656 C 34.488281 571.847656 35.734375 569.976562 37.605469 569.351562 C 41.972656 567.480469 46.339844 566.234375 50.707031 564.363281 L 81.894531 632.976562 C 77.527344 634.847656 73.160156 636.71875 68.792969 639.214844 Z M 203.523438 673.519531 L 247.8125 712.816406 L 214.128906 744.628906 C 208.515625 723.417969 196.664062 691.609375 171.714844 672.273438 C 166.722656 667.90625 157.367188 659.796875 146.761719 651.6875 L 171.714844 639.835938 C 179.199219 649.816406 189.179688 661.667969 203.523438 673.519531 Z M 201.03125 597.421875 L 112.457031 639.835938 L 64.429688 534.421875 C 63.804688 533.800781 64.429688 532.550781 64.429688 532.550781 L 153.625 490.136719 L 201.652344 595.550781 C 201.652344 596.175781 201.652344 597.421875 201.03125 597.421875 Z M 220.367188 577.460938 L 182.941406 494.503906 C 262.78125 440.238281 317.671875 373.496094 348.234375 295.527344 L 479.847656 586.195312 C 440.550781 570.601562 353.226562 541.910156 220.367188 577.460938 Z M 220.367188 577.460938 " fill-opacity="1" fill-rule="nonzero"/><path fill="#ffffff" d="M 482.339844 228.160156 C 482.339844 228.980469 482.261719 229.792969 482.101562 230.59375 C 481.941406 231.398438 481.707031 232.179688 481.390625 232.9375 C 481.078125 233.691406 480.695312 234.410156 480.238281 235.09375 C 479.785156 235.773438 479.265625 236.402344 478.6875 236.984375 C 478.109375 237.5625 477.476562 238.078125 476.796875 238.535156 C 476.117188 238.988281 475.398438 239.375 474.640625 239.6875 C 473.882812 240 473.101562 240.238281 472.300781 240.398438 C 471.496094 240.558594 470.683594 240.636719 469.867188 240.636719 C 469.046875 240.636719 468.234375 240.558594 467.433594 240.398438 C 466.628906 240.238281 465.847656 240 465.09375 239.6875 C 464.335938 239.375 463.617188 238.988281 462.933594 238.535156 C 462.253906 238.078125 461.625 237.5625 461.046875 236.984375 C 460.464844 236.402344 459.949219 235.773438 459.492188 235.09375 C 459.039062 234.410156 458.65625 233.691406 458.339844 232.9375 C 458.027344 232.179688 457.789062 231.398438 457.632812 230.59375 C 457.472656 229.792969 457.390625 228.980469 457.390625 228.160156 C 457.390625 227.34375 457.472656 226.53125 457.632812 225.726562 C 457.789062 224.925781 458.027344 224.144531 458.339844 223.386719 C 458.65625 222.632812 459.039062 221.914062 459.492188 221.230469 C 459.949219 220.550781 460.464844 219.917969 461.046875 219.339844 C 461.625 218.761719 462.253906 218.246094 462.933594 217.789062 C 463.617188 217.335938 464.335938 216.949219 465.09375 216.636719 C 465.847656 216.324219 466.628906 216.085938 467.433594 215.925781 C 468.234375 215.765625 469.046875 215.6875 469.867188 215.6875 C 470.683594 215.6875 471.496094 215.765625 472.300781 215.925781 C 473.101562 216.085938 473.882812 216.324219 474.640625 216.636719 C 475.398438 216.949219 476.117188 217.335938 476.796875 217.789062 C 477.476562 218.246094 478.109375 218.761719 478.6875 219.339844 C 479.265625 219.917969 479.785156 220.550781 480.238281 221.230469 C 480.695312 221.914062 481.078125 222.632812 481.390625 223.386719 C 481.707031 224.144531 481.941406 224.925781 482.101562 225.726562 C 482.261719 226.53125 482.339844 227.34375 482.339844 228.160156 Z M 482.339844 228.160156 " fill-opacity="1" fill-rule="nonzero"/><path fill="#ffffff" d="M 457.390625 271.824219 C 457.390625 272.644531 457.3125 273.453125 457.152344 274.257812 C 456.992188 275.0625 456.753906 275.839844 456.441406 276.597656 C 456.128906 277.355469 455.742188 278.074219 455.289062 278.753906 C 454.832031 279.4375 454.316406 280.066406 453.738281 280.644531 C 453.15625 281.226562 452.527344 281.742188 451.847656 282.195312 C 451.164062 282.652344 450.445312 283.035156 449.691406 283.351562 C 448.933594 283.664062 448.152344 283.898438 447.351562 284.058594 C 446.546875 284.21875 445.734375 284.300781 444.917969 284.300781 C 444.097656 284.300781 443.285156 284.21875 442.484375 284.058594 C 441.679688 283.898438 440.898438 283.664062 440.140625 283.351562 C 439.386719 283.035156 438.667969 282.652344 437.984375 282.195312 C 437.304688 281.742188 436.675781 281.226562 436.09375 280.644531 C 435.515625 280.066406 435 279.4375 434.542969 278.753906 C 434.089844 278.074219 433.703125 277.355469 433.390625 276.597656 C 433.078125 275.839844 432.839844 275.0625 432.679688 274.257812 C 432.519531 273.453125 432.441406 272.644531 432.441406 271.824219 C 432.441406 271.003906 432.519531 270.195312 432.679688 269.390625 C 432.839844 268.585938 433.078125 267.808594 433.390625 267.050781 C 433.703125 266.292969 434.089844 265.574219 434.542969 264.894531 C 435 264.210938 435.515625 263.582031 436.09375 263.003906 C 436.675781 262.425781 437.304688 261.90625 437.984375 261.453125 C 438.667969 260.996094 439.386719 260.613281 440.140625 260.300781 C 440.898438 259.984375 441.679688 259.75 442.484375 259.589844 C 443.285156 259.429688 444.097656 259.347656 444.917969 259.347656 C 445.734375 259.347656 446.546875 259.429688 447.351562 259.589844 C 448.152344 259.75 448.933594 259.984375 449.691406 260.300781 C 450.445312 260.613281 451.164062 260.996094 451.847656 261.453125 C 452.527344 261.90625 453.15625 262.425781 453.738281 263.003906 C 454.316406 263.582031 454.832031 264.210938 455.289062 264.894531 C 455.742188 265.574219 456.128906 266.292969 456.441406 267.050781 C 456.753906 267.808594 456.992188 268.585938 457.152344 269.390625 C 457.3125 270.195312 457.390625 271.003906 457.390625 271.824219 Z M 457.390625 271.824219 " fill-opacity="1" fill-rule="nonzero"/><path fill="#ffffff" d="M 432.441406 315.488281 C 432.441406 316.304688 432.363281 317.117188 432.203125 317.921875 C 432.042969 318.722656 431.804688 319.503906 431.492188 320.261719 C 431.179688 321.019531 430.792969 321.738281 430.339844 322.417969 C 429.882812 323.097656 429.367188 323.730469 428.789062 324.308594 C 428.207031 324.886719 427.578125 325.40625 426.898438 325.859375 C 426.214844 326.316406 425.496094 326.699219 424.738281 327.011719 C 423.984375 327.324219 423.203125 327.5625 422.398438 327.722656 C 421.597656 327.882812 420.785156 327.960938 419.964844 327.960938 C 419.148438 327.960938 418.335938 327.882812 417.53125 327.722656 C 416.730469 327.5625 415.949219 327.324219 415.191406 327.011719 C 414.433594 326.699219 413.714844 326.316406 413.035156 325.859375 C 412.355469 325.40625 411.722656 324.886719 411.144531 324.308594 C 410.566406 323.730469 410.046875 323.097656 409.59375 322.417969 C 409.136719 321.738281 408.753906 321.019531 408.441406 320.261719 C 408.128906 319.503906 407.890625 318.722656 407.730469 317.921875 C 407.570312 317.117188 407.492188 316.304688 407.492188 315.488281 C 407.492188 314.667969 407.570312 313.855469 407.730469 313.054688 C 407.890625 312.25 408.128906 311.46875 408.441406 310.710938 C 408.753906 309.957031 409.136719 309.238281 409.59375 308.554688 C 410.046875 307.875 410.566406 307.246094 411.144531 306.664062 C 411.722656 306.085938 412.355469 305.570312 413.035156 305.113281 C 413.714844 304.660156 414.433594 304.273438 415.191406 303.960938 C 415.949219 303.648438 416.730469 303.410156 417.53125 303.25 C 418.335938 303.089844 419.148438 303.011719 419.964844 303.011719 C 420.785156 303.011719 421.597656 303.089844 422.398438 303.25 C 423.203125 303.410156 423.984375 303.648438 424.738281 303.960938 C 425.496094 304.273438 426.214844 304.660156 426.898438 305.113281 C 427.578125 305.570312 428.207031 306.085938 428.789062 306.664062 C 429.367188 307.246094 429.882812 307.875 430.339844 308.554688 C 430.792969 309.238281 431.179688 309.957031 431.492188 310.710938 C 431.804688 311.46875 432.042969 312.25 432.203125 313.054688 C 432.363281 313.855469 432.441406 314.667969 432.441406 315.488281 Z M 432.441406 315.488281 " fill-opacity="1" fill-rule="nonzero"/><path fill="#ffffff" d="M 619.566406 340.4375 C 619.566406 341.257812 619.488281 342.066406 619.328125 342.871094 C 619.167969 343.675781 618.929688 344.453125 618.617188 345.210938 C 618.304688 345.96875 617.917969 346.6875 617.464844 347.367188 C 617.007812 348.046875 616.492188 348.679688 615.914062 349.257812 C 615.332031 349.835938 614.703125 350.355469 614.023438 350.808594 C 613.339844 351.265625 612.621094 351.648438 611.867188 351.960938 C 611.109375 352.277344 610.328125 352.511719 609.523438 352.671875 C 608.722656 352.832031 607.910156 352.910156 607.089844 352.910156 C 606.273438 352.910156 605.460938 352.832031 604.65625 352.671875 C 603.855469 352.511719 603.074219 352.277344 602.316406 351.960938 C 601.5625 351.648438 600.839844 351.265625 600.160156 350.808594 C 599.480469 350.355469 598.847656 349.835938 598.269531 349.257812 C 597.691406 348.679688 597.175781 348.046875 596.71875 347.367188 C 596.261719 346.6875 595.878906 345.96875 595.566406 345.210938 C 595.253906 344.453125 595.015625 343.675781 594.855469 342.871094 C 594.695312 342.066406 594.617188 341.257812 594.617188 340.4375 C 594.617188 339.617188 594.695312 338.804688 594.855469 338.003906 C 595.015625 337.199219 595.253906 336.417969 595.566406 335.664062 C 595.878906 334.90625 596.261719 334.1875 596.71875 333.507812 C 597.175781 332.824219 597.691406 332.195312 598.269531 331.617188 C 598.847656 331.035156 599.480469 330.519531 600.160156 330.0625 C 600.839844 329.609375 601.5625 329.226562 602.316406 328.910156 C 603.074219 328.597656 603.855469 328.363281 604.65625 328.203125 C 605.460938 328.042969 606.273438 327.960938 607.089844 327.960938 C 607.910156 327.960938 608.722656 328.042969 609.523438 328.203125 C 610.328125 328.363281 611.109375 328.597656 611.867188 328.910156 C 612.621094 329.226562 613.339844 329.609375 614.023438 330.0625 C 614.703125 330.519531 615.332031 331.035156 615.914062 331.617188 C 616.492188 332.195312 617.007812 332.824219 617.464844 333.507812 C 617.917969 334.1875 618.304688 334.90625 618.617188 335.664062 C 618.929688 336.417969 619.167969 337.199219 619.328125 338.003906 C 619.488281 338.804688 619.566406 339.617188 619.566406 340.4375 Z M 619.566406 340.4375 " fill-opacity="1" fill-rule="nonzero"/><path fill="#ffffff" d="M 575.902344 371.625 C 575.902344 372.445312 575.824219 373.253906 575.664062 374.058594 C 575.503906 374.863281 575.269531 375.640625 574.953125 376.398438 C 574.640625 377.15625 574.257812 377.875 573.800781 378.554688 C 573.347656 379.234375 572.828125 379.867188 572.25 380.445312 C 571.671875 381.023438 571.039062 381.542969 570.359375 381.996094 C 569.679688 382.453125 568.960938 382.835938 568.203125 383.148438 C 567.445312 383.464844 566.664062 383.699219 565.863281 383.859375 C 565.058594 384.019531 564.246094 384.097656 563.429688 384.097656 C 562.609375 384.097656 561.796875 384.019531 560.996094 383.859375 C 560.191406 383.699219 559.410156 383.464844 558.65625 383.148438 C 557.898438 382.835938 557.179688 382.453125 556.5 381.996094 C 555.816406 381.542969 555.1875 381.023438 554.609375 380.445312 C 554.027344 379.867188 553.511719 379.234375 553.054688 378.554688 C 552.601562 377.875 552.21875 377.15625 551.902344 376.398438 C 551.589844 375.640625 551.351562 374.863281 551.195312 374.058594 C 551.035156 373.253906 550.953125 372.445312 550.953125 371.625 C 550.953125 370.804688 551.035156 369.992188 551.195312 369.191406 C 551.351562 368.386719 551.589844 367.605469 551.902344 366.851562 C 552.21875 366.09375 552.601562 365.375 553.054688 364.695312 C 553.511719 364.011719 554.027344 363.382812 554.609375 362.804688 C 555.1875 362.222656 555.816406 361.707031 556.496094 361.25 C 557.179688 360.796875 557.898438 360.414062 558.65625 360.097656 C 559.410156 359.785156 560.191406 359.550781 560.996094 359.390625 C 561.796875 359.230469 562.609375 359.148438 563.429688 359.148438 C 564.246094 359.148438 565.058594 359.230469 565.863281 359.390625 C 566.664062 359.550781 567.445312 359.785156 568.203125 360.097656 C 568.960938 360.414062 569.679688 360.796875 570.359375 361.25 C 571.039062 361.707031 571.671875 362.222656 572.25 362.804688 C 572.828125 363.382812 573.347656 364.011719 573.800781 364.695312 C 574.257812 365.375 574.640625 366.09375 574.953125 366.851562 C 575.269531 367.605469 575.503906 368.386719 575.664062 369.191406 C 575.824219 369.992188 575.902344 370.804688 575.902344 371.625 Z M 575.902344 371.625 " fill-opacity="1" fill-rule="nonzero"/><path fill="#ffffff" d="M 532.242188 402.8125 C 532.242188 403.632812 532.160156 404.441406 532 405.246094 C 531.839844 406.050781 531.605469 406.828125 531.292969 407.585938 C 530.976562 408.34375 530.59375 409.0625 530.140625 409.742188 C 529.683594 410.421875 529.167969 411.054688 528.585938 411.632812 C 528.007812 412.210938 527.378906 412.730469 526.695312 413.183594 C 526.015625 413.640625 525.296875 414.023438 524.539062 414.335938 C 523.785156 414.652344 523.003906 414.886719 522.199219 415.046875 C 521.398438 415.207031 520.585938 415.285156 519.765625 415.285156 C 518.945312 415.285156 518.136719 415.207031 517.332031 415.046875 C 516.527344 414.886719 515.75 414.652344 514.992188 414.335938 C 514.234375 414.023438 513.515625 413.640625 512.835938 413.183594 C 512.15625 412.730469 511.523438 412.210938 510.945312 411.632812 C 510.367188 411.054688 509.847656 410.421875 509.394531 409.742188 C 508.9375 409.0625 508.554688 408.34375 508.242188 407.585938 C 507.925781 406.828125 507.691406 406.050781 507.53125 405.246094 C 507.371094 404.441406 507.292969 403.632812 507.292969 402.8125 C 507.292969 401.992188 507.371094 401.179688 507.53125 400.378906 C 507.691406 399.574219 507.925781 398.792969 508.242188 398.039062 C 508.554688 397.28125 508.9375 396.5625 509.394531 395.882812 C 509.847656 395.199219 510.367188 394.570312 510.945312 393.992188 C 511.523438 393.410156 512.15625 392.894531 512.835938 392.4375 C 513.515625 391.984375 514.234375 391.601562 514.992188 391.285156 C 515.75 390.972656 516.527344 390.738281 517.332031 390.578125 C 518.136719 390.417969 518.945312 390.335938 519.765625 390.335938 C 520.585938 390.335938 521.398438 390.417969 522.199219 390.578125 C 523.003906 390.738281 523.785156 390.972656 524.539062 391.285156 C 525.296875 391.601562 526.015625 391.984375 526.695312 392.4375 C 527.378906 392.894531 528.007812 393.410156 528.585938 393.992188 C 529.167969 394.570312 529.683594 395.199219 530.140625 395.882812 C 530.59375 396.5625 530.976562 397.28125 531.292969 398.039062 C 531.605469 398.792969 531.839844 399.574219 532 400.378906 C 532.160156 401.179688 532.242188 401.992188 532.242188 402.8125 Z M 532.242188 402.8125 " fill-opacity="1" fill-rule="nonzero"/><path fill="#ffffff" d="M 488.578125 434 C 488.578125 434.820312 488.5 435.628906 488.339844 436.433594 C 488.179688 437.238281 487.941406 438.015625 487.628906 438.773438 C 487.316406 439.53125 486.929688 440.25 486.476562 440.929688 C 486.019531 441.609375 485.503906 442.242188 484.925781 442.820312 C 484.347656 443.398438 483.714844 443.917969 483.035156 444.371094 C 482.351562 444.828125 481.632812 445.210938 480.878906 445.523438 C 480.121094 445.839844 479.339844 446.074219 478.539062 446.234375 C 477.734375 446.394531 476.921875 446.472656 476.105469 446.472656 C 475.285156 446.472656 474.472656 446.394531 473.671875 446.234375 C 472.867188 446.074219 472.085938 445.839844 471.328125 445.523438 C 470.574219 445.210938 469.855469 444.828125 469.171875 444.371094 C 468.492188 443.917969 467.863281 443.398438 467.28125 442.820312 C 466.703125 442.242188 466.1875 441.609375 465.730469 440.929688 C 465.277344 440.25 464.890625 439.53125 464.578125 438.773438 C 464.265625 438.015625 464.027344 437.238281 463.867188 436.433594 C 463.707031 435.628906 463.628906 434.820312 463.628906 434 C 463.628906 433.179688 463.707031 432.367188 463.867188 431.566406 C 464.027344 430.761719 464.265625 429.980469 464.578125 429.226562 C 464.890625 428.46875 465.277344 427.75 465.730469 427.070312 C 466.1875 426.386719 466.703125 425.757812 467.28125 425.179688 C 467.863281 424.597656 468.492188 424.082031 469.171875 423.625 C 469.855469 423.171875 470.574219 422.789062 471.328125 422.472656 C 472.085938 422.160156 472.867188 421.925781 473.671875 421.765625 C 474.472656 421.605469 475.285156 421.523438 476.105469 421.523438 C 476.921875 421.523438 477.734375 421.605469 478.539062 421.765625 C 479.339844 421.925781 480.121094 422.160156 480.878906 422.472656 C 481.632812 422.789062 482.351562 423.171875 483.035156 423.625 C 483.714844 424.082031 484.347656 424.597656 484.925781 425.179688 C 485.503906 425.757812 486.019531 426.386719 486.476562 427.070312 C 486.929688 427.75 487.316406 428.46875 487.628906 429.226562 C 487.941406 429.980469 488.179688 430.761719 488.339844 431.566406 C 488.5 432.367188 488.578125 433.179688 488.578125 434 Z M 488.578125 434 " fill-opacity="1" fill-rule="nonzero"/><path fill="#ffffff" d="M 532.242188 533.800781 C 532.242188 534.617188 532.160156 535.429688 532 536.234375 C 531.839844 537.035156 531.605469 537.816406 531.292969 538.574219 C 530.976562 539.332031 530.59375 540.050781 530.140625 540.730469 C 529.683594 541.410156 529.167969 542.042969 528.585938 542.621094 C 528.007812 543.199219 527.378906 543.71875 526.695312 544.171875 C 526.015625 544.628906 525.296875 545.011719 524.539062 545.324219 C 523.785156 545.636719 523.003906 545.875 522.199219 546.035156 C 521.398438 546.195312 520.585938 546.273438 519.765625 546.273438 C 518.945312 546.273438 518.136719 546.195312 517.332031 546.035156 C 516.527344 545.875 515.75 545.636719 514.992188 545.324219 C 514.234375 545.011719 513.515625 544.628906 512.835938 544.171875 C 512.15625 543.71875 511.523438 543.199219 510.945312 542.621094 C 510.367188 542.042969 509.847656 541.410156 509.394531 540.730469 C 508.9375 540.050781 508.554688 539.332031 508.242188 538.574219 C 507.925781 537.816406 507.691406 537.035156 507.53125 536.234375 C 507.371094 535.429688 507.292969 534.617188 507.292969 533.800781 C 507.292969 532.980469 507.371094 532.167969 507.53125 531.367188 C 507.691406 530.5625 507.925781 529.78125 508.242188 529.027344 C 508.554688 528.269531 508.9375 527.550781 509.394531 526.867188 C 509.847656 526.1875 510.367188 525.558594 510.945312 524.976562 C 511.523438 524.398438 512.15625 523.882812 512.835938 523.425781 C 513.515625 522.972656 514.234375 522.585938 514.992188 522.273438 C 515.75 521.960938 516.527344 521.722656 517.332031 521.5625 C 518.136719 521.40625 518.945312 521.324219 519.765625 521.324219 C 520.585938 521.324219 521.398438 521.40625 522.199219 521.5625 C 523.003906 521.722656 523.785156 521.960938 524.539062 522.273438 C 525.296875 522.585938 526.015625 522.972656 526.695312 523.425781 C 527.378906 523.882812 528.007812 524.398438 528.585938 524.976562 C 529.167969 525.558594 529.683594 526.1875 530.140625 526.867188 C 530.59375 527.550781 530.976562 528.269531 531.292969 529.027344 C 531.605469 529.78125 531.839844 530.5625 532 531.367188 C 532.160156 532.167969 532.242188 532.980469 532.242188 533.800781 Z M 532.242188 533.800781 " fill-opacity="1" fill-rule="nonzero"/><path fill="#ffffff" d="M 582.140625 521.324219 C 582.140625 522.144531 582.0625 522.953125 581.902344 523.757812 C 581.742188 524.5625 581.503906 525.339844 581.191406 526.097656 C 580.878906 526.855469 580.492188 527.574219 580.039062 528.253906 C 579.582031 528.9375 579.066406 529.566406 578.488281 530.144531 C 577.910156 530.726562 577.277344 531.242188 576.597656 531.695312 C 575.917969 532.152344 575.195312 532.535156 574.441406 532.851562 C 573.683594 533.164062 572.902344 533.398438 572.101562 533.558594 C 571.296875 533.71875 570.484375 533.800781 569.667969 533.800781 C 568.847656 533.800781 568.035156 533.71875 567.234375 533.558594 C 566.429688 533.398438 565.648438 533.164062 564.890625 532.851562 C 564.136719 532.535156 563.417969 532.152344 562.734375 531.695312 C 562.054688 531.242188 561.425781 530.726562 560.84375 530.144531 C 560.265625 529.566406 559.75 528.9375 559.292969 528.253906 C 558.839844 527.574219 558.453125 526.855469 558.140625 526.097656 C 557.828125 525.339844 557.589844 524.5625 557.429688 523.757812 C 557.269531 522.953125 557.191406 522.144531 557.191406 521.324219 C 557.191406 520.503906 557.269531 519.695312 557.429688 518.890625 C 557.589844 518.085938 557.828125 517.308594 558.140625 516.550781 C 558.453125 515.792969 558.839844 515.074219 559.292969 514.394531 C 559.75 513.710938 560.265625 513.082031 560.84375 512.503906 C 561.425781 511.925781 562.054688 511.40625 562.734375 510.953125 C 563.417969 510.496094 564.136719 510.113281 564.890625 509.800781 C 565.648438 509.484375 566.429688 509.25 567.234375 509.089844 C 568.035156 508.929688 568.847656 508.847656 569.667969 508.847656 C 570.484375 508.847656 571.296875 508.929688 572.101562 509.089844 C 572.902344 509.25 573.683594 509.484375 574.441406 509.800781 C 575.195312 510.113281 575.914062 510.496094 576.597656 510.953125 C 577.277344 511.40625 577.910156 511.925781 578.488281 512.503906 C 579.066406 513.082031 579.582031 513.710938 580.039062 514.394531 C 580.492188 515.074219 580.878906 515.792969 581.191406 516.550781 C 581.503906 517.308594 581.742188 518.085938 581.902344 518.890625 C 582.0625 519.695312 582.140625 520.503906 582.140625 521.324219 Z M 582.140625 521.324219 " fill-opacity="1" fill-rule="nonzero"/><g clip-path="url(#8768cda159)"><path fill="#ffffff" d="M 337.191406 275.210938 L 340.941406 275.210938 L 340.941406 286.34375 L 337.191406 286.34375 Z M 337.191406 275.210938 " fill-opacity="1" fill-rule="nonzero"/></g></svg>