<svg xmlns="http://www.w3.org/2000/svg" xmlns:xlink="http://www.w3.org/1999/xlink" width="1080" zoomAndPan="magnify" viewBox="0 0 810 809.999993" height="1080" preserveAspectRatio="xMidYMid meet" version="1.0"><defs><clipPath id="39209b6dd8"><path d="M 195.761719 207.402344 L 199.511719 207.402344 L 199.511719 211.152344 L 195.761719 211.152344 Z M 195.761719 207.402344 " clip-rule="nonzero"/></clipPath><clipPath id="3fd0860b32"><path d="M 135 136 L 675 136 L 675 674.492188 L 135 674.492188 Z M 135 136 " clip-rule="nonzero"/></clipPath></defs><g clip-path="url(#39209b6dd8)"><path fill="#222222" d="M 195.761719 207.402344 L 199.511719 207.402344 L 199.511719 211.152344 L 195.761719 211.152344 Z M 195.761719 207.402344 " fill-opacity="1" fill-rule="nonzero"/></g><path fill="#ffffff" d="M 148.695312 623.488281 L 58.992188 623.488281 C 51.933594 623.488281 46.175781 617.734375 46.175781 610.675781 L 46.175781 418.449219 L 20.546875 418.449219 C 13.488281 418.449219 7.730469 412.695312 7.730469 405.636719 L 7.730469 380.007812 C 7.730469 376.453125 9.183594 373.097656 11.738281 370.695312 L 229.640625 165.65625 C 234.546875 161 242.253906 161 247.160156 165.65625 L 274.441406 191.285156 C 279.597656 196.09375 279.847656 204.203125 274.992188 209.359375 C 270.136719 214.511719 262.027344 214.765625 256.871094 209.910156 L 238.402344 192.539062 L 33.363281 385.5625 L 33.363281 392.820312 L 58.992188 392.820312 C 66.050781 392.820312 71.808594 398.578125 71.808594 405.636719 L 71.808594 597.859375 L 148.695312 597.859375 C 155.753906 597.859375 161.511719 603.617188 161.511719 610.675781 C 161.511719 617.734375 155.753906 623.488281 148.695312 623.488281 " fill-opacity="1" fill-rule="nonzero"/><path fill="#ffffff" d="M 750.996094 623.488281 L 661.292969 623.488281 C 654.234375 623.488281 648.476562 617.734375 648.476562 610.675781 C 648.476562 603.617188 654.234375 597.859375 661.292969 597.859375 L 738.183594 597.859375 L 738.183594 405.636719 C 738.183594 398.578125 743.9375 392.820312 750.996094 392.820312 L 776.625 392.820312 L 776.625 385.5625 L 571.589844 192.539062 L 553.117188 209.910156 C 547.960938 214.765625 539.851562 214.511719 534.996094 209.359375 C 530.140625 204.203125 530.390625 196.09375 535.546875 191.285156 L 562.828125 165.65625 C 567.734375 161 575.441406 161 580.347656 165.65625 L 798.203125 370.695312 C 800.804688 373.097656 802.257812 376.453125 802.257812 380.007812 L 802.257812 405.636719 C 802.257812 412.695312 796.5 418.449219 789.441406 418.449219 L 763.8125 418.449219 L 763.8125 610.675781 C 763.8125 617.734375 758.054688 623.488281 750.996094 623.488281 " fill-opacity="1" fill-rule="nonzero"/><g clip-path="url(#3fd0860b32)"><path fill="#ffffff" d="M 494.699219 649.121094 L 597.21875 649.121094 L 597.21875 456.894531 C 597.21875 449.835938 602.976562 444.082031 610.03125 444.082031 L 648.476562 444.082031 L 648.476562 410.941406 L 404.996094 167.457031 L 161.511719 410.941406 L 161.511719 444.082031 L 199.957031 444.082031 C 207.015625 444.082031 212.769531 449.835938 212.769531 456.894531 L 212.769531 649.121094 L 315.289062 649.121094 L 315.289062 482.527344 C 315.289062 475.46875 321.046875 469.710938 328.105469 469.710938 L 481.882812 469.710938 C 488.941406 469.710938 494.699219 475.46875 494.699219 482.527344 Z M 610.03125 674.75 L 481.882812 674.75 C 474.824219 674.75 469.070312 668.992188 469.070312 661.933594 L 469.070312 495.339844 L 340.917969 495.339844 L 340.917969 661.933594 C 340.917969 668.992188 335.164062 674.75 328.105469 674.75 L 199.957031 674.75 C 192.898438 674.75 187.140625 668.992188 187.140625 661.933594 L 187.140625 469.710938 L 148.695312 469.710938 C 141.636719 469.710938 135.882812 463.953125 135.882812 456.894531 L 135.882812 405.636719 C 135.882812 402.230469 137.234375 398.976562 139.636719 396.574219 L 395.933594 140.277344 C 400.941406 135.269531 409.050781 135.269531 414.054688 140.277344 L 670.351562 396.574219 C 672.757812 398.976562 674.109375 402.230469 674.109375 405.636719 L 674.109375 456.894531 C 674.109375 463.953125 668.351562 469.710938 661.292969 469.710938 L 622.847656 469.710938 L 622.847656 661.933594 C 622.847656 668.992188 617.089844 674.75 610.03125 674.75 " fill-opacity="1" fill-rule="nonzero"/></g></svg>