<svg xmlns="http://www.w3.org/2000/svg" xmlns:xlink="http://www.w3.org/1999/xlink" width="1080" zoomAndPan="magnify" viewBox="0 0 810 809.999993" height="1080" preserveAspectRatio="xMidYMid meet" version="1.0"><defs><clipPath id="99936b1887"><path d="M 5.914062 5.914062 L 803.914062 5.914062 L 803.914062 803.914062 L 5.914062 803.914062 Z M 5.914062 5.914062 " clip-rule="nonzero"/></clipPath><clipPath id="77cf4df4a6"><path d="M 522.75 522.75 L 526.5 522.75 L 526.5 526.5 L 522.75 526.5 Z M 522.75 522.75 " clip-rule="nonzero"/></clipPath></defs><g clip-path="url(#99936b1887)"><path fill="#a6a6a6" d="M 121.71875 123.5 C 200.109375 45.109375 294.535156 5.914062 404.996094 5.914062 C 515.457031 5.914062 609.585938 44.8125 687.382812 122.609375 C 765.179688 200.40625 804.078125 294.535156 804.078125 404.996094 C 804.078125 515.457031 765.179688 609.585938 687.382812 687.382812 C 609.585938 765.179688 515.457031 804.078125 404.996094 804.078125 C 294.535156 804.078125 200.40625 765.179688 122.609375 687.382812 C 44.8125 609.585938 5.914062 515.457031 5.914062 404.996094 C 5.914062 294.535156 44.515625 200.703125 121.71875 123.5 Z M 440.628906 588.503906 C 441.816406 573.0625 437.363281 559.996094 427.265625 549.308594 C 417.171875 538.617188 404.402344 533.273438 388.960938 533.273438 C 374.710938 533.273438 362.238281 538.023438 351.546875 547.527344 C 340.859375 557.027344 335.511719 569.5 335.511719 584.941406 C 335.511719 600.378906 340.265625 613.148438 349.765625 623.246094 C 359.269531 633.339844 371.144531 638.386719 385.398438 638.386719 C 400.839844 638.386719 413.90625 633.933594 424.59375 625.027344 C 435.285156 616.117188 440.628906 603.945312 440.628906 588.503906 Z M 527.929688 360.457031 C 542.179688 340.265625 549.308594 318.886719 549.308594 296.316406 C 549.308594 257.121094 534.460938 226.242188 504.765625 203.675781 C 476.261719 182.292969 439.441406 171.605469 394.308594 171.605469 C 361.050781 171.605469 333.136719 179.324219 310.570312 194.765625 C 277.3125 217.332031 260.6875 257.714844 260.6875 315.914062 L 347.984375 315.914062 C 347.984375 290.972656 350.359375 274.9375 355.113281 267.8125 C 365.800781 249.996094 381.242188 241.089844 401.433594 241.089844 C 421.625 241.089844 436.472656 247.621094 445.972656 260.6875 C 455.476562 273.75 460.226562 287.410156 460.226562 301.664062 C 460.226562 311.164062 455.476562 323.042969 445.972656 337.296875 C 443.597656 342.046875 437.660156 347.984375 428.15625 355.113281 C 397.277344 372.925781 376.492188 390.742188 365.800781 408.558594 C 356.300781 424 350.359375 448.347656 347.984375 481.605469 C 347.984375 486.355469 350.359375 488.734375 355.113281 488.734375 L 424.59375 488.734375 C 430.53125 488.734375 433.503906 486.355469 433.503906 481.605469 C 433.503906 468.539062 434.691406 457.257812 437.066406 447.753906 C 440.628906 437.066406 447.753906 426.96875 458.445312 417.46875 L 483.386719 401.433594 C 505.953125 384.804688 520.800781 371.144531 527.929688 360.457031 Z M 527.929688 360.457031 " fill-opacity="1" fill-rule="nonzero"/></g><g clip-path="url(#77cf4df4a6)"><path fill="#a6a6a6" d="M 522.75 522.75 L 526.5 522.75 L 526.5 526.5 L 522.75 526.5 Z M 522.75 522.75 " fill-opacity="1" fill-rule="nonzero"/></g></svg>