<svg xmlns="http://www.w3.org/2000/svg" xmlns:xlink="http://www.w3.org/1999/xlink" width="1080" zoomAndPan="magnify" viewBox="0 0 810 809.999993" height="1080" preserveAspectRatio="xMidYMid meet" version="1.0"><defs><clipPath id="5a488eed65"><path d="M 196.933594 459.566406 L 213.421875 459.566406 L 213.421875 467.8125 L 196.933594 467.8125 Z M 196.933594 459.566406 " clip-rule="nonzero"/></clipPath><clipPath id="05177c2132"><path d="M 209.300781 459.566406 L 196.933594 459.566406 L 196.933594 467.8125 L 209.300781 467.8125 L 213.421875 463.6875 Z M 209.300781 459.566406 " clip-rule="nonzero"/></clipPath><clipPath id="d450ac6191"><path d="M 83.148438 12 L 726.648438 12 L 726.648438 798 L 83.148438 798 Z M 83.148438 12 " clip-rule="nonzero"/></clipPath></defs><g clip-path="url(#5a488eed65)"><g clip-path="url(#05177c2132)"><path fill="#9f9f9f" d="M 196.933594 459.566406 L 213.421875 459.566406 L 213.421875 467.8125 L 196.933594 467.8125 Z M 196.933594 459.566406 " fill-opacity="1" fill-rule="nonzero"/></g></g><g clip-path="url(#d450ac6191)"><path fill="#ffffff" d="M 118.882812 202.84375 L 690.988281 202.84375 L 626.648438 739.898438 C 622.726562 772.835938 591.652344 797.597656 554.296875 797.597656 L 255.589844 797.597656 C 218.210938 797.597656 187.148438 772.835938 183.210938 739.898438 Z M 134.75 72.109375 L 304.257812 72.109375 L 304.257812 51.683594 C 304.257812 40.824219 308.699219 30.957031 315.828125 23.820312 C 322.96875 16.679688 332.808594 12.261719 343.6875 12.261719 L 466.195312 12.261719 C 477.054688 12.261719 486.910156 16.679688 494.039062 23.820312 C 501.1875 30.957031 505.613281 40.824219 505.613281 51.683594 L 505.613281 72.109375 L 675.128906 72.109375 C 689.273438 72.109375 702.164062 77.929688 711.5 87.253906 L 711.546875 87.289062 L 711.578125 87.253906 C 720.914062 96.601562 726.714844 109.507812 726.714844 123.707031 L 726.714844 157.613281 C 726.714844 167.402344 718.78125 175.332031 709.011719 175.332031 L 100.847656 175.332031 C 91.074219 175.332031 83.148438 167.402344 83.148438 157.613281 L 83.148438 123.707031 C 83.148438 109.507812 88.933594 96.601562 98.28125 87.253906 C 98.679688 86.835938 99.085938 86.46875 99.515625 86.113281 C 108.753906 77.453125 121.164062 72.109375 134.75 72.109375 Z M 339.671875 72.109375 L 470.203125 72.109375 L 470.203125 51.683594 C 470.203125 50.613281 469.726562 49.605469 469.019531 48.867188 C 468.28125 48.144531 467.253906 47.683594 466.195312 47.683594 L 343.6875 47.683594 C 342.617188 47.683594 341.59375 48.144531 340.875 48.867188 C 340.136719 49.605469 339.671875 50.613281 339.671875 51.683594 Z M 379.957031 265.777344 C 379.957031 250.917969 393.546875 238.894531 410.285156 238.894531 C 427.035156 238.894531 440.625 250.917969 440.625 265.777344 L 440.625 734.683594 C 440.625 749.527344 427.035156 761.542969 410.285156 761.542969 C 393.546875 761.542969 379.957031 749.527344 379.957031 734.683594 Z M 229.089844 267.132812 C 228.25 252.339844 241.074219 239.746094 257.757812 239.007812 C 274.425781 238.238281 288.660156 249.609375 289.496094 264.40625 L 317.570312 733.296875 C 318.40625 748.082031 305.582031 760.703125 288.898438 761.4375 C 272.242188 762.183594 258.003906 750.800781 257.164062 736.023438 Z M 531.082031 264.40625 C 531.925781 249.609375 546.148438 238.238281 562.839844 239.007812 C 579.5 239.746094 592.320312 252.339844 591.492188 267.132812 L 563.410156 736.023438 C 562.570312 750.800781 548.332031 762.183594 531.675781 761.4375 C 514.996094 760.703125 502.164062 748.082031 502.992188 733.296875 Z M 531.082031 264.40625 " fill-opacity="1" fill-rule="evenodd"/></g></svg>