<svg xmlns="http://www.w3.org/2000/svg"
     xmlns:xlink="http://www.w3.org/1999/xlink"
     width="1080"
     height="1080"
     viewBox="0 0 810 809.999993"
     preserveAspectRatio="xMidYMid meet"
     version="1.0">

  <defs>
    <!-- Seu gradiente champanhe → ouro em 120° -->
    <linearGradient
      id="logo-gradient"
      gradientUnits="objectBoundingBox"
      x1="0%" y1="0%" x2="100%" y2="0%"
      gradientTransform="rotate(120)">
      <stop offset="0%"   stop-color="#F7E7CE"/>
      <stop offset="100%" stop-color="#D4AF37"/>
    </linearGradient>

    <clipPath id="130370fadb">
      <path d="M 169.273438 292.9375 L 173.023438 292.9375 L 173.023438 296.6875 L 169.273438 296.6875 Z M 169.273438 292.9375"
            clip-rule="nonzero"/>
    </clipPath>
  </defs>

  <path fill="url(#logo-gradient)"
        d="M 417.371094 793.929688 L 742.144531 620.117188 L 405.375 438.691406 L 71.84375 622.023438 L 393.003906 793.355469 C 394.84375 794.433594 396.789062 795.265625 398.839844 795.847656 C 400.890625 796.429688 402.980469 796.746094 405.113281 796.792969 C 407.242188 796.84375 409.347656 796.628906 411.421875 796.140625 C 413.5 795.65625 415.480469 794.917969 417.371094 793.929688 Z M 417.371094 793.929688"
        fill-opacity="1" fill-rule="nonzero"/>

  <path fill="url(#logo-gradient)"
        d="M 52.234375 187.972656 C 51.214844 188.515625 50.234375 189.125 49.296875 189.804688 C 48.359375 190.480469 47.46875 191.21875 46.632812 192.015625 C 45.796875 192.8125 45.015625 193.664062 44.292969 194.570312 C 43.570312 195.472656 42.914062 196.421875 42.320312 197.417969 C 41.726562 198.410156 41.207031 199.4375 40.753906 200.503906 C 40.300781 201.566406 39.921875 202.660156 39.617188 203.773438 C 39.3125 204.890625 39.085938 206.023438 38.933594 207.167969 C 38.785156 208.316406 38.710938 209.46875 38.71875 210.625 L 38.71875 581.472656 L 379.296875 394.144531 L 379.296875 13.398438 Z M 52.234375 187.972656"
        fill-opacity="1" fill-rule="nonzero"/>

  <path fill="url(#logo-gradient)"
        d="M 405.1875 409.375 L 405.375 409.566406 L 405.375 409.375 Z M 405.1875 409.375"
        fill-opacity="1" fill-rule="nonzero"/>

  <path fill="url(#logo-gradient)"
        d="M 771.84375 211.386719 C 771.847656 210.222656 771.777344 209.066406 771.625 207.914062 C 771.472656 206.761719 771.246094 205.621094 770.941406 204.5 C 770.636719 203.378906 770.257812 202.28125 769.804688 201.210938 C 769.351562 200.136719 768.828125 199.101562 768.238281 198.101562 C 767.644531 197.101562 766.988281 196.144531 766.265625 195.230469 C 765.546875 194.320312 764.765625 193.457031 763.929688 192.652344 C 763.09375 191.84375 762.203125 191.097656 761.265625 190.410156 C 760.328125 189.71875 759.347656 189.097656 758.328125 188.542969 L 430.886719 13.398438 L 430.886719 394.144531 L 771.84375 577.855469 Z M 771.84375 211.386719"
        fill-opacity="1" fill-rule="nonzero"/>

  <g clip-path="url(#130370fadb)">
    <path fill="url(#logo-gradient)"
          d="M 169.273438 292.9375 L 173.023438 292.9375 L 173.023438 296.6875 L 169.273438 296.6875 Z M 169.273438 292.9375"
          fill-opacity="1" fill-rule="nonzero"/>
  </g>
</svg>
