<svg width="533" height="69" viewBox="0 0 533 69" fill="none" xmlns="http://www.w3.org/2000/svg">
<path d="M113.872 65.0048L115.517 60.3985L117.162 65.0048H113.872ZM116.81 58.7534C116.81 58.7534 116.716 58.5654 116.645 58.4949C116.575 58.4244 116.457 58.3774 116.316 58.3774H114.741C114.6 58.3774 114.483 58.4244 114.412 58.4949C114.342 58.5654 114.271 58.6594 114.248 58.7534L110.769 68.3655C110.769 68.3655 110.746 68.4595 110.746 68.5065C110.746 68.6005 110.769 68.671 110.84 68.7415C110.91 68.812 110.981 68.8355 111.051 68.8355H112.321C112.462 68.8355 112.556 68.812 112.626 68.7415C112.697 68.671 112.72 68.624 112.744 68.5535L113.425 66.7439H117.726L118.408 68.5535C118.408 68.5535 118.478 68.671 118.525 68.7415C118.596 68.812 118.69 68.8355 118.831 68.8355H120.1C120.1 68.8355 120.241 68.812 120.312 68.7415C120.359 68.671 120.406 68.6005 120.406 68.5065C120.406 68.4595 120.406 68.4125 120.406 68.3655L116.927 58.7534H116.81Z" fill="white"/>
<path d="M155.496 63.9237C155.496 64.1587 155.496 64.4172 155.496 64.6993C155.496 65.2868 155.402 65.7333 155.237 66.0858C155.073 66.4384 154.837 66.6969 154.485 66.8614C154.156 67.0259 153.709 67.0964 153.169 67.0964H151.312V60.093H153.098C153.921 60.093 154.508 60.281 154.884 60.6805C155.261 61.0565 155.449 61.6676 155.472 62.4901C155.472 62.7721 155.472 63.0307 155.472 63.2657C155.472 63.5007 155.472 63.7122 155.472 63.9472L155.496 63.9237ZM157 60.234C156.671 59.623 156.201 59.1764 155.566 58.8709C154.931 58.5654 154.132 58.4009 153.169 58.4009H149.643C149.643 58.4009 149.455 58.4244 149.408 58.4949C149.338 58.5654 149.314 58.6594 149.314 58.7534V68.4595C149.314 68.4595 149.338 68.6475 149.408 68.718C149.479 68.7885 149.549 68.812 149.643 68.812H153.239C154.203 68.812 155.002 68.671 155.613 68.3655C156.224 68.0835 156.694 67.6369 157 67.0259C157.305 66.4149 157.47 65.6628 157.493 64.7463C157.493 64.3232 157.517 63.9472 157.517 63.5947C157.517 63.2422 157.517 62.8661 157.493 62.4431C157.493 61.5736 157.329 60.8215 157 60.2105V60.234Z" fill="white"/>
<path d="M194.228 58.4009C194.087 58.4009 193.993 58.4479 193.923 58.5184C193.852 58.5889 193.805 58.6594 193.782 58.7299L191.361 66.4149L188.917 58.7299C188.917 58.7299 188.846 58.5889 188.776 58.5184C188.705 58.4479 188.611 58.4009 188.47 58.4009H187.201C187.201 58.4009 187.037 58.4244 186.989 58.4949C186.942 58.5654 186.895 58.6359 186.895 58.7299C186.895 58.7769 186.895 58.8239 186.919 58.8709L190.021 68.436C190.068 68.5535 190.115 68.6475 190.209 68.7415C190.303 68.812 190.421 68.859 190.562 68.859H192.16C192.325 68.859 192.442 68.812 192.513 68.7415C192.607 68.671 192.654 68.5535 192.701 68.436L195.803 58.8709C195.803 58.8709 195.827 58.7769 195.827 58.7299C195.827 58.6359 195.803 58.5654 195.733 58.4949C195.662 58.4244 195.592 58.4009 195.521 58.4009H194.228Z" fill="white"/>
<path d="M231.387 64.8168C231.363 65.6863 231.152 66.2973 230.752 66.6969C230.352 67.0729 229.835 67.2609 229.224 67.2609C228.613 67.2609 228.096 67.0729 227.697 66.6969C227.297 66.3208 227.086 65.6863 227.062 64.8168C227.062 64.3702 227.062 63.9707 227.062 63.5947C227.062 63.2187 227.062 62.8191 227.062 62.3961C227.062 61.8321 227.18 61.3621 227.368 60.986C227.556 60.6335 227.814 60.3515 228.12 60.187C228.425 60.0225 228.801 59.952 229.201 59.952C229.6 59.952 229.976 60.0225 230.305 60.187C230.635 60.3515 230.87 60.61 231.058 60.986C231.246 61.3386 231.34 61.8086 231.363 62.3961C231.363 62.8191 231.387 63.2187 231.387 63.5947C231.387 63.9707 231.387 64.3702 231.363 64.8168H231.387ZM232.891 60.0695C232.538 59.4585 232.045 59.0119 231.41 58.7064C230.776 58.4009 230.047 58.2364 229.224 58.2364C228.402 58.2364 227.673 58.4009 227.039 58.7064C226.427 59.0119 225.934 59.482 225.581 60.0695C225.229 60.6805 225.041 61.4326 224.994 62.3256C224.994 62.7721 224.994 63.1952 224.994 63.6182C224.994 64.0412 224.994 64.4642 224.994 64.8873C225.017 65.8038 225.205 66.5559 225.558 67.1669C225.91 67.7779 226.38 68.2245 227.015 68.53C227.626 68.812 228.378 68.9765 229.224 68.9765C230.07 68.9765 230.823 68.8355 231.434 68.53C232.045 68.248 232.538 67.7779 232.891 67.1669C233.243 66.5559 233.431 65.8038 233.455 64.8873C233.455 64.4642 233.478 64.0412 233.478 63.6182C233.478 63.1952 233.478 62.7721 233.455 62.3256C233.431 61.4326 233.243 60.657 232.867 60.0695H232.891Z" fill="white"/>
<path d="M271.107 62.9837H267.652C267.652 62.9837 267.464 63.0072 267.417 63.0777C267.346 63.1482 267.323 63.2422 267.323 63.3362V64.1352C267.323 64.1352 267.346 64.3232 267.417 64.3937C267.487 64.4642 267.558 64.4877 267.652 64.4877H269.414V64.9578C269.414 65.4748 269.32 65.9213 269.109 66.2503C268.921 66.5794 268.639 66.8379 268.31 67.0024C267.957 67.1669 267.581 67.2374 267.135 67.2374C266.477 67.2374 265.959 67.0494 265.56 66.6969C265.16 66.3208 264.949 65.7333 264.925 64.8873C264.902 63.9942 264.902 63.1247 264.925 62.2551C264.949 61.4326 265.16 60.845 265.56 60.4925C265.959 60.14 266.477 59.952 267.135 59.952C267.581 59.952 267.934 60.0225 268.216 60.1635C268.498 60.3045 268.709 60.469 268.874 60.6805C269.038 60.892 269.156 61.08 269.226 61.2916C269.273 61.3621 269.297 61.4326 269.367 61.4796C269.414 61.5266 269.485 61.5501 269.579 61.5501H271.06C271.06 61.5501 271.224 61.5266 271.295 61.4561C271.342 61.3856 271.365 61.3151 271.365 61.2211C271.365 60.9155 271.271 60.61 271.083 60.2575C270.895 59.905 270.637 59.576 270.284 59.2704C269.931 58.9649 269.485 58.7299 268.968 58.5184C268.427 58.3304 267.816 58.2364 267.111 58.2364C266.241 58.2364 265.489 58.4009 264.855 58.7064C264.22 59.0354 263.727 59.482 263.398 60.0695C263.045 60.657 262.881 61.3621 262.834 62.1846C262.834 62.6311 262.834 63.0777 262.834 63.5712C262.834 64.0647 262.834 64.5347 262.834 64.9578C262.857 65.8038 263.045 66.5089 263.398 67.1199C263.75 67.7309 264.22 68.1775 264.855 68.5065C265.466 68.8355 266.241 68.9765 267.111 68.9765C267.981 68.9765 268.756 68.812 269.414 68.483C270.072 68.154 270.566 67.6839 270.919 67.0729C271.271 66.4619 271.436 65.7568 271.436 64.9108V63.3362C271.436 63.3362 271.412 63.1482 271.342 63.0777C271.271 63.0072 271.201 62.9837 271.083 62.9837H271.107Z" fill="white"/>
<path d="M303.423 65.0048L305.068 60.3985L306.714 65.0048H303.423ZM306.361 58.7534C306.361 58.7534 306.267 58.5654 306.197 58.4949C306.126 58.4244 306.008 58.3774 305.867 58.3774H304.293C304.152 58.3774 304.034 58.4244 303.964 58.4949C303.893 58.5654 303.823 58.6594 303.799 58.7534L300.321 68.3655C300.321 68.3655 300.297 68.4595 300.297 68.5065C300.297 68.6005 300.321 68.671 300.391 68.7415C300.462 68.812 300.532 68.8355 300.603 68.8355H301.872C302.013 68.8355 302.107 68.812 302.178 68.7415C302.248 68.671 302.271 68.624 302.295 68.5535L302.977 66.7439H307.278L307.959 68.5535C307.959 68.5535 308.03 68.671 308.077 68.7415C308.147 68.812 308.241 68.8355 308.382 68.8355H309.651C309.651 68.8355 309.792 68.812 309.863 68.7415C309.91 68.671 309.957 68.6005 309.957 68.5065C309.957 68.4595 309.957 68.4125 309.957 68.3655L306.479 58.7534H306.361Z" fill="white"/>
<path d="M345.047 63.9237C345.047 64.1587 345.047 64.4172 345.047 64.6993C345.047 65.2868 344.953 65.7333 344.788 66.0858C344.624 66.4384 344.389 66.6969 344.036 66.8614C343.707 67.0259 343.261 67.0964 342.72 67.0964H340.863V60.093H342.65C343.472 60.093 344.06 60.281 344.436 60.6805C344.812 61.0565 345 61.6676 345.023 62.4901C345.023 62.7721 345.023 63.0307 345.023 63.2657C345.023 63.5007 345.023 63.7122 345.023 63.9472L345.047 63.9237ZM346.551 60.234C346.222 59.623 345.752 59.1764 345.117 58.8709C344.483 58.5654 343.684 58.4009 342.72 58.4009H339.195C339.195 58.4009 339.007 58.4244 338.96 58.4949C338.889 58.5654 338.866 58.6594 338.866 58.7534V68.4595C338.866 68.4595 338.889 68.6475 338.96 68.718C339.03 68.7885 339.101 68.812 339.195 68.812H342.791C343.754 68.812 344.553 68.671 345.164 68.3655C345.775 68.0835 346.246 67.6369 346.551 67.0259C346.857 66.4149 347.021 65.6628 347.045 64.7463C347.045 64.3232 347.068 63.9472 347.068 63.5947C347.068 63.2422 347.068 62.8661 347.045 62.4431C347.045 61.5736 346.88 60.8215 346.551 60.2105V60.234Z" fill="white"/>
<path d="M383.028 64.8168C383.004 65.6863 382.793 66.2973 382.393 66.6969C381.994 67.0729 381.477 67.2609 380.865 67.2609C380.254 67.2609 379.737 67.0729 379.338 66.6969C378.938 66.3208 378.727 65.6863 378.703 64.8168C378.703 64.3702 378.703 63.9707 378.703 63.5947C378.703 63.2187 378.703 62.8191 378.703 62.3961C378.703 61.8321 378.821 61.3621 379.009 60.986C379.197 60.6335 379.455 60.3515 379.761 60.187C380.09 60.0225 380.442 59.952 380.842 59.952C381.241 59.952 381.617 60.0225 381.947 60.187C382.276 60.3515 382.511 60.61 382.699 60.986C382.887 61.3386 382.981 61.8086 383.004 62.3961C383.004 62.8191 383.028 63.2187 383.028 63.5947C383.028 63.9707 383.028 64.3702 383.004 64.8168H383.028ZM384.508 60.0695C384.156 59.4585 383.662 59.0119 383.028 58.7064C382.393 58.4009 381.664 58.2364 380.842 58.2364C380.019 58.2364 379.291 58.4009 378.656 58.7064C378.045 59.0119 377.552 59.482 377.199 60.0695C376.846 60.6805 376.658 61.4326 376.611 62.3256C376.611 62.7721 376.611 63.1952 376.611 63.6182C376.611 64.0412 376.611 64.4642 376.611 64.8873C376.635 65.8038 376.823 66.5559 377.175 67.1669C377.528 67.7779 377.998 68.2245 378.633 68.53C379.244 68.812 379.996 68.9765 380.842 68.9765C381.688 68.9765 382.44 68.8355 383.051 68.53C383.662 68.248 384.156 67.7779 384.508 67.1669C384.861 66.5559 385.049 65.8038 385.072 64.8873C385.072 64.4642 385.096 64.0412 385.096 63.6182C385.096 63.1952 385.096 62.7721 385.072 62.3256C385.049 61.4326 384.861 60.657 384.485 60.0695H384.508Z" fill="white"/>
<path d="M421.384 63.4537C420.867 63.1952 420.186 62.9837 419.363 62.7956C418.776 62.6311 418.329 62.4901 417.977 62.3491C417.624 62.2081 417.365 62.0436 417.201 61.8556C417.036 61.6676 416.966 61.4326 416.966 61.174C416.966 60.751 417.13 60.4455 417.436 60.2575C417.765 60.0695 418.165 59.952 418.705 59.952C419.246 59.952 419.622 60.0695 419.927 60.281C420.256 60.4925 420.444 60.751 420.491 61.08C420.538 61.1975 420.609 61.2681 420.679 61.3151C420.75 61.3621 420.844 61.3856 420.914 61.3856H422.254C422.254 61.3856 422.419 61.3621 422.489 61.2916C422.536 61.2211 422.56 61.1505 422.56 61.08C422.56 60.7745 422.466 60.4455 422.301 60.14C422.137 59.8345 421.878 59.5055 421.572 59.2234C421.243 58.9414 420.844 58.7064 420.374 58.5419C419.88 58.3774 419.34 58.2834 418.705 58.2834C417.93 58.2834 417.248 58.4244 416.684 58.6829C416.12 58.9414 415.697 59.2939 415.391 59.7405C415.086 60.187 414.945 60.704 414.945 61.268C414.945 61.8321 415.062 62.3491 415.321 62.7486C415.556 63.1482 415.932 63.4537 416.425 63.7122C416.919 63.9707 417.506 64.1822 418.235 64.3702C418.87 64.5347 419.363 64.6758 419.739 64.8168C420.115 64.9578 420.397 65.1223 420.585 65.2868C420.773 65.4513 420.867 65.6863 420.867 65.9683C420.867 66.3678 420.703 66.6969 420.35 66.9319C419.998 67.1669 419.481 67.2844 418.799 67.2844C418.376 67.2844 418 67.2139 417.718 67.0964C417.436 66.9789 417.201 66.8144 417.036 66.6499C416.872 66.4619 416.754 66.2738 416.707 66.0858C416.66 66.0153 416.613 65.9448 416.543 65.8743C416.472 65.8273 416.378 65.8038 416.261 65.8038H414.968C414.968 65.8038 414.804 65.8273 414.757 65.8978C414.71 65.9683 414.663 66.0388 414.663 66.1328C414.663 66.6264 414.851 67.0729 415.156 67.5194C415.462 67.9659 415.932 68.3185 416.519 68.6005C417.13 68.8825 417.883 69 418.776 69C419.598 69 420.303 68.8825 420.938 68.624C421.549 68.3655 422.043 68.0129 422.372 67.5664C422.724 67.0964 422.889 66.5559 422.889 65.8978C422.889 65.3103 422.771 64.8168 422.536 64.4407C422.301 64.0647 421.925 63.7357 421.384 63.5007V63.4537Z" fill="white"/>
<path d="M55.1144 34.9465C53.8453 33.2309 52.8346 31.1393 52.1061 28.7187C51.3775 26.2745 51.0014 23.7129 51.0014 21.1042C51.0014 16.1454 52.5056 12.0092 55.514 8.81301C58.4518 5.66383 62.1653 4.11274 66.8659 4.11274C69.4747 4.11274 71.778 4.70027 73.9168 5.82834C76.1731 7.02691 78.1708 8.74251 79.8395 10.9281C81.1792 12.7142 82.2133 14.7354 82.8949 16.9445C83.5765 19.1536 83.929 21.6213 83.929 24.2299C83.929 29.4707 82.4249 33.748 79.487 36.9911C76.5256 40.2578 72.8122 41.8324 68.1351 41.8324C65.6438 41.8324 63.2465 41.2214 60.9667 40.0228C58.6869 38.8242 56.7126 37.1087 55.1379 34.9465H55.1144ZM84.7517 5.66383C82.5189 3.83072 79.91 2.39714 76.9957 1.43358C74.1518 0.470026 71.1434 0.0470038 67.7825 0.0470038C64.2571 0.0470038 61.1547 0.517031 58.2873 1.59809C55.373 2.67916 52.7171 4.30075 50.4373 6.41587C47.946 8.6485 45.9953 11.3042 44.6321 14.3123C43.2689 17.3205 42.5874 20.4932 42.5874 23.7364C42.5874 26.9796 43.2689 30.0112 44.6321 32.8549C45.9718 35.6986 47.946 38.2132 50.4608 40.3283C52.6466 42.1379 55.2084 43.548 58.0993 44.5351C60.9667 45.4986 64.0691 45.9922 67.289 45.9922C70.6969 45.9922 73.8463 45.4751 76.6901 44.4411C79.534 43.407 82.1663 41.8324 84.5401 39.7408C87.102 37.4847 89.0997 34.8055 90.4629 31.7973C91.8496 28.7892 92.5311 25.5695 92.5311 22.2793C92.5311 18.9891 91.8496 15.9104 90.5334 13.0668C89.1937 10.2231 87.2665 7.73195 84.7517 5.68733V5.66383Z" fill="white"/>
<path d="M178.293 4.08924H180.056C181.631 4.08924 182.735 4.37125 183.347 4.95879C183.934 5.49932 184.24 6.50988 184.24 7.91996L184.146 20.9162H160.478L160.572 7.91996C160.572 6.50988 160.878 5.52282 161.465 4.95879C162.076 4.39475 163.181 4.08924 164.756 4.08924H166.518V0.0470038H146.588V4.08924H148.351C149.925 4.08924 151.03 4.37125 151.641 4.95879C152.182 5.45232 152.534 6.43937 152.534 8.53099V38.6362C152.417 39.9993 152.088 40.7044 151.641 41.1039C151.03 41.6679 149.902 41.8324 148.351 41.8324H146.588V45.9922H166.518V41.8324H164.756C163.181 41.8324 162.053 41.6679 161.442 41.1039C160.854 40.5634 160.572 39.4823 160.572 38.0722V25.0054H184.24V38.0722C184.24 39.4588 183.934 40.5634 183.37 41.1039C182.782 41.6679 181.631 41.8324 180.056 41.8324H178.293V45.9922H198.153V41.8324H196.391C194.839 41.8324 193.711 41.6679 193.124 41.1039C192.701 40.7044 192.372 40.0228 192.254 38.6362L192.184 8.5545C192.184 6.43937 192.536 5.47582 193.077 4.98229C193.688 4.41826 194.793 4.11274 196.367 4.11274H198.13V0.0705035H178.27V4.11274L178.293 4.08924Z" fill="white"/>
<path d="M28.7911 12.5262C28.7911 21.4332 17.1572 20.9397 17.1572 20.9397H13.8432V4.13624H17.1572C17.1572 4.13624 28.7911 3.59571 28.7911 12.5027V12.5262ZM28.7441 24.8879C28.7441 24.8879 36.7586 20.9397 36.7586 12.5262C36.7586 -0.963556 17.0866 0.0470029 17.0866 0.0470029H0V4.11274H1.76272C3.31392 4.11274 4.41856 4.41825 5.02963 4.98229C5.64071 5.54632 5.94625 6.53338 5.94625 7.91996V36.0746C5.94625 38.0957 5.45269 40.5633 5.05314 40.9629C4.44206 41.5269 3.31392 41.8089 1.76272 41.8089H0V45.9922H19.9305V41.8089H17.9563C16.4991 41.8089 15.4649 41.5269 14.8774 40.9629C14.5013 40.5398 14.0078 38.0957 14.0078 36.0746V25.0054H20.5886C20.8001 25.2875 22.0928 27.6846 22.5863 28.6012C23.0799 29.5177 23.7145 30.6458 24.4666 31.9149C24.9836 32.7844 25.4772 33.7245 25.9943 34.641C27.1929 36.8266 28.4151 39.0593 29.6607 40.5868C31.1884 42.373 32.9276 43.736 34.8549 44.6526C36.7351 45.5456 38.8034 45.9922 41.1772 45.9922H42.6579V41.8324H41.6707C33.9853 41.8324 28.8146 24.8879 28.8146 24.8879H28.7441Z" fill="white"/>
<path d="M123.391 41.9029C118.596 41.9029 114.835 40.5164 112.203 37.7902C107.832 33.2544 107.62 26.1335 107.714 23.2899C107.714 23.1723 107.714 23.1018 107.714 23.0548V22.9843C107.714 22.9843 107.714 22.8668 107.714 22.7493C107.597 19.9057 107.832 12.7847 112.203 8.24898C114.835 5.52282 118.596 4.13624 123.391 4.13624C136.858 4.13624 136.858 14.5003 136.858 14.5003H140.9V0.0705035H138.879C138.879 0.0705035 139.067 2.06812 136.858 2.06812C132.815 2.06812 130.042 0.0235019 122.779 0.0235019C98.7359 0.0235019 98.4069 21.8328 98.4069 22.7493C98.4069 22.8668 98.4069 22.9608 98.4069 23.0078C98.4069 23.0548 98.4069 23.1488 98.4069 23.2664C98.4069 24.2064 98.7359 45.9922 122.779 45.9922C130.042 45.9922 132.839 43.9476 136.858 43.9476C139.067 43.9476 138.879 45.9687 138.879 45.9687H140.9V31.5153H136.858C136.858 31.5153 136.858 41.8794 123.391 41.8794V41.9029Z" fill="white"/>
<path d="M226.333 10.3641L230.376 20.9162H222.267L226.333 10.3641ZM247.651 41.8324C247.04 41.8324 246.499 41.5739 246.287 41.0099L230.634 0.0705035H222.455L223.043 1.6216C223.137 1.7861 223.184 1.97411 223.231 2.13862C223.278 2.35014 223.302 2.46764 223.302 2.51464C223.302 2.74966 223.255 3.03168 223.161 3.3607C223.067 3.73672 222.902 4.18324 222.69 4.72377L208.824 41.0334C208.612 41.5974 208.072 41.8559 207.461 41.8559H204.1V46.0157H221.092V41.8559H216.486C215.475 41.8559 214.77 40.9629 215.123 39.9993L220.669 25.029H231.927L237.615 39.9758C237.967 40.9394 237.262 41.8324 236.252 41.8324H230.587V45.9922H250.541V41.8324H247.651Z" fill="white"/>
<path d="M311.226 12.5262C311.226 21.4332 299.592 20.9397 299.592 20.9397H296.278V4.13624H299.592C299.592 4.13624 311.226 3.59571 311.226 12.5027V12.5262ZM311.179 24.8879C311.179 24.8879 319.194 20.9397 319.194 12.5262C319.194 -0.963556 299.522 0.0470029 299.522 0.0470029H282.435V4.18324H284.198C285.749 4.18324 286.854 4.48876 287.465 5.05279C288.076 5.61683 288.381 6.60388 288.381 7.99046V36.0981C288.381 38.1192 287.888 40.5869 287.488 40.9864C286.877 41.5504 285.749 41.8324 284.198 41.8324H282.435V46.0157H302.366V41.8324H300.391C298.934 41.8324 297.9 41.5504 297.289 40.9864C296.913 40.5633 296.419 38.1192 296.419 36.0981V25.029H303C303.212 25.311 304.504 27.7081 304.998 28.6247C305.491 29.5412 306.126 30.6693 306.878 31.9383C307.395 32.8079 307.889 33.748 308.406 34.6645C309.604 36.8501 310.827 39.0828 312.072 40.6104C313.6 42.3965 315.339 43.7595 317.266 44.6761C319.147 45.5691 321.191 46.0157 323.589 46.0157H325.069V41.9734L324.082 41.8794C316.397 41.8794 311.226 24.9349 311.226 24.9349L311.179 24.8879Z" fill="white"/>
<path d="M337.549 34.9465C336.28 33.2309 335.27 31.1393 334.541 28.7187C333.812 26.2745 333.436 23.7129 333.436 21.1042C333.436 16.1454 334.941 12.0092 337.949 8.81301C340.887 5.66383 344.6 4.13624 349.301 4.13624C351.91 4.13624 354.213 4.67677 356.352 5.82834C358.608 7.02691 360.606 8.74251 362.275 10.9281C363.614 12.7142 364.648 14.7354 365.33 16.9445C366.012 19.1536 366.364 21.6213 366.364 24.2299C366.364 29.4707 364.86 33.748 361.922 36.9911C358.961 40.2578 355.247 41.8324 350.57 41.8324C348.079 41.8324 345.681 41.2214 343.402 40.0228C341.122 38.8243 339.148 37.1087 337.573 34.9465H337.549ZM367.21 5.66383C364.977 3.83072 362.369 2.39714 359.454 1.43358C356.61 0.470026 353.602 0.0235019 350.241 0.0235019C346.716 0.0235019 343.613 0.540532 340.746 1.59809C337.831 2.67916 335.176 4.30075 332.896 6.41587C330.405 8.6485 328.454 11.3042 327.091 14.3123C325.727 17.3205 325.046 20.4932 325.046 23.7364C325.046 26.9796 325.727 30.0112 327.091 32.8549C328.43 35.6986 330.405 38.2132 332.919 40.3283C335.105 42.138 337.667 43.548 340.558 44.5351C343.425 45.4986 346.528 45.9922 349.747 45.9922C353.155 45.9922 356.305 45.4751 359.149 44.4411C361.992 43.407 364.625 41.8324 366.999 39.7408C369.56 37.4847 371.558 34.8055 372.921 31.7973C374.308 28.7892 374.99 25.5695 374.99 22.2793C374.99 18.9891 374.308 15.9104 372.992 13.0668C371.652 10.2231 369.725 7.73195 367.21 5.68733V5.66383Z" fill="white"/>
<path d="M460.728 4.08924H462.491C464.066 4.08924 465.17 4.37125 465.782 4.95879C466.369 5.49932 466.675 6.50988 466.675 7.91996L466.581 20.9162H442.913L443.007 7.91996C443.007 6.50988 443.313 5.52282 443.9 4.95879C444.511 4.39475 445.616 4.08924 447.191 4.08924H448.953V0.0470038H429.023V4.08924H430.786C432.36 4.08924 433.465 4.37125 434.076 4.95879C434.617 5.45232 434.969 6.43937 434.969 8.53099V38.6362C434.852 39.9993 434.523 40.7044 434.076 41.1039C433.465 41.6679 432.337 41.9499 430.786 41.9499H429.023V45.9922H448.953V41.9499H447.191C445.616 41.9499 444.488 41.6679 443.877 41.1039C443.289 40.5634 443.007 39.4823 443.007 38.0722V25.0054H466.675V38.0722C466.675 39.4588 466.369 40.5634 465.805 41.1039C465.218 41.6679 464.066 41.9499 462.491 41.9499H460.728V45.9922H480.588V41.9499H478.826C477.275 41.9499 476.146 41.6679 475.582 41.1039C475.159 40.7044 474.83 40.0228 474.713 38.6362L474.642 8.5545C474.642 6.43937 474.995 5.47582 475.535 4.98229C476.146 4.41826 477.251 4.11274 478.826 4.11274H480.588V0.0705035H460.728V4.11274V4.08924Z" fill="white"/>
<path d="M405.826 41.9029C401.031 41.9029 397.27 40.5164 394.638 37.7902C390.267 33.2544 390.055 26.1335 390.149 23.2899C390.149 23.1723 390.149 23.1018 390.149 23.0548V22.9843C390.149 22.9843 390.149 22.8668 390.149 22.7493C390.032 19.9057 390.267 12.7847 394.638 8.24898C397.27 5.52282 401.031 4.13624 405.826 4.13624C419.293 4.13624 419.293 14.5003 419.293 14.5003H423.335V0.0235019L421.314 0.0470038C421.314 0.0470038 421.502 2.04462 419.293 2.04462C415.25 2.04462 412.477 0 405.214 0C381.171 0 380.842 21.8093 380.842 22.7258C380.842 22.8433 380.842 22.9373 380.842 22.9843C380.842 23.0313 380.842 23.1253 380.842 23.2428C380.842 24.1829 381.171 45.9687 405.214 45.9687C412.477 45.9687 415.274 43.924 419.293 43.924C421.502 43.924 421.314 45.9217 421.314 45.9217H423.335V31.4918H419.293C419.293 31.4918 419.293 41.8559 405.826 41.8559V41.9029Z" fill="white"/>
<path d="M508.768 10.3641L512.834 20.8927H504.726L508.768 10.3641ZM530.086 41.9264C529.475 41.9264 528.934 41.5504 528.723 40.9864L513.07 0.0235019H504.891L505.502 1.59809C505.596 1.7626 505.643 1.95061 505.69 2.11512C505.737 2.32664 505.76 2.44414 505.76 2.49115C505.76 2.72616 505.713 3.00817 505.619 3.33719C505.525 3.71322 505.361 4.15974 505.149 4.70027L491.282 41.0099C491.071 41.5739 490.53 41.9499 489.919 41.9499H486.558V45.9922H503.551V41.9264H498.944C497.934 41.9264 497.229 40.9394 497.581 39.9758L503.128 24.982H514.386L520.073 39.9523C520.426 40.9159 519.721 41.9264 518.71 41.9264H513.046V45.9687H533V41.9029H530.109L530.086 41.9264Z" fill="white"/>
<path d="M263.233 34.6645C260.883 34.6645 257.663 33.842 257.663 29.4002C257.663 24.1359 262.269 23.3369 262.269 23.3369L270.331 31.8208C270.331 31.8208 268.357 34.688 263.233 34.688V34.6645ZM260.272 13.4428C260.601 11.9152 262.363 10.7871 264.502 10.7871C266.641 10.7871 268.098 11.3512 268.991 13.0668C270.331 15.6284 265.113 21.2922 263.045 19.2711C260.718 16.968 259.684 16.0279 260.248 13.4663L260.272 13.4428ZM277.546 34.2415L274.797 31.3273C274.491 30.9983 274.35 30.5518 274.421 30.1052C274.75 28.2251 275.596 22.9373 277.57 22.9608C278.04 22.9608 278.698 22.9608 279.309 22.9608V20.9397H273.433C273.363 27.9901 272.305 28.6952 272.305 28.6952L266.43 22.5848C266.1 22.2558 266.194 21.6918 266.594 21.4802C268.968 20.2582 271.953 17.344 271.953 13.9598C271.953 13.1843 271.812 12.4557 271.577 11.7742C271.318 11.0926 270.895 10.4816 270.331 9.96458C269.743 9.44755 269.015 9.02452 268.098 8.74251C267.182 8.43699 266.077 8.29598 264.784 8.29598C263.492 8.29598 262.269 8.43699 261.306 8.71901C260.342 9.00102 259.543 9.40055 258.909 9.91758C258.297 10.4346 257.827 11.0456 257.545 11.7742C257.263 12.4792 257.099 13.3018 257.099 14.1713C257.099 14.8294 257.169 15.4404 257.287 16.0044C257.428 16.5685 257.616 17.1325 257.874 17.673C258.133 18.2136 258.462 18.7776 258.838 19.3181C259.073 19.6471 259.332 19.9997 259.614 20.3287C259.896 20.6812 259.778 21.2217 259.355 21.4097C258.697 21.7153 258.086 22.0208 257.545 22.3733C256.746 22.8668 256.065 23.4074 255.501 24.0419C254.937 24.6764 254.49 25.4285 254.184 26.251C253.879 27.0971 253.714 28.0841 253.714 29.2122C253.714 30.4813 253.902 31.6328 254.302 32.6434C254.702 33.6775 255.289 34.547 256.088 35.299C256.887 36.0276 257.898 36.6151 259.097 37.0146C260.319 37.4142 261.729 37.6257 263.351 37.6257C264.385 37.6257 265.325 37.5317 266.194 37.3202C267.064 37.1087 267.863 36.8501 268.568 36.4976C269.273 36.1451 269.931 35.7221 270.519 35.252C270.919 34.9465 271.271 34.594 271.624 34.265C271.906 33.983 272.376 34.0065 272.658 34.2885L275.878 37.6727H279.262V35.2755C278.393 35.2755 277.687 34.4295 277.499 34.2415H277.546Z" fill="white"/>
</svg>
