<svg xmlns="http://www.w3.org/2000/svg" xmlns:xlink="http://www.w3.org/1999/xlink" width="1080" zoomAndPan="magnify" viewBox="0 0 810 809.999993" height="1080" preserveAspectRatio="xMidYMid meet" version="1.0"><defs><clipPath id="a784096e4f"><path d="M 195.761719 207.402344 L 199.511719 207.402344 L 199.511719 211.152344 L 195.761719 211.152344 Z M 195.761719 207.402344 " clip-rule="nonzero"/></clipPath><clipPath id="1a6f52e63e"><path d="M 31 36 L 780 36 L 780 783.867188 L 31 783.867188 Z M 31 36 " clip-rule="nonzero"/></clipPath></defs><g clip-path="url(#a784096e4f)"><path fill="#222222" d="M 195.761719 207.402344 L 199.511719 207.402344 L 199.511719 211.152344 L 195.761719 211.152344 Z M 195.761719 207.402344 " fill-opacity="1" fill-rule="nonzero"/></g><path fill="#ffffff" d="M 278.496094 508.699219 C 282.75 508.699219 287 507.074219 290.242188 503.832031 L 314.492188 479.582031 C 320.980469 473.097656 320.980469 462.578125 314.492188 456.09375 C 308.011719 449.605469 297.484375 449.605469 291.003906 456.09375 L 266.753906 480.34375 C 260.265625 486.828125 260.265625 497.347656 266.753906 503.832031 C 269.992188 507.074219 274.246094 508.699219 278.496094 508.699219 Z M 278.496094 508.699219 " fill-opacity="1" fill-rule="nonzero"/><path fill="#ffffff" d="M 252.691406 517.894531 C 246.207031 511.402344 235.683594 511.402344 229.203125 517.894531 L 94.109375 652.984375 C 87.621094 659.46875 87.621094 669.988281 94.109375 676.472656 C 97.347656 679.714844 101.601562 681.339844 105.855469 681.339844 C 110.105469 681.339844 114.359375 679.714844 117.597656 676.472656 L 252.691406 541.378906 C 259.179688 534.894531 259.179688 524.375 252.691406 517.894531 Z M 252.691406 517.894531 " fill-opacity="1" fill-rule="nonzero"/><path fill="#ffffff" d="M 335.515625 500.609375 L 218.097656 618.03125 C 211.609375 624.515625 211.609375 635.035156 218.097656 641.519531 C 221.335938 644.761719 225.589844 646.382812 229.839844 646.382812 C 234.089844 646.382812 238.34375 644.761719 241.582031 641.519531 L 359.003906 524.097656 C 365.492188 517.613281 365.492188 507.09375 359.003906 500.609375 C 352.523438 494.121094 341.996094 494.121094 335.515625 500.609375 Z M 335.515625 500.609375 " fill-opacity="1" fill-rule="nonzero"/><path fill="#ffffff" d="M 175.335938 660.792969 L 138.625 697.503906 C 132.140625 703.992188 132.140625 714.507812 138.628906 720.996094 C 141.871094 724.234375 146.121094 725.855469 150.371094 725.855469 C 154.625 725.855469 158.875 724.234375 162.121094 720.992188 L 198.824219 684.285156 C 205.3125 677.796875 205.3125 667.28125 198.828125 660.792969 C 192.339844 654.308594 181.824219 654.308594 175.335938 660.792969 Z M 175.335938 660.792969 " fill-opacity="1" fill-rule="nonzero"/><g clip-path="url(#1a6f52e63e)"><path fill="#ffffff" d="M 156.671875 190.023438 C 147.410156 199.269531 132.332031 199.257812 123.054688 189.980469 L 66.511719 133.4375 C 66.390625 133.3125 66.238281 133.226562 66.113281 133.109375 C 65.667969 132.691406 65.183594 132.3125 64.6875 131.945312 C 64.277344 131.636719 63.875 131.328125 63.445312 131.066406 C 63 130.792969 62.527344 130.5625 62.050781 130.332031 C 61.511719 130.066406 60.980469 129.8125 60.421875 129.609375 C 60.25 129.546875 60.101562 129.449219 59.925781 129.390625 C 59.621094 129.292969 59.316406 129.273438 59.011719 129.191406 C 58.425781 129.035156 57.847656 128.898438 57.25 128.808594 C 56.746094 128.730469 56.246094 128.691406 55.746094 128.664062 C 55.175781 128.628906 54.613281 128.613281 54.042969 128.640625 C 53.546875 128.664062 53.058594 128.714844 52.570312 128.78125 C 51.984375 128.859375 51.410156 128.960938 50.835938 129.101562 C 50.386719 129.210938 49.953125 129.347656 49.515625 129.492188 C 48.933594 129.6875 48.363281 129.902344 47.800781 130.164062 C 47.382812 130.359375 46.984375 130.578125 46.585938 130.808594 C 46.070312 131.101562 45.566406 131.410156 45.078125 131.761719 C 44.640625 132.078125 44.234375 132.429688 43.828125 132.785156 C 43.570312 133.015625 43.277344 133.191406 43.027344 133.4375 C 42.890625 133.578125 42.796875 133.738281 42.664062 133.882812 C 42.277344 134.296875 41.929688 134.75 41.582031 135.207031 C 41.25 135.640625 40.921875 136.070312 40.644531 136.523438 C 40.378906 136.957031 40.15625 137.417969 39.929688 137.878906 C 39.664062 138.421875 39.40625 138.964844 39.199219 139.53125 C 39.140625 139.703125 39.039062 139.851562 38.980469 140.027344 C 21.335938 194.09375 35.335938 252.644531 75.53125 292.839844 C 104.300781 321.613281 142.613281 336.886719 181.679688 336.886719 C 197.082031 336.886719 212.578125 334.382812 227.675781 329.527344 L 288.953125 390.804688 C 278.507812 391.984375 268.359375 396.359375 260.363281 404.347656 L 58.609375 606.105469 C 30.902344 633.808594 30.902344 678.898438 58.609375 706.601562 L 108.496094 756.484375 C 122.347656 770.34375 140.542969 777.269531 158.742188 777.269531 C 176.941406 777.269531 195.136719 770.339844 208.988281 756.484375 L 410.742188 554.734375 C 418.734375 546.738281 423.109375 536.589844 424.285156 526.144531 L 485.464844 587.320312 C 468.246094 640.738281 482.117188 699.4375 522.253906 739.570312 C 550.957031 768.273438 589.019531 783.625 628.136719 783.621094 C 643.789062 783.621094 659.613281 781.164062 675.066406 776.117188 C 675.246094 776.0625 675.394531 775.960938 675.566406 775.898438 C 676.121094 775.699219 676.652344 775.445312 677.1875 775.183594 C 677.667969 774.949219 678.140625 774.722656 678.589844 774.445312 C 679.019531 774.179688 679.421875 773.875 679.828125 773.566406 C 680.324219 773.195312 680.808594 772.824219 681.257812 772.402344 C 681.382812 772.28125 681.535156 772.195312 681.660156 772.074219 C 681.878906 771.851562 682.03125 771.597656 682.234375 771.371094 C 682.644531 770.910156 683.035156 770.453125 683.390625 769.953125 C 683.695312 769.527344 683.960938 769.09375 684.21875 768.644531 C 684.492188 768.171875 684.753906 767.699219 684.980469 767.203125 C 685.203125 766.710938 685.390625 766.21875 685.566406 765.714844 C 685.738281 765.203125 685.898438 764.695312 686.019531 764.171875 C 686.144531 763.664062 686.230469 763.15625 686.304688 762.636719 C 686.378906 762.09375 686.4375 761.550781 686.460938 761 C 686.484375 760.472656 686.464844 759.949219 686.4375 759.421875 C 686.40625 758.886719 686.367188 758.359375 686.285156 757.824219 C 686.199219 757.242188 686.0625 756.679688 685.910156 756.109375 C 685.828125 755.796875 685.808594 755.484375 685.703125 755.175781 C 685.648438 755 685.546875 754.847656 685.484375 754.675781 C 685.28125 754.125 685.03125 753.589844 684.769531 753.058594 C 684.535156 752.578125 684.304688 752.101562 684.027344 751.652344 C 683.765625 751.222656 683.457031 750.824219 683.152344 750.417969 C 682.78125 749.921875 682.40625 749.4375 681.988281 748.992188 C 681.863281 748.863281 681.78125 748.710938 681.65625 748.585938 L 625.113281 692.046875 C 615.835938 682.765625 615.816406 667.6875 625.070312 658.429688 L 653.425781 630.074219 C 662.679688 620.820312 677.757812 620.835938 687.042969 630.113281 L 743.585938 686.660156 C 743.707031 686.785156 743.855469 686.867188 743.984375 686.984375 C 744.425781 687.402344 744.90625 687.769531 745.394531 688.140625 C 745.808594 688.449219 746.214844 688.765625 746.652344 689.035156 C 747.085938 689.300781 747.550781 689.523438 748.015625 689.753906 C 748.566406 690.023438 749.109375 690.285156 749.679688 690.488281 C 749.84375 690.550781 749.984375 690.644531 750.15625 690.699219 C 750.324219 690.753906 750.496094 690.730469 750.664062 690.78125 C 752.175781 691.222656 753.71875 691.515625 755.28125 691.519531 C 755.296875 691.519531 755.316406 691.527344 755.332031 691.527344 C 755.359375 691.527344 755.382812 691.515625 755.410156 691.515625 C 756.921875 691.507812 758.417969 691.226562 759.882812 690.8125 C 760.191406 690.722656 760.484375 690.648438 760.789062 690.542969 C 762.179688 690.0625 763.519531 689.410156 764.769531 688.542969 C 764.992188 688.386719 765.179688 688.195312 765.398438 688.03125 C 765.96875 687.589844 766.554688 687.183594 767.074219 686.660156 C 767.5 686.234375 767.820312 685.75 768.191406 685.292969 C 768.40625 685.03125 768.628906 684.792969 768.828125 684.515625 C 769.742188 683.230469 770.441406 681.851562 770.949219 680.40625 C 770.988281 680.289062 771.078125 680.207031 771.113281 680.089844 C 788.824219 626.054688 774.820312 567.496094 734.578125 527.253906 C 694.445312 487.121094 635.765625 473.261719 582.378906 490.476562 L 482.640625 390.742188 L 663.835938 209.550781 L 701.230469 212.167969 C 701.621094 212.195312 702.007812 212.207031 702.394531 212.207031 C 708.398438 212.207031 713.972656 208.960938 716.917969 203.65625 L 776.921875 95.511719 C 780.515625 89.03125 779.382812 80.949219 774.140625 75.710938 L 770.121094 71.6875 C 770.113281 71.679688 770.109375 71.675781 770.101562 71.667969 L 743.433594 44.996094 C 743.425781 44.988281 743.417969 44.988281 743.410156 44.980469 L 739.386719 40.957031 C 734.144531 35.710938 726.0625 34.574219 719.585938 38.175781 L 611.441406 98.179688 C 605.796875 101.3125 602.480469 107.429688 602.929688 113.867188 L 605.550781 151.265625 L 424.355469 332.457031 L 324.621094 232.71875 C 341.839844 179.332031 327.972656 120.648438 287.84375 80.523438 C 247.601562 40.28125 189.03125 26.265625 135.011719 43.980469 C 134.84375 44.039062 134.703125 44.132812 134.535156 44.191406 C 133.96875 44.394531 133.421875 44.65625 132.875 44.925781 C 132.410156 45.15625 131.945312 45.378906 131.507812 45.648438 C 131.074219 45.914062 130.664062 46.230469 130.25 46.542969 C 129.761719 46.90625 129.28125 47.277344 128.839844 47.695312 C 128.714844 47.816406 128.566406 47.898438 128.441406 48.023438 C 128.21875 48.242188 128.066406 48.503906 127.859375 48.738281 C 127.453125 49.191406 127.0625 49.648438 126.710938 50.144531 C 126.402344 50.574219 126.132812 51.015625 125.871094 51.46875 C 125.601562 51.933594 125.347656 52.402344 125.121094 52.894531 C 124.894531 53.390625 124.707031 53.890625 124.53125 54.40625 C 124.359375 54.90625 124.203125 55.40625 124.082031 55.921875 C 123.960938 56.441406 123.871094 56.957031 123.796875 57.484375 C 123.722656 58.019531 123.664062 58.550781 123.644531 59.097656 C 123.621094 59.636719 123.636719 60.167969 123.667969 60.707031 C 123.699219 61.230469 123.738281 61.746094 123.816406 62.273438 C 123.90625 62.863281 124.050781 63.441406 124.203125 64.027344 C 124.285156 64.332031 124.304688 64.640625 124.40625 64.945312 C 124.460938 65.117188 124.558594 65.257812 124.621094 65.429688 C 124.820312 65.984375 125.074219 66.519531 125.335938 67.054688 C 125.574219 67.539062 125.804688 68.019531 126.082031 68.46875 C 126.339844 68.882812 126.636719 69.269531 126.933594 69.664062 C 127.316406 70.179688 127.703125 70.679688 128.136719 71.144531 C 128.25 71.261719 128.328125 71.402344 128.445312 71.515625 L 184.984375 128.058594 C 194.265625 137.339844 194.285156 152.417969 185.03125 161.675781 Z M 387.257812 531.25 L 185.503906 733 C 170.742188 747.753906 146.742188 747.753906 131.984375 733 L 82.097656 683.117188 C 67.34375 668.359375 67.34375 644.351562 82.097656 629.59375 L 283.851562 427.84375 C 289.65625 422.042969 299.09375 422.042969 304.894531 427.84375 L 318.257812 441.214844 C 324.742188 447.695312 335.257812 447.703125 341.75 441.21875 C 348.238281 434.730469 348.238281 424.214844 341.757812 417.726562 L 339.363281 415.332031 L 350.214844 404.480469 C 354.804688 399.917969 362.25 399.90625 366.824219 404.480469 L 371.304688 408.960938 C 371.3125 408.964844 371.316406 408.972656 371.324219 408.980469 L 406.121094 443.78125 L 406.125 443.78125 L 410.621094 448.277344 C 415.195312 452.855469 415.203125 460.308594 410.574219 464.933594 L 399.773438 475.738281 L 380.691406 456.65625 C 374.210938 450.167969 363.6875 450.167969 357.207031 456.65625 C 350.714844 463.140625 350.714844 473.660156 357.207031 480.144531 L 387.257812 510.199219 C 393.054688 516.007812 393.054688 525.445312 387.257812 531.25 Z M 566.367188 521.429688 C 566.367188 521.429688 566.375 521.4375 566.375 521.4375 L 566.410156 521.472656 C 566.90625 521.96875 567.460938 522.351562 568 522.773438 C 568.292969 523 568.554688 523.273438 568.863281 523.480469 C 571.664062 525.375 574.90625 526.339844 578.15625 526.339844 C 580.425781 526.339844 582.683594 525.839844 584.796875 524.917969 C 628.351562 507.429688 677.878906 517.523438 711.09375 550.738281 C 735.417969 575.0625 747.363281 607.980469 745.078125 641.164062 L 710.539062 606.621094 C 688.316406 584.402344 652.160156 584.382812 629.945312 606.582031 L 601.589844 634.9375 C 579.378906 657.144531 579.402344 693.300781 601.632812 715.53125 L 636.15625 750.050781 C 602.957031 752.324219 570.042969 740.375 545.746094 716.082031 C 512.644531 682.976562 502.515625 633.664062 519.753906 590.183594 C 521.335938 589.394531 522.84375 588.410156 524.15625 587.085938 L 538.253906 572.902344 C 544.722656 566.398438 544.691406 555.878906 538.179688 549.414062 C 531.679688 542.949219 521.164062 542.976562 514.695312 549.484375 L 504.683594 559.558594 L 433.804688 488.675781 L 434.109375 488.371094 C 449.136719 473.34375 451.183594 450.277344 440.445312 432.941406 L 459.160156 414.222656 Z M 724.753906 73.300781 L 741.796875 90.34375 L 693 178.289062 L 658.5625 175.878906 C 658.371094 175.863281 658.1875 175.898438 657.992188 175.890625 C 657.476562 175.875 656.964844 175.90625 656.449219 175.933594 C 655.816406 175.96875 655.191406 176.007812 654.578125 176.113281 C 654.246094 176.171875 653.925781 176.265625 653.597656 176.34375 C 652.84375 176.519531 652.101562 176.71875 651.394531 176.996094 C 651.171875 177.082031 650.96875 177.191406 650.75 177.289062 C 649.957031 177.640625 649.195312 178.027344 648.46875 178.492188 C 648.308594 178.597656 648.160156 178.71875 648 178.828125 C 647.238281 179.355469 646.523438 179.933594 645.855469 180.582031 C 645.804688 180.628906 645.75 180.660156 645.703125 180.710938 L 417.859375 408.546875 L 406.554688 397.242188 L 634.394531 169.394531 C 634.464844 169.328125 634.507812 169.242188 634.578125 169.167969 C 635.148438 168.574219 635.660156 167.933594 636.136719 167.261719 C 636.3125 167.019531 636.5 166.78125 636.660156 166.53125 C 637.054688 165.910156 637.378906 165.253906 637.6875 164.578125 C 637.839844 164.25 638.007812 163.933594 638.132812 163.597656 C 638.367188 162.984375 638.53125 162.351562 638.695312 161.707031 C 638.800781 161.28125 638.921875 160.867188 638.992188 160.4375 C 639.085938 159.878906 639.121094 159.308594 639.160156 158.738281 C 639.195312 158.1875 639.226562 157.644531 639.207031 157.09375 C 639.199219 156.902344 639.238281 156.722656 639.226562 156.53125 L 636.8125 122.09375 Z M 208.476562 104.5625 L 173.9375 70.023438 C 207.121094 67.738281 240.039062 79.683594 264.363281 104.007812 C 297.109375 136.753906 307.335938 185.347656 290.855469 228.460938 C 290.070312 229.011719 289.308594 229.601562 288.613281 230.300781 L 274.511719 244.480469 C 268.042969 250.984375 268.078125 261.503906 274.582031 267.972656 C 277.820312 271.191406 282.058594 272.804688 286.292969 272.804688 C 290.558594 272.804688 294.824219 271.167969 298.074219 267.902344 L 305.4375 260.5 L 400.875 355.941406 L 382.15625 374.660156 C 364.824219 363.929688 341.746094 365.976562 326.679688 381.042969 L 326.417969 381.304688 L 244.070312 298.953125 C 239.5 294.175781 232.328125 292.386719 225.835938 295.015625 C 182.132812 312.75 132.351562 302.683594 99.019531 269.355469 C 74.726562 245.066406 62.789062 212.15625 65.054688 178.953125 L 99.570312 213.46875 C 110.691406 224.597656 125.304688 230.15625 139.90625 230.15625 C 154.488281 230.15625 169.066406 224.613281 180.160156 213.511719 L 208.519531 185.15625 C 230.726562 162.949219 230.707031 126.796875 208.476562 104.5625 Z M 208.476562 104.5625 " fill-opacity="1" fill-rule="nonzero"/></g></svg>