<svg xmlns="http://www.w3.org/2000/svg" xmlns:xlink="http://www.w3.org/1999/xlink" width="360" zoomAndPan="magnify" viewBox="0 0 270 209.999996" height="280" preserveAspectRatio="xMidYMid meet" version="1.0"><defs><clipPath id="5f616ec4dc"><path d="M 46 4 L 127 4 L 127 86 L 46 86 Z M 46 4 " clip-rule="nonzero"/></clipPath><clipPath id="4773d09acc"><path d="M -16.894531 -5.609375 L 136.894531 -58.867188 L 190.152344 94.921875 L 36.359375 148.179688 Z M -16.894531 -5.609375 " clip-rule="nonzero"/></clipPath><clipPath id="f1a4ba81ed"><path d="M -13.707031 3.601562 L 140.085938 -49.65625 L 190.152344 94.921875 L 36.359375 148.179688 Z M -13.707031 3.601562 " clip-rule="nonzero"/></clipPath><clipPath id="d217729c3a"><path d="M -16.894531 -5.609375 L 136.894531 -58.867188 L 190.152344 94.921875 L 36.359375 148.179688 Z M -16.894531 -5.609375 " clip-rule="nonzero"/></clipPath><clipPath id="25aa00a478"><path d="M 121 28 L 202 28 L 202 109 L 121 109 Z M 121 28 " clip-rule="nonzero"/></clipPath><clipPath id="bfa1d68983"><path d="M 58.875 18.945312 L 211.25 -33.820312 L 264.015625 118.554688 L 111.640625 171.320312 Z M 58.875 18.945312 " clip-rule="nonzero"/></clipPath><clipPath id="ffbfb27a4c"><path d="M 58.875 18.945312 L 211.25 -33.820312 L 264.015625 118.554688 L 111.640625 171.320312 Z M 58.875 18.945312 " clip-rule="nonzero"/></clipPath><clipPath id="a9d235a9a0"><path d="M 58.875 18.945312 L 211.25 -33.820312 L 264.015625 118.554688 L 111.640625 171.320312 Z M 58.875 18.945312 " clip-rule="nonzero"/></clipPath><clipPath id="9b186ea8b4"><path d="M 199 31 L 270 31 L 270 112 L 199 112 Z M 199 31 " clip-rule="nonzero"/></clipPath><clipPath id="32067902c9"><path d="M 136.871094 22.128906 L 289.242188 -30.636719 L 342.007812 121.738281 L 189.636719 174.503906 Z M 136.871094 22.128906 " clip-rule="nonzero"/></clipPath><clipPath id="c5b2af22d4"><path d="M 136.871094 22.128906 L 263.019531 -21.554688 L 315.785156 130.816406 L 189.636719 174.503906 Z M 136.871094 22.128906 " clip-rule="nonzero"/></clipPath><clipPath id="df0f23332b"><path d="M 136.871094 22.128906 L 289.242188 -30.636719 L 342.007812 121.738281 L 189.636719 174.503906 Z M 136.871094 22.128906 " clip-rule="nonzero"/></clipPath><clipPath id="caeeb65e3a"><path d="M 168 1 L 249 1 L 249 82 L 168 82 Z M 168 1 " clip-rule="nonzero"/></clipPath><clipPath id="57fe931a49"><path d="M 106.121094 -8.617188 L 258.492188 -61.382812 L 311.257812 90.988281 L 158.886719 143.753906 Z M 106.121094 -8.617188 " clip-rule="nonzero"/></clipPath><clipPath id="19d85ec9fc"><path d="M 106.121094 -8.617188 L 250.699219 -58.683594 L 303.464844 93.6875 L 158.886719 143.753906 Z M 106.121094 -8.617188 " clip-rule="nonzero"/></clipPath><clipPath id="65ad75cabb"><path d="M 106.121094 -8.617188 L 258.492188 -61.382812 L 311.257812 90.988281 L 158.886719 143.753906 Z M 106.121094 -8.617188 " clip-rule="nonzero"/></clipPath><clipPath id="2d5f347e67"><path d="M 94 0 L 175 0 L 175 57 L 94 57 Z M 94 0 " clip-rule="nonzero"/></clipPath><clipPath id="dd99fb8d9a"><path d="M 32.289062 -33.757812 L 184.660156 -86.523438 L 237.425781 65.851562 L 85.054688 118.617188 Z M 32.289062 -33.757812 " clip-rule="nonzero"/></clipPath><clipPath id="5421c9a84f"><path d="M 38.914062 -14.621094 L 191.289062 -67.386719 L 237.425781 65.851562 L 85.054688 118.617188 Z M 38.914062 -14.621094 " clip-rule="nonzero"/></clipPath><clipPath id="536a74e5a1"><path d="M 32.28125 -33.785156 L 184.652344 -86.550781 L 237.417969 65.824219 L 85.046875 118.589844 Z M 32.28125 -33.785156 " clip-rule="nonzero"/></clipPath></defs><rect x="-27" width="324" fill="#ffffff" y="-21" height="251.999995" fill-opacity="1"/><rect x="-27" width="324" fill="#121212" y="-21" height="251.999995" fill-opacity="1"/><g clip-path="url(#5f616ec4dc)"><g clip-path="url(#4773d09acc)"><g clip-path="url(#f1a4ba81ed)"><g clip-path="url(#d217729c3a)"><path stroke-linecap="butt" transform="matrix(0.768949, -0.266283, 0.266283, 0.768949, -16.895599, -5.610372)" fill="none" stroke-linejoin="round" d="M 149.998402 100.001587 L 143.465824 111.648393 L 143.303112 124.99813 L 131.816885 131.820563 L 125.000814 143.303157 L 111.645803 143.463737 L 99.998925 150.001938 L 88.35369 143.464824 L 74.999417 143.300541 L 68.179949 131.820421 L 56.698926 124.999814 L 56.53381 111.643232 L 50.000145 99.997925 L 56.537259 88.35269 L 56.699972 75.002953 L 68.181662 68.178949 L 75.002269 56.697926 L 88.352745 56.535775 L 99.999622 49.997574 L 111.644857 56.534688 L 124.99913 56.698971 L 131.818598 68.179091 L 143.299621 74.999698 L 143.466308 88.351744 Z M 149.998402 100.001587 " stroke="#ffffff" stroke-width="1" stroke-opacity="1" stroke-miterlimit="4"/></g></g></g></g><g clip-path="url(#25aa00a478)"><g clip-path="url(#bfa1d68983)"><g clip-path="url(#ffbfb27a4c)"><g clip-path="url(#a9d235a9a0)"><path stroke-linecap="butt" transform="matrix(0.761862, -0.263829, 0.263829, 0.761862, 58.876564, 18.946727)" fill="none" stroke-linejoin="round" d="M 150.000437 100.00011 L 143.465038 111.647145 L 143.302236 124.998504 L 131.818699 131.81979 L 125.001748 143.30267 L 111.645065 143.466168 L 99.999382 150.000577 L 88.352347 143.465179 L 75.000988 143.302377 L 68.179702 131.81884 L 56.696822 125.001889 L 56.533324 111.645205 L 49.998915 99.999523 L 56.534313 88.352488 L 56.697115 75.001128 L 68.180652 68.179843 L 75.002181 56.698548 L 88.354287 56.533465 L 99.999969 49.999055 L 111.647004 56.534454 L 124.998364 56.697256 L 131.819649 68.180793 L 143.300944 75.002322 L 143.466027 88.354427 Z M 150.000437 100.00011 " stroke="#ffffff" stroke-width="1" stroke-opacity="1" stroke-miterlimit="4"/></g></g></g></g><g clip-path="url(#9b186ea8b4)"><g clip-path="url(#32067902c9)"><g clip-path="url(#c5b2af22d4)"><g clip-path="url(#df0f23332b)"><path stroke-linecap="butt" transform="matrix(0.761862, -0.263829, 0.263829, 0.761862, 136.86994, 22.129792)" fill="none" stroke-linejoin="round" d="M 149.998829 100.000247 L 143.463431 111.647282 L 143.300629 124.998642 L 131.817092 131.819927 L 125.000141 143.302808 L 111.643457 143.466305 L 99.997775 150.000714 L 88.355318 143.466902 L 74.99938 143.302514 L 68.182673 131.820562 L 56.701378 124.999033 L 56.536295 111.646928 L 50.001886 100.001245 L 56.537284 88.354211 L 56.700086 75.002851 L 68.179045 68.17998 L 75.000574 56.698685 L 88.352679 56.533602 L 99.998362 49.999193 L 111.645396 56.534591 L 125.001335 56.698979 L 131.818042 68.18093 L 143.300922 74.997881 L 143.46442 88.354564 Z M 149.998829 100.000247 " stroke="#ffffff" stroke-width="1" stroke-opacity="1" stroke-miterlimit="4"/></g></g></g></g><g clip-path="url(#caeeb65e3a)"><g clip-path="url(#57fe931a49)"><g clip-path="url(#19d85ec9fc)"><g clip-path="url(#65ad75cabb)"><path stroke-linecap="butt" transform="matrix(0.761862, -0.263829, 0.263829, 0.761862, 106.121195, -8.618964)" fill="none" stroke-linejoin="round" d="M 150.002441 99.999866 L 143.467043 111.646901 L 143.302655 125.002839 L 131.820704 131.819546 L 124.999175 143.300841 L 111.64707 143.465924 L 100.001387 150.000334 L 88.354352 143.464935 L 74.998414 143.300548 L 68.181707 131.818596 L 56.698826 125.001645 L 56.535329 111.644962 L 50.00092 99.999279 L 56.536318 88.352244 L 56.69912 75.000884 L 68.182657 68.179599 L 74.999608 56.696719 L 88.354706 56.537799 L 100.001974 49.998812 L 111.64443 56.532625 L 125.000369 56.697012 L 131.821654 68.180549 L 143.302949 75.002078 L 143.463454 88.352598 Z M 150.002441 99.999866 " stroke="#ffffff" stroke-width="1" stroke-opacity="1" stroke-miterlimit="4"/></g></g></g></g><g clip-path="url(#2d5f347e67)"><g clip-path="url(#dd99fb8d9a)"><g clip-path="url(#5421c9a84f)"><g clip-path="url(#536a74e5a1)"><path stroke-linecap="butt" transform="matrix(0.761862, -0.263829, 0.263829, 0.761862, 32.27951, -33.783367)" fill="none" stroke-linejoin="round" d="M 149.999884 99.999433 L 143.464486 111.646469 L 143.301684 124.99783 L 131.818147 131.819115 L 125.001196 143.301997 L 111.644513 143.465494 L 99.99883 149.999904 L 88.356374 143.466091 L 75.000436 143.301703 L 68.17915 131.818165 L 56.696269 125.001214 L 56.53735 111.646115 L 49.998362 99.998846 L 56.53376 88.351811 L 56.696562 75.00045 L 68.180099 68.179164 L 75.001628 56.697868 L 88.353733 56.532785 L 99.999416 49.998375 L 111.646451 56.533774 L 125.002389 56.698162 L 131.819096 68.180114 L 143.300391 75.001644 L 143.465475 88.35375 Z M 149.999884 99.999433 " stroke="#ffffff" stroke-width="1" stroke-opacity="1" stroke-miterlimit="4"/></g></g></g></g></svg>