<svg xmlns="http://www.w3.org/2000/svg" xmlns:xlink="http://www.w3.org/1999/xlink" width="360" zoomAndPan="magnify" viewBox="0 0 270 209.999996" height="280" preserveAspectRatio="xMidYMid meet" version="1.0"><defs><filter x="0%" y="0%" width="100%" height="100%" id="6b3ae2d15f"><feColorMatrix values="0 0 0 0 1 0 0 0 0 1 0 0 0 0 1 0 0 0 1 0" color-interpolation-filters="sRGB"/></filter><mask id="799054d667"><g filter="url(#6b3ae2d15f)"><rect x="-27" width="324" fill="#000000" y="-21" height="251.999995" fill-opacity="0.7"/></g></mask><clipPath id="30235c4da7"><path d="M 46 4 L 127 4 L 127 86 L 46 86 Z M 46 4 " clip-rule="nonzero"/></clipPath><clipPath id="f0e79171e4"><path d="M -16.894531 -5.609375 L 136.894531 -58.867188 L 190.152344 94.921875 L 36.359375 148.179688 Z M -16.894531 -5.609375 " clip-rule="nonzero"/></clipPath><clipPath id="8f7d09f5c1"><path d="M -13.707031 3.601562 L 140.085938 -49.65625 L 190.152344 94.921875 L 36.359375 148.179688 Z M -13.707031 3.601562 " clip-rule="nonzero"/></clipPath><clipPath id="47b17040ef"><path d="M -16.894531 -5.609375 L 136.894531 -58.867188 L 190.152344 94.921875 L 36.359375 148.179688 Z M -16.894531 -5.609375 " clip-rule="nonzero"/></clipPath><clipPath id="2be16a8e39"><path d="M 121 28 L 202 28 L 202 109 L 121 109 Z M 121 28 " clip-rule="nonzero"/></clipPath><clipPath id="d349600f5a"><path d="M 58.875 18.945312 L 211.25 -33.820312 L 264.015625 118.554688 L 111.640625 171.320312 Z M 58.875 18.945312 " clip-rule="nonzero"/></clipPath><clipPath id="859ab04fd9"><path d="M 58.875 18.945312 L 211.25 -33.820312 L 264.015625 118.554688 L 111.640625 171.320312 Z M 58.875 18.945312 " clip-rule="nonzero"/></clipPath><clipPath id="00f95162b5"><path d="M 58.875 18.945312 L 211.25 -33.820312 L 264.015625 118.554688 L 111.640625 171.320312 Z M 58.875 18.945312 " clip-rule="nonzero"/></clipPath><clipPath id="60a42a4ff0"><path d="M 199 31 L 270 31 L 270 112 L 199 112 Z M 199 31 " clip-rule="nonzero"/></clipPath><clipPath id="f9134abd20"><path d="M 136.871094 22.128906 L 289.242188 -30.636719 L 342.007812 121.738281 L 189.636719 174.503906 Z M 136.871094 22.128906 " clip-rule="nonzero"/></clipPath><clipPath id="f5c134ebe8"><path d="M 136.871094 22.128906 L 263.019531 -21.554688 L 315.785156 130.816406 L 189.636719 174.503906 Z M 136.871094 22.128906 " clip-rule="nonzero"/></clipPath><clipPath id="308bb889fe"><path d="M 136.871094 22.128906 L 289.242188 -30.636719 L 342.007812 121.738281 L 189.636719 174.503906 Z M 136.871094 22.128906 " clip-rule="nonzero"/></clipPath><clipPath id="7fd3ff8076"><path d="M 168 1 L 249 1 L 249 82 L 168 82 Z M 168 1 " clip-rule="nonzero"/></clipPath><clipPath id="e944851b7f"><path d="M 106.121094 -8.617188 L 258.492188 -61.382812 L 311.257812 90.988281 L 158.886719 143.753906 Z M 106.121094 -8.617188 " clip-rule="nonzero"/></clipPath><clipPath id="808b613b7f"><path d="M 106.121094 -8.617188 L 250.699219 -58.683594 L 303.464844 93.6875 L 158.886719 143.753906 Z M 106.121094 -8.617188 " clip-rule="nonzero"/></clipPath><clipPath id="e799955ec3"><path d="M 106.121094 -8.617188 L 258.492188 -61.382812 L 311.257812 90.988281 L 158.886719 143.753906 Z M 106.121094 -8.617188 " clip-rule="nonzero"/></clipPath><clipPath id="df528c80f7"><path d="M 94 0 L 175 0 L 175 57 L 94 57 Z M 94 0 " clip-rule="nonzero"/></clipPath><clipPath id="9dc413cfc1"><path d="M 32.289062 -33.757812 L 184.660156 -86.523438 L 237.425781 65.851562 L 85.054688 118.617188 Z M 32.289062 -33.757812 " clip-rule="nonzero"/></clipPath><clipPath id="dddc02ade9"><path d="M 38.914062 -14.621094 L 191.289062 -67.386719 L 237.425781 65.851562 L 85.054688 118.617188 Z M 38.914062 -14.621094 " clip-rule="nonzero"/></clipPath><clipPath id="c7b80440c6"><path d="M 32.28125 -33.785156 L 184.652344 -86.550781 L 237.417969 65.824219 L 85.046875 118.589844 Z M 32.28125 -33.785156 " clip-rule="nonzero"/></clipPath><clipPath id="9aeae6dfa2"><rect x="0" width="270" y="0" height="176"/></clipPath></defs><rect x="-27" width="324" fill="#ffffff" y="-21" height="251.999995" fill-opacity="1"/><rect x="-27" width="324" fill="#121212" y="-21" height="251.999995" fill-opacity="1"/><g mask="url(#799054d667)"><g transform="matrix(1, 0, 0, 1, 0, 0)"><g clip-path="url(#9aeae6dfa2)"><g clip-path="url(#30235c4da7)"><g clip-path="url(#f0e79171e4)"><g clip-path="url(#8f7d09f5c1)"><g clip-path="url(#47b17040ef)"><path stroke-linecap="butt" transform="matrix(0.768949, -0.266283, 0.266283, 0.768949, -16.895597, -5.610376)" fill="none" stroke-linejoin="round" d="M 149.998398 100.001591 L 143.46582 111.648397 L 143.303108 124.998134 L 131.816882 131.820567 L 125.00081 143.303161 L 111.645799 143.463741 L 99.998921 150.001942 L 88.353686 143.464828 L 74.999413 143.300545 L 68.179945 131.820425 L 56.698922 124.999818 L 56.533806 111.643236 L 50.000141 99.997929 L 56.537255 88.352694 L 56.699968 75.002957 L 68.181658 68.178953 L 75.002265 56.69793 L 88.352741 56.535779 L 99.999618 49.997578 L 111.644853 56.534692 L 124.999126 56.698975 L 131.818594 68.179095 L 143.299617 74.999702 L 143.466304 88.351748 Z M 149.998398 100.001591 " stroke="#ffffff" stroke-width="1" stroke-opacity="1" stroke-miterlimit="4"/></g></g></g></g><g clip-path="url(#2be16a8e39)"><g clip-path="url(#d349600f5a)"><g clip-path="url(#859ab04fd9)"><g clip-path="url(#00f95162b5)"><path stroke-linecap="butt" transform="matrix(0.761862, -0.263829, 0.263829, 0.761862, 58.876554, 18.946727)" fill="none" stroke-linejoin="round" d="M 150.000448 100.000114 L 143.46505 111.647148 L 143.302247 124.998508 L 131.81871 131.819794 L 125.00176 143.302674 L 111.645076 143.466172 L 99.999393 150.000581 L 88.352359 143.465183 L 75.000999 143.30238 L 68.179713 131.818843 L 56.696833 125.001893 L 56.533335 111.645209 L 49.998926 99.999526 L 56.534324 88.352492 L 56.697127 75.001132 L 68.180664 68.179847 L 75.002192 56.698552 L 88.354298 56.533469 L 99.999981 49.999059 L 111.647015 56.534458 L 124.998375 56.69726 L 131.81966 68.180797 L 143.300955 75.002326 L 143.466038 88.354431 Z M 150.000448 100.000114 " stroke="#ffffff" stroke-width="1" stroke-opacity="1" stroke-miterlimit="4"/></g></g></g></g><g clip-path="url(#60a42a4ff0)"><g clip-path="url(#f9134abd20)"><g clip-path="url(#f5c134ebe8)"><g clip-path="url(#308bb889fe)"><path stroke-linecap="butt" transform="matrix(0.761862, -0.263829, 0.263829, 0.761862, 136.86994, 22.129789)" fill="none" stroke-linejoin="round" d="M 149.998828 100.000252 L 143.463429 111.647286 L 143.300627 124.998646 L 131.81709 131.819932 L 125.000139 143.302812 L 111.643456 143.46631 L 99.997773 150.000719 L 88.355317 143.466906 L 74.999379 143.302518 L 68.182671 131.820567 L 56.701376 124.999038 L 56.536293 111.646933 L 50.001884 100.00125 L 56.537282 88.354215 L 56.700085 75.002855 L 68.179043 68.179984 L 75.000572 56.698689 L 88.352678 56.533606 L 99.99836 49.999197 L 111.645395 56.534595 L 125.001333 56.698983 L 131.81804 68.180935 L 143.300921 74.997885 L 143.464418 88.354569 Z M 149.998828 100.000252 " stroke="#ffffff" stroke-width="1" stroke-opacity="1" stroke-miterlimit="4"/></g></g></g></g><g clip-path="url(#7fd3ff8076)"><g clip-path="url(#e944851b7f)"><g clip-path="url(#808b613b7f)"><g clip-path="url(#e799955ec3)"><path stroke-linecap="butt" transform="matrix(0.761862, -0.263829, 0.263829, 0.761862, 106.121202, -8.618964)" fill="none" stroke-linejoin="round" d="M 150.002433 99.999863 L 143.467035 111.646898 L 143.302647 125.002836 L 131.820695 131.819543 L 124.999167 143.300838 L 111.647061 143.465921 L 100.001378 150.000331 L 88.354344 143.464932 L 74.998406 143.300545 L 68.181698 131.818593 L 56.698818 125.001642 L 56.53532 111.644959 L 50.000911 99.999276 L 56.536309 88.352241 L 56.699112 75.000882 L 68.182649 68.179596 L 74.999599 56.696716 L 88.354698 56.537796 L 100.001966 49.998809 L 111.644422 56.532622 L 125.00036 56.697009 L 131.821646 68.180546 L 143.302941 75.002075 L 143.463445 88.352595 Z M 150.002433 99.999863 " stroke="#ffffff" stroke-width="1" stroke-opacity="1" stroke-miterlimit="4"/></g></g></g></g><g clip-path="url(#df528c80f7)"><g clip-path="url(#9dc413cfc1)"><g clip-path="url(#dddc02ade9)"><g clip-path="url(#c7b80440c6)"><path stroke-linecap="butt" transform="matrix(0.761862, -0.263829, 0.263829, 0.761862, 32.27951, -33.783371)" fill="none" stroke-linejoin="round" d="M 149.999883 99.999438 L 143.464484 111.646473 L 143.301682 124.997834 L 131.818145 131.81912 L 125.001195 143.302001 L 111.644511 143.465498 L 99.998829 149.999908 L 88.356372 143.466095 L 75.000434 143.301707 L 68.179149 131.818169 L 56.696268 125.001218 L 56.537349 111.646119 L 49.998361 99.99885 L 56.533759 88.351815 L 56.696561 75.000454 L 68.180098 68.179168 L 75.001627 56.697872 L 88.353732 56.532789 L 99.999415 49.99838 L 111.646449 56.533778 L 125.002387 56.698166 L 131.819095 68.180119 L 143.30039 75.001648 L 143.465473 88.353754 Z M 149.999883 99.999438 " stroke="#ffffff" stroke-width="1" stroke-opacity="1" stroke-miterlimit="4"/></g></g></g></g></g></g></g></svg>