<svg xmlns="http://www.w3.org/2000/svg" xmlns:xlink="http://www.w3.org/1999/xlink" width="360" zoomAndPan="magnify" viewBox="0 0 270 209.999996" height="280" preserveAspectRatio="xMidYMid meet" version="1.0"><defs><filter x="0%" y="0%" width="100%" height="100%" id="e360207241"><feColorMatrix values="0 0 0 0 1 0 0 0 0 1 0 0 0 0 1 0 0 0 1 0" color-interpolation-filters="sRGB"/></filter><mask id="138c42283f"><g filter="url(#e360207241)"><rect x="-27" width="324" fill="#000000" y="-21" height="251.999995" fill-opacity="0.5"/></g></mask><clipPath id="90574a0f62"><path d="M 94 0 L 175 0 L 175 57 L 94 57 Z M 94 0 " clip-rule="nonzero"/></clipPath><clipPath id="ec52ea1ab5"><path d="M 70.269531 -77.800781 L 228.878906 -48.234375 L 199.308594 110.375 L 40.703125 80.808594 Z M 70.269531 -77.800781 " clip-rule="nonzero"/></clipPath><clipPath id="a2be21df65"><path d="M 65.128906 -50.214844 L 223.738281 -20.648438 L 199.308594 110.375 L 40.703125 80.808594 Z M 65.128906 -50.214844 " clip-rule="nonzero"/></clipPath><clipPath id="bf7a39c4c1"><path d="M 70.277344 -77.839844 L 228.886719 -48.273438 L 199.316406 110.335938 L 40.710938 80.765625 Z M 70.277344 -77.839844 " clip-rule="nonzero"/></clipPath><clipPath id="2359563876"><path d="M 168 1 L 249 1 L 249 82 L 168 82 Z M 168 1 " clip-rule="nonzero"/></clipPath><clipPath id="86ed6df98b"><path d="M 144.09375 -52.8125 L 302.703125 -23.246094 L 273.132812 135.363281 L 114.527344 105.792969 Z M 144.09375 -52.8125 " clip-rule="nonzero"/></clipPath><clipPath id="cc9acc34bd"><path d="M 140.953125 -35.957031 L 299.558594 -6.386719 L 273.132812 135.363281 L 114.527344 105.792969 Z M 140.953125 -35.957031 " clip-rule="nonzero"/></clipPath><clipPath id="fa17245d6a"><path d="M 144.097656 -52.835938 L 302.707031 -23.269531 L 273.136719 135.339844 L 114.53125 105.769531 Z M 144.097656 -52.835938 " clip-rule="nonzero"/></clipPath><clipPath id="a1e79013f4"><path d="M 199 31 L 270 31 L 270 112 L 199 112 Z M 199 31 " clip-rule="nonzero"/></clipPath><clipPath id="3ff7b21579"><path d="M 174.667969 -22.3125 L 333.277344 7.257812 L 303.707031 165.867188 L 145.101562 136.296875 Z M 174.667969 -22.3125 " clip-rule="nonzero"/></clipPath><clipPath id="2e6f48ff74"><path d="M 174.667969 -22.3125 L 317.953125 4.402344 L 288.382812 163.007812 L 145.101562 136.296875 Z M 174.667969 -22.3125 " clip-rule="nonzero"/></clipPath><clipPath id="9c8788da6b"><path d="M 174.667969 -22.3125 L 333.277344 7.257812 L 303.707031 165.867188 L 145.101562 136.296875 Z M 174.667969 -22.3125 " clip-rule="nonzero"/></clipPath><clipPath id="03badf5278"><path d="M 121 28 L 202 28 L 202 109 L 121 109 Z M 121 28 " clip-rule="nonzero"/></clipPath><clipPath id="e6324bf80e"><path d="M 96.613281 -25.503906 L 255.21875 4.0625 L 225.652344 162.671875 L 67.042969 133.101562 Z M 96.613281 -25.503906 " clip-rule="nonzero"/></clipPath><clipPath id="bf7d922983"><path d="M 96.613281 -25.503906 L 255.21875 4.0625 L 225.652344 162.671875 L 67.042969 133.101562 Z M 96.613281 -25.503906 " clip-rule="nonzero"/></clipPath><clipPath id="5008415f1e"><path d="M 96.613281 -25.503906 L 255.21875 4.0625 L 225.652344 162.671875 L 67.042969 133.101562 Z M 96.613281 -25.503906 " clip-rule="nonzero"/></clipPath><clipPath id="59ae4d6c20"><path d="M 46 4 L 127 4 L 127 85 L 46 85 Z M 46 4 " clip-rule="nonzero"/></clipPath><clipPath id="4f89d0a48e"><path d="M 21.9375 -49.921875 L 180.546875 -20.355469 L 150.976562 138.253906 L -7.628906 108.6875 Z M 21.9375 -49.921875 " clip-rule="nonzero"/></clipPath><clipPath id="3e28d448fc"><path d="M 21.9375 -49.921875 L 180.546875 -20.355469 L 150.976562 138.253906 L -7.628906 108.6875 Z M 21.9375 -49.921875 " clip-rule="nonzero"/></clipPath><clipPath id="c505810dc0"><path d="M 21.9375 -49.921875 L 180.546875 -20.355469 L 150.976562 138.253906 L -7.628906 108.6875 Z M 21.9375 -49.921875 " clip-rule="nonzero"/></clipPath><clipPath id="a9ad482462"><rect x="0" width="270" y="0" height="176"/></clipPath></defs><rect x="-27" width="324" fill="#ffffff" y="-21" height="251.999995" fill-opacity="1"/><rect x="-27" width="324" fill="#121212" y="-21" height="251.999995" fill-opacity="1"/><g mask="url(#138c42283f)"><g transform="matrix(1, 0, 0, 1, 0, 0)"><g clip-path="url(#a9ad482462)"><g clip-path="url(#90574a0f62)"><g clip-path="url(#ec52ea1ab5)"><g clip-path="url(#a2be21df65)"><g clip-path="url(#bf7a39c4c1)"><path stroke-linecap="butt" transform="matrix(0.793039, 0.147841, -0.147841, 0.793039, 70.278272, -77.840232)" fill="none" stroke-linejoin="round" d="M 149.999222 100.001157 L 143.466553 111.646649 L 143.301256 125.001409 L 131.820053 131.821164 L 125.000805 143.303352 L 111.647493 143.46288 L 100.00001 149.998391 L 88.354519 143.465721 L 74.99976 143.300425 L 68.180006 131.819221 L 56.697819 124.999972 L 56.53353 111.647547 L 49.99802 100.000062 L 56.53545 88.353682 L 56.700746 74.998923 L 68.181949 68.179167 L 75.001197 56.696979 L 88.353622 56.532691 L 100.001992 50.00194 L 111.647483 56.53461 L 125.002242 56.699907 L 131.817237 68.181998 L 143.299423 75.001247 L 143.463712 88.353672 Z M 149.999222 100.001157 " stroke="#e6b647" stroke-width="1" stroke-opacity="1" stroke-miterlimit="4"/></g></g></g></g><g clip-path="url(#2359563876)"><g clip-path="url(#86ed6df98b)"><g clip-path="url(#cc9acc34bd)"><g clip-path="url(#fa17245d6a)"><path stroke-linecap="butt" transform="matrix(0.793039, 0.147841, -0.147841, 0.793039, 144.098358, -52.837252)" fill="none" stroke-linejoin="round" d="M 149.999709 100.002234 L 143.467039 111.647726 L 143.300856 124.997726 L 131.819653 131.817481 L 125.000404 143.299669 L 111.64798 143.463958 L 100.000497 149.999469 L 88.355006 143.466798 L 75.000247 143.301502 L 68.180492 131.820298 L 56.698305 125.001049 L 56.534017 111.648624 L 49.998507 100.00114 L 56.535936 88.35476 L 56.696473 75.000887 L 68.182436 68.180244 L 75.001684 56.698057 L 88.354108 56.533768 L 100.001591 49.998257 L 111.64797 56.535688 L 125.001841 56.696224 L 131.817723 68.183075 L 143.29991 75.002324 L 143.464199 88.35475 Z M 149.999709 100.002234 " stroke="#e6b647" stroke-width="1" stroke-opacity="1" stroke-miterlimit="4"/></g></g></g></g><g clip-path="url(#a1e79013f4)"><g clip-path="url(#3ff7b21579)"><g clip-path="url(#2e6f48ff74)"><g clip-path="url(#9c8788da6b)"><path stroke-linecap="butt" transform="matrix(0.793039, 0.147841, -0.147841, 0.793039, 174.668795, -22.310713)" fill="none" stroke-linejoin="round" d="M 149.998866 99.998474 L 143.466196 111.643966 L 143.3009 124.998724 L 131.819696 131.818479 L 125.000447 143.300666 L 111.648021 143.464954 L 100.000537 150.000464 L 88.355045 143.467795 L 75.000285 143.302499 L 68.180529 131.821296 L 56.698342 125.002047 L 56.533166 111.644863 L 49.998542 100.00214 L 56.535973 88.355761 L 56.701269 75.001003 L 68.182473 68.181248 L 75.001722 56.699061 L 88.354147 56.534773 L 100.001631 49.999262 L 111.648011 56.536692 L 125.001884 56.697228 L 131.816879 68.179318 L 143.299067 74.998567 L 143.464243 88.355751 Z M 149.998866 99.998474 " stroke="#e6b647" stroke-width="1" stroke-opacity="1" stroke-miterlimit="4"/></g></g></g></g><g clip-path="url(#03badf5278)"><g clip-path="url(#e6324bf80e)"><g clip-path="url(#bf7d922983)"><g clip-path="url(#5008415f1e)"><path stroke-linecap="butt" transform="matrix(0.793039, 0.147841, -0.147841, 0.793039, 96.612566, -25.504581)" fill="none" stroke-linejoin="round" d="M 150.001291 100.001124 L 143.463861 111.647503 L 143.303325 125.001374 L 131.816475 131.817256 L 124.997226 143.299443 L 111.644802 143.463731 L 100.002079 149.998354 L 88.356588 143.465684 L 75.001829 143.300388 L 68.182074 131.819185 L 56.699887 124.999937 L 56.535599 111.647513 L 50.000089 100.00003 L 56.532758 88.354538 L 56.698055 74.99978 L 68.179257 68.180025 L 74.998506 56.697838 L 88.35569 56.532662 L 99.998413 49.998039 L 111.644792 56.535469 L 124.99955 56.700765 L 131.819305 68.181968 L 143.301492 75.001216 L 143.465781 88.353641 Z M 150.001291 100.001124 " stroke="#e6b647" stroke-width="1" stroke-opacity="1" stroke-miterlimit="4"/></g></g></g></g><g clip-path="url(#59ae4d6c20)"><g clip-path="url(#4f89d0a48e)"><g clip-path="url(#3e28d448fc)"><g clip-path="url(#c505810dc0)"><path stroke-linecap="butt" transform="matrix(0.793039, 0.147841, -0.147841, 0.793039, 21.938402, -49.921823)" fill="none" stroke-linejoin="round" d="M 149.999154 100.000606 L 143.466484 111.646097 L 143.301188 125.000856 L 131.819985 131.82061 L 125.000737 143.302797 L 111.648313 143.467086 L 99.999942 149.997836 L 88.354451 143.465166 L 74.999692 143.29987 L 68.179937 131.818667 L 56.69775 124.999419 L 56.533462 111.646994 L 49.997952 99.999511 L 56.535381 88.353133 L 56.700678 74.998374 L 68.181881 68.178619 L 75.001129 56.696432 L 88.354441 56.536904 L 100.001924 50.001394 L 111.647415 56.534063 L 125.002174 56.69936 L 131.817168 68.18145 L 143.299355 75.000698 L 143.463644 88.353122 Z M 149.999154 100.000606 " stroke="#e6b647" stroke-width="1" stroke-opacity="1" stroke-miterlimit="4"/></g></g></g></g></g></g></g></svg>