<svg xmlns="http://www.w3.org/2000/svg" xmlns:xlink="http://www.w3.org/1999/xlink" width="1080" zoomAndPan="magnify" viewBox="0 0 810 809.999993" height="1080" preserveAspectRatio="xMidYMid meet" version="1.0"><defs><clipPath id="2ffadd8bd4"><path d="M 283.5 457.503906 L 299.988281 457.503906 L 299.988281 465.75 L 283.5 465.75 Z M 283.5 457.503906 " clip-rule="nonzero"/></clipPath><clipPath id="bf53263e9f"><path d="M 295.867188 457.503906 L 283.5 457.503906 L 283.5 465.75 L 295.867188 465.75 L 299.988281 461.628906 Z M 295.867188 457.503906 " clip-rule="nonzero"/></clipPath></defs><path fill="#9f9f9f" d="M 455.511719 621.269531 L 777.503906 299.28125 C 808.003906 268.777344 808.003906 219.230469 777.503906 188.730469 C 747.003906 158.226562 697.453125 158.226562 666.953125 188.730469 L 400.167969 455.375 L 133.382812 188.730469 C 102.882812 158.226562 53.332031 158.226562 22.832031 188.730469 C 8.066406 203.496094 -0.078125 223.09375 -0.078125 243.933594 C -0.078125 264.777344 8.066406 284.511719 22.832031 299.28125 L 344.824219 621.269531 C 375.324219 651.773438 425.011719 651.773438 455.511719 621.269531 Z M 455.511719 621.269531 " fill-opacity="1" fill-rule="nonzero"/><g clip-path="url(#2ffadd8bd4)"><g clip-path="url(#bf53263e9f)"><path fill="#9f9f9f" d="M 283.5 457.503906 L 299.988281 457.503906 L 299.988281 465.75 L 283.5 465.75 Z M 283.5 457.503906 " fill-opacity="1" fill-rule="nonzero"/></g></g></svg>