<svg xmlns="http://www.w3.org/2000/svg" xmlns:xlink="http://www.w3.org/1999/xlink" width="1080" zoomAndPan="magnify" viewBox="0 0 810 809.999993" height="1080" preserveAspectRatio="xMidYMid meet" version="1.0"><defs><clipPath id="2e591eb5a1"><path d="M 239.347656 81 L 243.097656 81 L 243.097656 84.75 L 239.347656 84.75 Z M 239.347656 81 " clip-rule="nonzero"/></clipPath></defs><g clip-path="url(#2e591eb5a1)"><path fill="#ffffff" d="M 239.347656 81 L 243.097656 81 L 243.097656 84.75 L 239.347656 84.75 Z M 239.347656 81 " fill-opacity="1" fill-rule="nonzero"/></g><path fill="#ffffff" d="M 621.269531 354.484375 L 299.277344 32.496094 C 268.777344 1.992188 219.230469 1.992188 188.726562 32.496094 C 158.226562 62.996094 158.226562 112.542969 188.726562 143.046875 L 455.375 409.832031 L 188.726562 676.617188 C 158.226562 707.117188 158.226562 756.664062 188.726562 787.167969 C 203.496094 801.933594 223.09375 810.078125 243.933594 810.078125 C 264.773438 810.078125 284.511719 801.933594 299.277344 787.167969 L 621.269531 465.175781 C 651.773438 434.671875 651.773438 384.988281 621.269531 354.484375 Z M 621.269531 354.484375 " fill-opacity="1" fill-rule="nonzero"/></svg>