<svg xmlns="http://www.w3.org/2000/svg" xmlns:xlink="http://www.w3.org/1999/xlink" width="1080" zoomAndPan="magnify" viewBox="0 0 810 809.999993" height="1080" preserveAspectRatio="xMidYMid meet" version="1.2"><defs><clipPath id="2847b33fcd"><path d="M 3.410156 53 L 806.660156 53 L 806.660156 757 L 3.410156 757 Z M 3.410156 53 "/></clipPath><clipPath id="5ae17d6046"><path d="M 405 119.804688 L 408.75 119.804688 L 408.75 123.554688 L 405 123.554688 Z M 405 119.804688 "/></clipPath></defs><g id="8b4e764178"><g clip-rule="nonzero" clip-path="url(#2847b33fcd)"><path style=" stroke:none;fill-rule:nonzero;fill:#000000;fill-opacity:1;" d="M 806.660156 509.542969 L 806.660156 644.316406 C 806.660156 646.152344 806.613281 647.988281 806.519531 649.820312 C 806.429688 651.65625 806.292969 653.488281 806.109375 655.3125 C 805.929688 657.140625 805.703125 658.964844 805.429688 660.78125 C 805.160156 662.597656 804.84375 664.40625 804.484375 666.207031 C 804.125 668.007812 803.722656 669.796875 803.273438 671.578125 C 802.824219 673.359375 802.335938 675.128906 801.800781 676.886719 C 801.265625 678.644531 800.6875 680.386719 800.070312 682.117188 C 799.449219 683.84375 798.789062 685.558594 798.085938 687.253906 C 797.382812 688.949219 796.636719 690.628906 795.851562 692.289062 C 795.0625 693.945312 794.238281 695.585938 793.371094 697.207031 C 792.503906 698.824219 791.601562 700.421875 790.65625 701.996094 C 789.710938 703.570312 788.730469 705.121094 787.707031 706.648438 C 786.6875 708.175781 785.628906 709.675781 784.535156 711.152344 C 783.441406 712.625 782.3125 714.074219 781.148438 715.492188 C 779.980469 716.914062 778.78125 718.304688 777.550781 719.664062 C 776.316406 721.023438 775.050781 722.355469 773.753906 723.652344 C 772.453125 724.953125 771.125 726.21875 769.765625 727.449219 C 768.402344 728.683594 767.011719 729.882812 765.59375 731.046875 C 764.175781 732.214844 762.726562 733.34375 761.253906 734.4375 C 759.777344 735.53125 758.277344 736.589844 756.75 737.609375 C 755.226562 738.632812 753.675781 739.613281 752.101562 740.558594 C 750.523438 741.503906 748.929688 742.410156 747.308594 743.273438 C 745.691406 744.140625 744.050781 744.96875 742.390625 745.753906 C 740.730469 746.539062 739.054688 747.285156 737.359375 747.988281 C 735.660156 748.691406 733.949219 749.351562 732.222656 749.972656 C 730.492188 750.59375 728.75 751.167969 726.992188 751.703125 C 725.238281 752.238281 723.46875 752.730469 721.6875 753.175781 C 719.90625 753.625 718.117188 754.027344 716.316406 754.386719 C 714.515625 754.746094 712.707031 755.0625 710.890625 755.332031 C 709.074219 755.605469 707.25 755.832031 705.425781 756.011719 C 703.597656 756.195312 701.765625 756.332031 699.933594 756.421875 C 698.097656 756.515625 696.265625 756.5625 694.429688 756.5625 L 115.644531 756.5625 C 113.808594 756.5625 111.972656 756.515625 110.140625 756.421875 C 108.304688 756.332031 106.476562 756.195312 104.648438 756.011719 C 102.820312 755.832031 101 755.605469 99.183594 755.332031 C 97.367188 755.0625 95.558594 754.746094 93.757812 754.386719 C 91.957031 754.027344 90.167969 753.625 88.386719 753.175781 C 86.605469 752.730469 84.835938 752.238281 83.078125 751.703125 C 81.324219 751.167969 79.582031 750.59375 77.851562 749.972656 C 76.125 749.351562 74.410156 748.691406 72.714844 747.988281 C 71.019531 747.285156 69.339844 746.539062 67.679688 745.753906 C 66.023438 744.96875 64.382812 744.140625 62.761719 743.273438 C 61.144531 742.410156 59.546875 741.503906 57.972656 740.558594 C 56.398438 739.613281 54.847656 738.632812 53.320312 737.609375 C 51.792969 736.589844 50.292969 735.53125 48.820312 734.4375 C 47.34375 733.34375 45.898438 732.214844 44.480469 731.046875 C 43.058594 729.882812 41.667969 728.683594 40.308594 727.449219 C 38.949219 726.21875 37.621094 724.953125 36.320312 723.652344 C 35.023438 722.355469 33.757812 721.023438 32.523438 719.664062 C 31.289062 718.304688 30.089844 716.914062 28.925781 715.492188 C 27.761719 714.074219 26.632812 712.625 25.535156 711.152344 C 24.441406 709.675781 23.386719 708.175781 22.363281 706.648438 C 21.34375 705.121094 20.363281 703.570312 19.417969 701.996094 C 18.472656 700.421875 17.566406 698.824219 16.699219 697.207031 C 15.835938 695.585938 15.007812 693.945312 14.222656 692.289062 C 13.4375 690.628906 12.691406 688.949219 11.988281 687.253906 C 11.285156 685.558594 10.621094 683.84375 10.003906 682.117188 C 9.382812 680.386719 8.804688 678.644531 8.273438 676.886719 C 7.738281 675.128906 7.246094 673.359375 6.800781 671.578125 C 6.351562 669.796875 5.949219 668.007812 5.589844 666.207031 C 5.230469 664.40625 4.914062 662.597656 4.640625 660.78125 C 4.371094 658.964844 4.144531 657.140625 3.964844 655.3125 C 3.78125 653.488281 3.644531 651.65625 3.550781 649.820312 C 3.460938 647.988281 3.414062 646.152344 3.410156 644.316406 L 3.410156 509.542969 C 3.410156 508.410156 3.464844 507.277344 3.578125 506.148438 C 3.6875 505.019531 3.855469 503.898438 4.074219 502.785156 C 4.296875 501.675781 4.570312 500.574219 4.898438 499.488281 C 5.226562 498.402344 5.609375 497.335938 6.042969 496.289062 C 6.476562 495.238281 6.960938 494.214844 7.496094 493.214844 C 8.03125 492.214844 8.613281 491.242188 9.242188 490.300781 C 9.871094 489.355469 10.546875 488.445312 11.265625 487.570312 C 11.984375 486.691406 12.746094 485.851562 13.546875 485.050781 C 14.351562 484.246094 15.1875 483.484375 16.066406 482.765625 C 16.941406 482.046875 17.851562 481.371094 18.796875 480.742188 C 19.738281 480.109375 20.710938 479.527344 21.710938 478.992188 C 22.710938 478.457031 23.734375 477.972656 24.78125 477.539062 C 25.828125 477.105469 26.894531 476.722656 27.980469 476.394531 C 29.066406 476.066406 30.164062 475.789062 31.277344 475.566406 C 32.390625 475.347656 33.511719 475.179688 34.640625 475.070312 C 35.769531 474.957031 36.898438 474.902344 38.035156 474.902344 C 39.167969 474.902344 40.300781 474.957031 41.429688 475.070312 C 42.558594 475.179688 43.679688 475.347656 44.789062 475.566406 C 45.902344 475.789062 47 476.066406 48.085938 476.394531 C 49.171875 476.722656 50.238281 477.105469 51.285156 477.539062 C 52.335938 477.972656 53.359375 478.457031 54.359375 478.992188 C 55.359375 479.527344 56.332031 480.109375 57.273438 480.742188 C 58.214844 481.371094 59.125 482.046875 60.003906 482.765625 C 60.878906 483.484375 61.71875 484.246094 62.519531 485.050781 C 63.320312 485.851562 64.082031 486.691406 64.800781 487.570312 C 65.519531 488.445312 66.195312 489.355469 66.824219 490.300781 C 67.457031 491.242188 68.039062 492.214844 68.574219 493.214844 C 69.105469 494.214844 69.589844 495.238281 70.023438 496.289062 C 70.457031 497.335938 70.839844 498.402344 71.167969 499.488281 C 71.496094 500.574219 71.773438 501.675781 71.992188 502.785156 C 72.214844 503.898438 72.378906 505.019531 72.492188 506.148438 C 72.601562 507.277344 72.65625 508.410156 72.65625 509.542969 L 72.65625 638.253906 C 72.660156 639.863281 72.738281 641.464844 72.898438 643.0625 C 73.058594 644.660156 73.296875 646.246094 73.609375 647.820312 C 73.925781 649.394531 74.316406 650.953125 74.785156 652.488281 C 75.25 654.023438 75.792969 655.535156 76.40625 657.015625 C 77.023438 658.5 77.710938 659.949219 78.46875 661.367188 C 79.226562 662.78125 80.050781 664.15625 80.941406 665.492188 C 81.835938 666.828125 82.792969 668.117188 83.808594 669.355469 C 84.828125 670.597656 85.90625 671.785156 87.042969 672.921875 C 88.175781 674.058594 89.367188 675.136719 90.605469 676.152344 C 91.847656 677.171875 93.136719 678.128906 94.472656 679.019531 C 95.804688 679.914062 97.179688 680.738281 98.597656 681.496094 C 100.011719 682.253906 101.460938 682.941406 102.945312 683.554688 C 104.429688 684.171875 105.9375 684.710938 107.472656 685.179688 C 109.011719 685.648438 110.566406 686.039062 112.140625 686.351562 C 113.714844 686.667969 115.300781 686.902344 116.898438 687.0625 C 118.496094 687.222656 120.097656 687.300781 121.703125 687.304688 L 688.367188 687.304688 C 689.972656 687.300781 691.578125 687.222656 693.175781 687.0625 C 694.773438 686.902344 696.359375 686.667969 697.933594 686.351562 C 699.507812 686.039062 701.0625 685.648438 702.597656 685.179688 C 704.136719 684.710938 705.644531 684.171875 707.128906 683.554688 C 708.609375 682.941406 710.058594 682.253906 711.476562 681.496094 C 712.890625 680.738281 714.265625 679.914062 715.601562 679.019531 C 716.9375 678.128906 718.226562 677.171875 719.464844 676.152344 C 720.707031 675.136719 721.894531 674.058594 723.03125 672.921875 C 724.167969 671.785156 725.242188 670.597656 726.261719 669.355469 C 727.28125 668.117188 728.238281 666.828125 729.128906 665.492188 C 730.023438 664.15625 730.847656 662.78125 731.605469 661.367188 C 732.363281 659.949219 733.050781 658.5 733.664062 657.015625 C 734.28125 655.535156 734.820312 654.023438 735.289062 652.488281 C 735.757812 650.953125 736.148438 649.394531 736.464844 647.820312 C 736.777344 646.246094 737.015625 644.660156 737.175781 643.0625 C 737.332031 641.464844 737.414062 639.863281 737.417969 638.253906 L 737.417969 509.542969 C 737.417969 508.410156 737.472656 507.277344 737.582031 506.148438 C 737.695312 505.019531 737.859375 503.902344 738.082031 502.789062 C 738.300781 501.675781 738.578125 500.578125 738.90625 499.492188 C 739.234375 498.40625 739.617188 497.339844 740.050781 496.292969 C 740.484375 495.242188 740.96875 494.21875 741.503906 493.21875 C 742.039062 492.21875 742.621094 491.246094 743.25 490.304688 C 743.882812 489.363281 744.554688 488.453125 745.273438 487.574219 C 745.996094 486.699219 746.753906 485.859375 747.558594 485.058594 C 748.359375 484.253906 749.199219 483.496094 750.074219 482.773438 C 750.949219 482.054688 751.859375 481.378906 752.804688 480.75 C 753.746094 480.121094 754.71875 479.539062 755.71875 479.003906 C 756.71875 478.46875 757.742188 477.984375 758.789062 477.550781 C 759.835938 477.117188 760.902344 476.734375 761.988281 476.40625 C 763.074219 476.078125 764.171875 475.800781 765.285156 475.578125 C 766.394531 475.359375 767.515625 475.191406 768.644531 475.082031 C 769.773438 474.96875 770.90625 474.914062 772.039062 474.914062 C 773.171875 474.914062 774.304688 474.96875 775.433594 475.082031 C 776.5625 475.191406 777.679688 475.359375 778.792969 475.578125 C 779.90625 475.800781 781.003906 476.078125 782.089844 476.40625 C 783.175781 476.734375 784.242188 477.117188 785.289062 477.550781 C 786.335938 477.984375 787.359375 478.46875 788.359375 479.003906 C 789.359375 479.539062 790.332031 480.121094 791.273438 480.75 C 792.21875 481.378906 793.125 482.054688 794.003906 482.773438 C 794.878906 483.496094 795.71875 484.253906 796.519531 485.058594 C 797.324219 485.859375 798.082031 486.699219 798.800781 487.574219 C 799.523438 488.453125 800.195312 489.363281 800.828125 490.304688 C 801.457031 491.246094 802.039062 492.21875 802.574219 493.21875 C 803.109375 494.21875 803.59375 495.242188 804.027344 496.292969 C 804.460938 497.339844 804.839844 498.40625 805.171875 499.492188 C 805.5 500.578125 805.773438 501.675781 805.996094 502.789062 C 806.21875 503.902344 806.382812 505.019531 806.496094 506.148438 C 806.605469 507.277344 806.660156 508.410156 806.660156 509.542969 Z M 293.566406 263.066406 L 359.457031 197.160156 C 359.941406 196.675781 360.488281 196.273438 361.089844 195.949219 C 361.695312 195.625 362.332031 195.398438 363.003906 195.265625 C 363.675781 195.132812 364.351562 195.097656 365.035156 195.164062 C 365.714844 195.230469 366.371094 195.398438 367.003906 195.660156 C 367.636719 195.921875 368.21875 196.269531 368.746094 196.703125 C 369.277344 197.136719 369.730469 197.640625 370.113281 198.210938 C 370.492188 198.777344 370.78125 199.390625 370.980469 200.046875 C 371.179688 200.703125 371.277344 201.371094 371.277344 202.058594 L 371.277344 528.117188 C 371.277344 529.25 371.335938 530.382812 371.445312 531.511719 C 371.558594 532.640625 371.722656 533.761719 371.945312 534.871094 C 372.164062 535.984375 372.441406 537.082031 372.769531 538.167969 C 373.097656 539.253906 373.480469 540.320312 373.914062 541.367188 C 374.347656 542.417969 374.832031 543.441406 375.367188 544.441406 C 375.902344 545.441406 376.484375 546.414062 377.113281 547.355469 C 377.742188 548.300781 378.417969 549.210938 379.136719 550.085938 C 379.855469 550.960938 380.617188 551.800781 381.417969 552.605469 C 382.222656 553.40625 383.0625 554.167969 383.9375 554.886719 C 384.8125 555.605469 385.722656 556.28125 386.667969 556.910156 C 387.609375 557.539062 388.582031 558.121094 389.582031 558.65625 C 390.582031 559.191406 391.605469 559.675781 392.652344 560.109375 C 393.699219 560.542969 394.765625 560.925781 395.851562 561.253906 C 396.9375 561.585938 398.035156 561.859375 399.148438 562.082031 C 400.257812 562.300781 401.378906 562.46875 402.507812 562.578125 C 403.636719 562.691406 404.769531 562.746094 405.902344 562.746094 C 407.035156 562.746094 408.167969 562.691406 409.296875 562.578125 C 410.425781 562.46875 411.542969 562.300781 412.65625 562.082031 C 413.769531 561.859375 414.867188 561.585938 415.953125 561.253906 C 417.039062 560.925781 418.105469 560.542969 419.152344 560.109375 C 420.199219 559.675781 421.222656 559.191406 422.222656 558.65625 C 423.222656 558.121094 424.195312 557.539062 425.136719 556.910156 C 426.082031 556.28125 426.988281 555.605469 427.867188 554.886719 C 428.742188 554.167969 429.582031 553.40625 430.382812 552.605469 C 431.1875 551.800781 431.945312 550.960938 432.664062 550.085938 C 433.386719 549.210938 434.058594 548.300781 434.691406 547.355469 C 435.320312 546.414062 435.902344 545.441406 436.4375 544.441406 C 436.972656 543.441406 437.457031 542.417969 437.890625 541.367188 C 438.324219 540.320312 438.703125 539.253906 439.035156 538.167969 C 439.363281 537.082031 439.636719 535.984375 439.859375 534.871094 C 440.082031 533.761719 440.246094 532.640625 440.359375 531.511719 C 440.46875 530.382812 440.523438 529.25 440.523438 528.117188 L 440.523438 203.789062 C 440.523438 203.101562 440.625 202.433594 440.820312 201.777344 C 441.019531 201.121094 441.308594 200.507812 441.691406 199.941406 C 442.070312 199.371094 442.527344 198.867188 443.054688 198.433594 C 443.585938 198 444.164062 197.652344 444.796875 197.390625 C 445.433594 197.132812 446.089844 196.972656 446.769531 196.90625 C 447.449219 196.839844 448.125 196.875 448.796875 197.007812 C 449.46875 197.140625 450.105469 197.371094 450.710938 197.691406 C 451.3125 198.011719 451.859375 198.410156 452.34375 198.890625 L 516.507812 263.066406 C 517.320312 263.84375 518.171875 264.582031 519.054688 265.28125 C 519.941406 265.976562 520.855469 266.632812 521.804688 267.242188 C 522.75 267.851562 523.726562 268.414062 524.726562 268.933594 C 525.726562 269.449219 526.75 269.917969 527.796875 270.339844 C 528.84375 270.757812 529.90625 271.125 530.988281 271.445312 C 532.070312 271.761719 533.164062 272.027344 534.269531 272.242188 C 535.375 272.457031 536.492188 272.617188 537.613281 272.722656 C 538.734375 272.832031 539.859375 272.886719 540.984375 272.886719 C 542.113281 272.886719 543.238281 272.832031 544.359375 272.722656 C 545.480469 272.617188 546.59375 272.457031 547.699219 272.242188 C 548.808594 272.027344 549.902344 271.761719 550.980469 271.445312 C 552.0625 271.125 553.125 270.757812 554.171875 270.339844 C 555.21875 269.917969 556.242188 269.449219 557.242188 268.933594 C 558.246094 268.414062 559.21875 267.851562 560.167969 267.242188 C 561.113281 266.632812 562.03125 265.976562 562.914062 265.28125 C 563.800781 264.582031 564.648438 263.84375 565.464844 263.066406 C 566.265625 262.261719 567.023438 261.421875 567.742188 260.542969 C 568.460938 259.667969 569.132812 258.757812 569.761719 257.8125 C 570.390625 256.871094 570.96875 255.898438 571.503906 254.898438 C 572.039062 253.898438 572.519531 252.875 572.953125 251.828125 C 573.386719 250.78125 573.765625 249.714844 574.09375 248.628906 C 574.421875 247.542969 574.699219 246.445312 574.917969 245.332031 C 575.140625 244.222656 575.304688 243.101562 575.417969 241.972656 C 575.527344 240.84375 575.582031 239.714844 575.582031 238.582031 C 575.582031 237.445312 575.527344 236.316406 575.417969 235.1875 C 575.304688 234.058594 575.140625 232.941406 574.917969 231.828125 C 574.699219 230.714844 574.421875 229.617188 574.09375 228.53125 C 573.765625 227.449219 573.386719 226.382812 572.953125 225.335938 C 572.519531 224.285156 572.039062 223.261719 571.503906 222.261719 C 570.96875 221.261719 570.390625 220.289062 569.761719 219.347656 C 569.132812 218.402344 568.460938 217.492188 567.742188 216.617188 C 567.023438 215.738281 566.265625 214.898438 565.464844 214.097656 L 405.035156 53.636719 L 244.609375 214.097656 C 243.808594 214.898438 243.050781 215.738281 242.332031 216.617188 C 241.613281 217.492188 240.941406 218.402344 240.3125 219.347656 C 239.683594 220.289062 239.101562 221.261719 238.570312 222.261719 C 238.035156 223.261719 237.550781 224.285156 237.121094 225.335938 C 236.6875 226.382812 236.304688 227.449219 235.976562 228.53125 C 235.648438 229.617188 235.375 230.714844 235.152344 231.828125 C 234.933594 232.941406 234.769531 234.058594 234.65625 235.1875 C 234.546875 236.316406 234.492188 237.445312 234.492188 238.582031 C 234.492188 239.714844 234.546875 240.84375 234.65625 241.972656 C 234.769531 243.101562 234.933594 244.222656 235.152344 245.332031 C 235.375 246.445312 235.648438 247.542969 235.976562 248.628906 C 236.304688 249.714844 236.6875 250.78125 237.121094 251.828125 C 237.550781 252.875 238.035156 253.898438 238.570312 254.898438 C 239.101562 255.898438 239.683594 256.871094 240.3125 257.8125 C 240.941406 258.757812 241.613281 259.667969 242.332031 260.542969 C 243.050781 261.421875 243.808594 262.261719 244.609375 263.066406 C 245.421875 263.84375 246.273438 264.582031 247.15625 265.28125 C 248.042969 265.976562 248.960938 266.632812 249.90625 267.242188 C 250.855469 267.851562 251.828125 268.414062 252.828125 268.933594 C 253.832031 269.449219 254.855469 269.917969 255.898438 270.339844 C 256.945312 270.757812 258.007812 271.125 259.089844 271.445312 C 260.171875 271.761719 261.265625 272.027344 262.371094 272.242188 C 263.480469 272.457031 264.59375 272.617188 265.714844 272.722656 C 266.835938 272.832031 267.960938 272.886719 269.085938 272.886719 C 270.214844 272.886719 271.339844 272.832031 272.460938 272.722656 C 273.582031 272.617188 274.695312 272.457031 275.804688 272.242188 C 276.910156 272.027344 278.003906 271.761719 279.085938 271.445312 C 280.164062 271.125 281.230469 270.757812 282.273438 270.339844 C 283.320312 269.917969 284.34375 269.449219 285.347656 268.933594 C 286.347656 268.414062 287.320312 267.851562 288.269531 267.242188 C 289.214844 266.632812 290.132812 265.976562 291.015625 265.28125 C 291.902344 264.582031 292.753906 263.84375 293.566406 263.066406 Z M 293.566406 263.066406 "/></g><g clip-rule="nonzero" clip-path="url(#5ae17d6046)"><path style=" stroke:none;fill-rule:nonzero;fill:#000000;fill-opacity:1;" d="M 405 119.804688 L 408.75 119.804688 L 408.75 123.554688 L 405 123.554688 Z M 405 119.804688 "/></g></g></svg>