<svg xmlns="http://www.w3.org/2000/svg" xmlns:xlink="http://www.w3.org/1999/xlink" width="1080" zoomAndPan="magnify" viewBox="0 0 810 809.999993" height="1080" preserveAspectRatio="xMidYMid meet" version="1.0"><defs><clipPath id="72fa65edf3"><path d="M 51.128906 462 L 759 462 L 759 801 L 51.128906 801 Z M 51.128906 462 " clip-rule="nonzero"/></clipPath><clipPath id="6f83e9ccd3"><path d="M 217 9.0625 L 593 9.0625 L 593 385 L 217 385 Z M 217 9.0625 " clip-rule="nonzero"/></clipPath><clipPath id="f8fb24c22a"><path d="M 498.015625 320.25 L 501.765625 320.25 L 501.765625 324 L 498.015625 324 Z M 498.015625 320.25 " clip-rule="nonzero"/></clipPath></defs><g clip-path="url(#72fa65edf3)"><path fill="#ffffff" d="M 516.152344 462.824219 L 293.839844 462.824219 C 289.867188 462.828125 285.902344 462.929688 281.933594 463.128906 C 277.96875 463.324219 274.007812 463.621094 270.058594 464.015625 C 266.105469 464.40625 262.167969 464.894531 258.238281 465.480469 C 254.3125 466.066406 250.402344 466.75 246.507812 467.527344 C 242.613281 468.304688 238.738281 469.179688 234.890625 470.144531 C 231.039062 471.113281 227.210938 472.175781 223.414062 473.328125 C 219.613281 474.484375 215.84375 475.734375 212.105469 477.074219 C 208.367188 478.414062 204.664062 479.84375 200.996094 481.363281 C 197.328125 482.886719 193.703125 484.496094 190.113281 486.195312 C 186.523438 487.894531 182.976562 489.683594 179.476562 491.554688 C 175.976562 493.429688 172.523438 495.386719 169.117188 497.429688 C 165.710938 499.472656 162.359375 501.597656 159.054688 503.804688 C 155.753906 506.011719 152.511719 508.296875 149.320312 510.664062 C 146.132812 513.03125 143.003906 515.472656 139.933594 517.992188 C 136.863281 520.511719 133.859375 523.105469 130.917969 525.773438 C 127.972656 528.4375 125.097656 531.175781 122.292969 533.984375 C 119.484375 536.792969 116.746094 539.667969 114.078125 542.609375 C 111.410156 545.550781 108.820312 548.558594 106.300781 551.625 C 103.78125 554.695312 101.335938 557.824219 98.96875 561.015625 C 96.605469 564.203125 94.316406 567.449219 92.109375 570.75 C 89.902344 574.050781 87.777344 577.402344 85.734375 580.808594 C 83.695312 584.214844 81.734375 587.667969 79.863281 591.167969 C 77.988281 594.671875 76.203125 598.214844 74.503906 601.804688 C 72.804688 605.394531 71.195312 609.023438 69.671875 612.691406 C 68.152344 616.359375 66.71875 620.0625 65.378906 623.800781 C 64.039062 627.539062 62.792969 631.304688 61.636719 635.105469 C 60.480469 638.90625 59.421875 642.730469 58.453125 646.582031 C 57.484375 650.433594 56.613281 654.304688 55.835938 658.199219 C 55.058594 662.09375 54.375 666.003906 53.789062 669.933594 C 53.203125 673.859375 52.714844 677.800781 52.320312 681.75 C 51.929688 685.703125 51.632812 689.660156 51.433594 693.628906 C 51.234375 697.59375 51.132812 701.5625 51.128906 705.53125 L 51.128906 779.679688 C 51.128906 780.359375 51.164062 781.039062 51.230469 781.71875 C 51.296875 782.398438 51.398438 783.070312 51.53125 783.738281 C 51.664062 784.40625 51.828125 785.066406 52.027344 785.71875 C 52.222656 786.371094 52.453125 787.015625 52.714844 787.644531 C 52.976562 788.273438 53.265625 788.890625 53.589844 789.492188 C 53.910156 790.089844 54.257812 790.675781 54.636719 791.242188 C 55.015625 791.808594 55.421875 792.355469 55.855469 792.882812 C 56.289062 793.410156 56.746094 793.914062 57.226562 794.398438 C 57.707031 794.878906 58.214844 795.335938 58.742188 795.769531 C 59.265625 796.203125 59.8125 796.605469 60.382812 796.984375 C 60.949219 797.363281 61.53125 797.714844 62.132812 798.035156 C 62.734375 798.355469 63.351562 798.648438 63.980469 798.910156 C 64.609375 799.171875 65.25 799.398438 65.902344 799.597656 C 66.554688 799.796875 67.214844 799.960938 67.886719 800.09375 C 68.554688 800.226562 69.226562 800.328125 69.90625 800.394531 C 70.582031 800.460938 71.265625 800.492188 71.945312 800.492188 L 738.046875 800.492188 C 738.726562 800.492188 739.40625 800.460938 740.085938 800.394531 C 740.765625 800.328125 741.4375 800.226562 742.105469 800.09375 C 742.773438 799.960938 743.433594 799.796875 744.085938 799.597656 C 744.738281 799.398438 745.378906 799.171875 746.011719 798.910156 C 746.640625 798.648438 747.257812 798.355469 747.855469 798.035156 C 748.457031 797.714844 749.042969 797.363281 749.609375 796.984375 C 750.175781 796.605469 750.722656 796.203125 751.25 795.769531 C 751.777344 795.335938 752.28125 794.878906 752.765625 794.398438 C 753.246094 793.914062 753.703125 793.410156 754.136719 792.882812 C 754.566406 792.355469 754.972656 791.808594 755.351562 791.242188 C 755.730469 790.675781 756.082031 790.089844 756.402344 789.492188 C 756.722656 788.890625 757.015625 788.273438 757.277344 787.644531 C 757.535156 787.015625 757.765625 786.371094 757.964844 785.71875 C 758.164062 785.066406 758.328125 784.40625 758.460938 783.738281 C 758.59375 783.070312 758.695312 782.398438 758.761719 781.71875 C 758.828125 781.039062 758.859375 780.359375 758.859375 779.679688 L 758.859375 705.53125 C 758.855469 701.5625 758.753906 697.59375 758.554688 693.628906 C 758.359375 689.660156 758.0625 685.703125 757.667969 681.75 C 757.277344 677.800781 756.785156 673.859375 756.199219 669.933594 C 755.613281 666.003906 754.933594 662.09375 754.15625 658.199219 C 753.378906 654.304688 752.503906 650.433594 751.539062 646.582031 C 750.570312 642.730469 749.507812 638.90625 748.355469 635.105469 C 747.199219 631.304688 745.949219 627.539062 744.609375 623.800781 C 743.269531 620.0625 741.839844 616.359375 740.320312 612.691406 C 738.796875 609.023438 737.1875 605.394531 735.488281 601.804688 C 733.789062 598.214844 732 594.671875 730.128906 591.167969 C 728.253906 587.667969 726.296875 584.214844 724.253906 580.808594 C 722.210938 577.402344 720.085938 574.050781 717.878906 570.75 C 715.671875 567.449219 713.386719 564.203125 711.019531 561.015625 C 708.652344 557.824219 706.210938 554.695312 703.691406 551.625 C 701.171875 548.558594 698.578125 545.550781 695.910156 542.609375 C 693.246094 539.667969 690.507812 536.792969 687.699219 533.984375 C 684.890625 531.175781 682.015625 528.4375 679.074219 525.773438 C 676.132812 523.105469 673.125 520.511719 670.058594 517.992188 C 666.988281 515.472656 663.859375 513.03125 660.667969 510.664062 C 657.480469 508.296875 654.234375 506.011719 650.933594 503.804688 C 647.632812 501.597656 644.28125 499.472656 640.875 497.429688 C 637.46875 495.386719 634.015625 493.429688 630.515625 491.554688 C 627.011719 489.683594 623.46875 487.894531 619.878906 486.195312 C 616.289062 484.496094 612.660156 482.886719 608.992188 481.363281 C 605.324219 479.84375 601.621094 478.414062 597.882812 477.074219 C 594.144531 475.734375 590.378906 474.484375 586.578125 473.328125 C 582.777344 472.175781 578.953125 471.113281 575.101562 470.144531 C 571.25 469.179688 567.378906 468.304688 563.484375 467.527344 C 559.589844 466.75 555.679688 466.066406 551.75 465.480469 C 547.824219 464.894531 543.882812 464.40625 539.933594 464.015625 C 535.980469 463.621094 532.023438 463.324219 528.054688 463.128906 C 524.089844 462.929688 520.121094 462.828125 516.152344 462.824219 Z M 516.152344 462.824219 " fill-opacity="1" fill-rule="nonzero"/></g><g clip-path="url(#6f83e9ccd3)"><path fill="#ffffff" d="M 592.335938 196.839844 C 592.335938 199.90625 592.261719 202.972656 592.109375 206.035156 C 591.960938 209.097656 591.734375 212.152344 591.433594 215.203125 C 591.132812 218.253906 590.757812 221.296875 590.308594 224.328125 C 589.859375 227.363281 589.335938 230.382812 588.734375 233.390625 C 588.136719 236.398438 587.464844 239.386719 586.722656 242.359375 C 585.976562 245.335938 585.160156 248.289062 584.269531 251.222656 C 583.378906 254.15625 582.417969 257.066406 581.382812 259.953125 C 580.351562 262.839844 579.25 265.699219 578.074219 268.535156 C 576.902344 271.367188 575.660156 274.167969 574.347656 276.941406 C 573.039062 279.710938 571.660156 282.449219 570.214844 285.152344 C 568.769531 287.855469 567.257812 290.523438 565.683594 293.152344 C 564.105469 295.78125 562.464844 298.371094 560.761719 300.921875 C 559.058594 303.472656 557.296875 305.976562 555.46875 308.441406 C 553.640625 310.902344 551.757812 313.320312 549.8125 315.6875 C 547.867188 318.058594 545.863281 320.378906 543.804688 322.652344 C 541.746094 324.921875 539.632812 327.144531 537.464844 329.3125 C 535.296875 331.480469 533.078125 333.59375 530.804688 335.652344 C 528.535156 337.710938 526.214844 339.710938 523.84375 341.65625 C 521.472656 343.601562 519.054688 345.488281 516.59375 347.3125 C 514.132812 349.140625 511.625 350.90625 509.074219 352.609375 C 506.527344 354.3125 503.9375 355.953125 501.308594 357.527344 C 498.679688 359.105469 496.011719 360.617188 493.308594 362.0625 C 490.601562 363.507812 487.867188 364.882812 485.09375 366.195312 C 482.320312 367.503906 479.519531 368.746094 476.6875 369.921875 C 473.855469 371.09375 470.996094 372.199219 468.109375 373.230469 C 465.222656 374.261719 462.3125 375.226562 459.378906 376.113281 C 456.445312 377.003906 453.488281 377.824219 450.515625 378.566406 C 447.542969 379.3125 444.550781 379.984375 441.542969 380.582031 C 438.535156 381.179688 435.515625 381.703125 432.484375 382.152344 C 429.449219 382.605469 426.410156 382.980469 423.359375 383.28125 C 420.308594 383.578125 417.25 383.804688 414.1875 383.957031 C 411.125 384.105469 408.0625 384.183594 404.996094 384.183594 C 401.929688 384.183594 398.867188 384.105469 395.804688 383.957031 C 392.742188 383.804688 389.683594 383.578125 386.632812 383.28125 C 383.582031 382.980469 380.539062 382.605469 377.507812 382.152344 C 374.472656 381.703125 371.453125 381.179688 368.445312 380.582031 C 365.441406 379.984375 362.449219 379.3125 359.476562 378.566406 C 356.5 377.820312 353.546875 377.003906 350.613281 376.113281 C 347.679688 375.226562 344.769531 374.261719 341.882812 373.230469 C 338.996094 372.199219 336.136719 371.09375 333.304688 369.921875 C 330.46875 368.746094 327.667969 367.503906 324.898438 366.195312 C 322.125 364.882812 319.386719 363.507812 316.683594 362.0625 C 313.980469 360.617188 311.3125 359.105469 308.683594 357.527344 C 306.054688 355.953125 303.464844 354.3125 300.914062 352.609375 C 298.367188 350.90625 295.859375 349.140625 293.398438 347.3125 C 290.933594 345.488281 288.519531 343.601562 286.148438 341.65625 C 283.777344 339.710938 281.457031 337.710938 279.183594 335.652344 C 276.914062 333.59375 274.695312 331.480469 272.527344 329.3125 C 270.359375 327.144531 268.246094 324.921875 266.183594 322.652344 C 264.125 320.378906 262.125 318.058594 260.179688 315.6875 C 258.234375 313.320312 256.347656 310.902344 254.523438 308.441406 C 252.695312 305.976562 250.929688 303.472656 249.226562 300.921875 C 247.523438 298.371094 245.882812 295.78125 244.308594 293.152344 C 242.730469 290.523438 241.222656 287.855469 239.777344 285.152344 C 238.332031 282.449219 236.953125 279.710938 235.640625 276.941406 C 234.332031 274.167969 233.089844 271.367188 231.914062 268.535156 C 230.742188 265.699219 229.640625 262.839844 228.605469 259.953125 C 227.574219 257.066406 226.613281 254.15625 225.722656 251.222656 C 224.832031 248.289062 224.015625 245.335938 223.269531 242.359375 C 222.523438 239.386719 221.851562 236.398438 221.253906 233.390625 C 220.65625 230.382812 220.132812 227.363281 219.683594 224.328125 C 219.234375 221.296875 218.859375 218.253906 218.558594 215.203125 C 218.257812 212.152344 218.03125 209.097656 217.878906 206.035156 C 217.730469 202.972656 217.65625 199.90625 217.65625 196.839844 C 217.65625 193.773438 217.730469 190.710938 217.878906 187.648438 C 218.03125 184.585938 218.257812 181.53125 218.558594 178.480469 C 218.859375 175.425781 219.234375 172.386719 219.683594 169.351562 C 220.132812 166.320312 220.65625 163.300781 221.253906 160.292969 C 221.851562 157.285156 222.523438 154.296875 223.269531 151.320312 C 224.015625 148.347656 224.832031 145.394531 225.722656 142.460938 C 226.613281 139.523438 227.574219 136.613281 228.605469 133.726562 C 229.640625 130.839844 230.742188 127.980469 231.914062 125.148438 C 233.089844 122.316406 234.332031 119.515625 235.640625 116.742188 C 236.953125 113.972656 238.332031 111.234375 239.777344 108.53125 C 241.222656 105.824219 242.730469 103.160156 244.308594 100.527344 C 245.882812 97.898438 247.523438 95.308594 249.226562 92.761719 C 250.929688 90.210938 252.695312 87.707031 254.523438 85.242188 C 256.347656 82.78125 258.234375 80.363281 260.179688 77.992188 C 262.125 75.625 264.125 73.304688 266.183594 71.03125 C 268.246094 68.757812 270.359375 66.539062 272.527344 64.371094 C 274.695312 62.203125 276.914062 60.089844 279.183594 58.03125 C 281.457031 55.972656 283.777344 53.96875 286.148438 52.023438 C 288.519531 50.082031 290.933594 48.195312 293.398438 46.367188 C 295.859375 44.542969 298.367188 42.777344 300.914062 41.074219 C 303.464844 39.371094 306.054688 37.730469 308.683594 36.152344 C 311.3125 34.578125 313.980469 33.066406 316.683594 31.621094 C 319.386719 30.175781 322.125 28.796875 324.898438 27.488281 C 327.667969 26.175781 330.46875 24.933594 333.304688 23.761719 C 336.136719 22.589844 338.996094 21.484375 341.882812 20.453125 C 344.769531 19.417969 347.679688 18.457031 350.613281 17.566406 C 353.546875 16.675781 356.5 15.859375 359.476562 15.113281 C 362.449219 14.371094 365.441406 13.699219 368.445312 13.101562 C 371.453125 12.503906 374.472656 11.976562 377.507812 11.527344 C 380.539062 11.078125 383.582031 10.703125 386.632812 10.402344 C 389.683594 10.101562 392.742188 9.875 395.804688 9.726562 C 398.867188 9.574219 401.929688 9.5 404.996094 9.5 C 408.0625 9.5 411.125 9.574219 414.1875 9.726562 C 417.25 9.875 420.308594 10.101562 423.359375 10.402344 C 426.410156 10.703125 429.449219 11.078125 432.484375 11.527344 C 435.515625 11.976562 438.535156 12.503906 441.542969 13.101562 C 444.550781 13.699219 447.542969 14.371094 450.515625 15.113281 C 453.488281 15.859375 456.445312 16.675781 459.378906 17.566406 C 462.3125 18.457031 465.222656 19.417969 468.109375 20.453125 C 470.996094 21.484375 473.855469 22.589844 476.6875 23.761719 C 479.519531 24.933594 482.320312 26.175781 485.09375 27.488281 C 487.867188 28.796875 490.601562 30.175781 493.308594 31.621094 C 496.011719 33.066406 498.679688 34.578125 501.308594 36.152344 C 503.9375 37.730469 506.527344 39.371094 509.074219 41.074219 C 511.625 42.777344 514.132812 44.542969 516.59375 46.367188 C 519.054688 48.195312 521.472656 50.082031 523.84375 52.023438 C 526.214844 53.96875 528.535156 55.972656 530.804688 58.03125 C 533.078125 60.089844 535.296875 62.203125 537.464844 64.371094 C 539.632812 66.539062 541.746094 68.757812 543.804688 71.03125 C 545.863281 73.304688 547.867188 75.625 549.8125 77.992188 C 551.757812 80.363281 553.640625 82.78125 555.46875 85.242188 C 557.296875 87.707031 559.058594 90.210938 560.761719 92.761719 C 562.464844 95.308594 564.105469 97.898438 565.683594 100.527344 C 567.257812 103.160156 568.769531 105.824219 570.214844 108.53125 C 571.660156 111.234375 573.039062 113.972656 574.347656 116.742188 C 575.660156 119.515625 576.902344 122.316406 578.074219 125.148438 C 579.25 127.980469 580.351562 130.839844 581.382812 133.726562 C 582.417969 136.613281 583.378906 139.523438 584.269531 142.460938 C 585.160156 145.394531 585.976562 148.347656 586.722656 151.320312 C 587.464844 154.296875 588.136719 157.285156 588.734375 160.292969 C 589.335938 163.300781 589.859375 166.320312 590.308594 169.351562 C 590.757812 172.386719 591.132812 175.425781 591.433594 178.480469 C 591.734375 181.53125 591.960938 184.585938 592.109375 187.648438 C 592.261719 190.710938 592.335938 193.773438 592.335938 196.839844 Z M 592.335938 196.839844 " fill-opacity="1" fill-rule="nonzero"/></g><g clip-path="url(#f8fb24c22a)"><path fill="#ffffff" d="M 498.015625 320.25 L 501.765625 320.25 L 501.765625 324 L 498.015625 324 Z M 498.015625 320.25 " fill-opacity="1" fill-rule="nonzero"/></g></svg>