<svg xmlns="http://www.w3.org/2000/svg" xmlns:xlink="http://www.w3.org/1999/xlink" width="1080" zoomAndPan="magnify" viewBox="0 0 810 809.999993" height="1080" preserveAspectRatio="xMidYMid meet" version="1.0"><defs><clipPath id="6c2adaf319"><path d="M 522.75 522.75 L 526.5 522.75 L 526.5 526.5 L 522.75 526.5 Z M 522.75 522.75 " clip-rule="nonzero"/></clipPath></defs><path fill="#ffffff" d="M 471.519531 405.171875 L 670.519531 206.167969 C 688.832031 187.859375 688.871094 158.117188 670.550781 139.796875 C 652.265625 121.515625 622.515625 121.492188 604.175781 139.828125 L 405.175781 338.828125 L 206.175781 139.828125 C 187.863281 121.515625 158.125 121.476562 139.804688 139.796875 C 121.519531 158.082031 121.496094 187.832031 139.832031 206.167969 L 338.832031 405.171875 L 139.832031 604.171875 C 121.519531 622.484375 121.484375 652.222656 139.804688 670.542969 C 158.085938 688.828125 187.839844 688.851562 206.175781 670.515625 L 405.175781 471.515625 L 604.175781 670.515625 C 622.488281 688.828125 652.230469 688.863281 670.550781 670.542969 C 688.832031 652.261719 688.855469 622.507812 670.519531 604.171875 Z M 471.519531 405.171875 " fill-opacity="1" fill-rule="evenodd"/><g clip-path="url(#6c2adaf319)"><path fill="#ffffff" d="M 522.75 522.75 L 526.5 522.75 L 526.5 526.5 L 522.75 526.5 Z M 522.75 522.75 " fill-opacity="1" fill-rule="nonzero"/></g></svg>